{
.appVersion = "3223";
.formatVersion = 3;
classes = (
{
automatic = 1;
code = "A Aacute Abreve Abreveacute Abrevedotbelow Abrevegrave Abrevehookabove Abrevetilde Acircumflex Acircumflexacute Acircumflexdotbelow Acircumflexgrave Acircumflexhookabove Acircumflextilde Adblgrave Adieresis Adotbelow Agrave Ahookabove Ainvertedbreve Amacron Aogonek Aring Aringacute Atilde AE AEacute B C Cacute Ccaron Ccedilla Ccircumflex Cdotaccent D DZcaron Dcaron Dcroat Dzcaron Eth E Eacute Ebreve Ecaron Ecircumflex Ecircumflexacute Ecircumflexdotbelow Ecircumflexgrave Ecircumflexhookabove Ecircumflextilde Edblgrave Edieresis Edotaccent Edotbelow Egrave Ehookabove Einvertedbreve Emacron Eogonek Etilde Schwa F G Gbreve Gcaron Gcircumflex Gcommaaccent Gdotaccent H Hbar Hcircumflex I IJ Iacute Ibreve Icircumflex Idblgrave Idieresis Idotaccent Idotbelow Igrave Ihookabove Iinvertedbreve Imacron Iogonek Itilde J Jcircumflex K Kcommaaccent L LJ Lacute Lcaron Lcommaaccent Ldot Lj Lslash M N NJ Nacute Ncaron Ncommaaccent Nj Ntilde Eng O Oacute Obreve Ocircumflex Ocircumflexacute Ocircumflexdotbelow Ocircumflexgrave Ocircumflexhookabove Ocircumflextilde Odblgrave Odieresis Odieresismacron Odotaccentmacron Odotbelow Ograve Ohookabove Ohorn Ohornacute Ohorndotbelow Ohorngrave Ohornhookabove Ohorntilde Ohungarumlaut Oinvertedbreve Omacron Oogonek Oslash Oslashacute Otilde Otildemacron OE P Thorn Q R Racute Rcaron Rcommaaccent Rdblgrave Rinvertedbreve S Sacute Scaron Scedilla Scircumflex Scommaaccent Germandbls T Tbar Tcaron Tcedilla Tcommaaccent U Uacute Ubreve Ucircumflex Udblgrave Udieresis Udotbelow Ugrave Uhookabove Uhorn Uhornacute Uhorndotbelow Uhorngrave Uhornhookabove Uhorntilde Uhungarumlaut Uinvertedbreve Umacron Uogonek Uring Utilde V W Wacute Wcircumflex Wdieresis Wgrave X Y Yacute Ycircumflex Ydieresis Ydotbelow Ygrave Yhookabove Ymacron Ytilde Z Zacute Zcaron Zdotaccent";
name = Uppercase;
}
);
customParameters = (
{
name = unicodeRanges;
value = (
0,
1,
2
);
},
{
name = fsType;

glyphs = (
{
color = 4;
glyphname = A;
kernLeft = A;
kernRight = A;
lastChange = "2023-04-27 14:39:50 +0000";
layers = (
{
anchors = (
{
name = bottom;
pos = (296,-35);
},
{
name = ogonek;
pos = (473,10);
},
{
name = top.case;
pos = (295,740);
}
);
background = {
shapes = (
{
closed = 0;
nodes = (
(233,47,l),
(359,47,l)
);
},
{
closed = 0;
nodes = (
(338,202,l),
(253,202,l)
);
}
);
};
guides = (
{
angle = 90;
pos = (575,-37);
}
);
hints = (
{
horizontal = 1;
place = (0,21);
target = up;
type = BottomGhost;
},
{
horizontal = 1;
place = (97,155);
type = Stem;
},
{
horizontal = 1;
place = (728,-20);
target = down;
type = TopGhost;
}
);
layerId = "58D608FC-F2A7-4C81-9CF8-8074D1767F25";
shapes = (
{
closed = 1;
nodes = (
(264,271,l),
(171,661,l),
(5,0,l),
(214,0,l)
);
},
{
closed = 1;
nodes = (
(331,202,l),
(301,202,l),
(274,47,l),
(367,47,l),
(378,0,l),
(585,0,l),
(418,728,l),
(207,728,l)
);
}
);
width = 590;
}
);
note = A;
unicode = 65;
},
{
color = 4;
glyphname = AE;
kernLeft = A;
kernRight = E;
lastChange = "2023-04-27 14:59:30 +0000";
layers = (
{
anchors = (
{
name = top.case;
pos = (438,740);
}
);
background = {
shapes = (
{
closed = 1;
nodes = (
(277,0,l),
(327,0,l),
(327,709,l),
(277,709,l)
);
}
);
};
hints = (
{
horizontal = 1;
place = (97,155);
type = Stem;
},
{
horizontal = 1;
place = (290,160);
type = Stem;
},
{
horizontal = 1;
place = (560,160);
type = Stem;
},
{
place = (327,195);
type = Stem;
},
{
horizontal = 1;
place = (0,160);
type = Stem;
}
);
layerId = "58D608FC-F2A7-4C81-9CF8-8074D1767F25";
shapes = (
{
closed = 1;
nodes = (
(327,0,l),
(708,0,l),
(738,160,l),
(522,160,l),
(522,290,l),
(659,290,l),
(689,450,l),
(522,450,l),
(522,510,l),
(327,510,l)
);
},
{
closed = 1;
nodes = (
(246,252,l),
(300,560,l),
(302,560,l),
(701,560,l),
(731,720,l),
(122,720,l),
(150,615,l),
(6,0,l),
(197,0,l),
(216,97,l),
(277,97,l),
(277,252,l)
);
}
);
width = 753;
}
);
metricRight = E;
note = AE;
unicode = 198;
},
{
color = 4;
glyphname = B;
kernLeft = B;
lastChange = "2023-04-27 15:02:32 +0000";
layers = (
{
background = {
shapes = (
{
closed = 1;
nodes = (
(250,-50,l),
(300,-50,l),
(300,660,l),
(250,660,l)
);
}
);
};
hints = (
{
horizontal = 1;
place = (132,0);
type = Stem;
},
{
horizontal = 1;
place = (301,123);
type = Stem;
},
{
horizontal = 1;
place = (583,137);
type = Stem;
},
{
place = (75,195);
type = Stem;
},
{
place = (381,74);
type = Stem;
},
{
place = (260,273);
type = Stem;
}
);
layerId = "58D608FC-F2A7-4C81-9CF8-8074D1767F25";
shapes = (
{
closed = 1;
nodes = (
(377,330,o),
(531,379,o),
(531,530,cs),
(531,650,o),
(461,720,o),
(300,720,cs),
(0,720,l),
(55,583,l),
(259,583,ls),
(319,583,o),
(345,563,o),
(345,503,cs),
(345,444,o),
(319,424,o),
(259,424,cs),
(250,424,l),
(250,533,l),
(55,533,l),
(55,0,l),
(285,0,ls),
(470,0,o),
(560,69,o),
(560,193,cs),
(560,268,o),
(538,318,o),
(482,351,c),
(447,316,o),
(395,296,o),
(334,283,c),
(351,265,o),
(357,246,o),
(357,216,cs),
(357,153,o),
(326,132,o),
(260,132,cs),
(250,132,l),
(250,330,l)
);
}
);
width = 584;
}
);
note = B;
unicode = 66;
},
{
color = 4;
glyphname = C;
kernLeft = C;
kernRight = C;
lastChange = "2023-04-27 15:02:43 +0000";
layers = (
{
anchors = (
{
name = bottom;
pos = (316,-35);
},
{
name = cedilla;
pos = (292,10);
},
{
name = top.case;
pos = (318,740);
}
);
background = {
shapes = (
{
closed = 1;
nodes = (
(648,331,l),
(648,381,l),
(-62,381,l),
(-62,331,l)
);
}
);
};
hints = (
{
horizontal = 1;
place = (-10,155);
type = Stem;
},
{
horizontal = 1;
place = (152,296);
type = Stem;
},
{
horizontal = 1;
place = (573,155);
type = Stem;
},
{
place = (-605,210);
type = Stem;
},
{
place = (-269,210);
type = Stem;
},
{
place = (323,62);
type = Stem;
},
{
place = (337,0);
type = Stem;
},
{
place = (356,210);
type = Stem;
}
);
layerId = "58D608FC-F2A7-4C81-9CF8-8074D1767F25";
shapes = (
{
closed = 1;
nodes = (
(26,105,o),
(117,-10,o),
(337,-10,cs),
(380,-10,o),
(441,-5,o),
(480,4,c),
(480,162,l),
(447,156,o),
(419,152,o),
(387,152,cs),
(285,152,o),
(236,195,o),
(230,331,c),
(20,331,l)
);
},
{
closed = 1;
nodes = (
(233,550,o),
(267,569,o),
(335,569,c),
(351,448,l),
(472,448,l),
(472,712,l),
(420,724,o),
(361,728,o),
(318,728,cs),
(126,728,o),
(26,644,o),
(20,381,c),
(230,381,l)
);
}
);
width = 505;
}
);
note = C;
unicode = 67;
},
{
color = 4;
glyphname = D;
kernLeft = B;
kernRight = D;
lastChange = "2023-04-27 15:23:50 +0000";
layers = (
{
anchors = (
{
name = top.case;
pos = (281,740);
}
);
background = {
shapes = (
{
closed = 1;
nodes = (
(630,510,l),
(630,560,l),
(-80,560,l),
(-80,510,l)
);
}
);
};
hints = (
{
horizontal = 1;
place = (0,160);
type = Stem;
},
{
horizontal = 1;
place = (560,160);
type = Stem;
},
{
place = (55,195);
type = Stem;
},
{
place = (370,210);
type = Stem;
}
);
layerId = "58D608FC-F2A7-4C81-9CF8-8074D1767F25";
shapes = (
{
closed = 1;
nodes = (
(281,560,l),
(350,560,o),
(370,524,o),
(370,374,cs),
(370,227,o),
(350,172,o),
(300,162,c),
(300,0,l),
(501,2,o),
(580,92,o),
(580,374,cs),
(580,637,o),
(499,720,o),
(293,720,cs),
(0,720,l),
(55,560,l)
);
},
{
closed = 1;
nodes = (
(250,0,l),
(250,510,l),
(55,510,l),
(55,0,l)
);
}
);
width = 600;
}
);
note = D;
unicode = 68;
},
{
color = 4;
glyphname = Eth;
kernLeft = Dcroat;
kernRight = D;
lastChange = "2023-04-27 15:23:43 +0000";
layers = (
{
anchors = (
{
name = top.case;
pos = (281,740);
}
);
background = {
shapes = (
{
closed = 1;
nodes = (
(640,406,l),
(640,456,l),
(-70,456,l),
(-70,406,l)
);
},
{
closed = 1;
nodes = (
(640,273,l),
(640,323,l),
(-70,323,l),
(-70,273,l)
);
}
);
};
hints = (
{
horizontal = 1;
place = (0,160);
type = Stem;
},
{
horizontal = 1;
place = (323,83);
type = Stem;
},
{
horizontal = 1;
place = (560,160);
type = Stem;
},
{
place = (63,195);
type = Stem;
},
{
place = (378,210);
type = Stem;
},
{
horizontal = 1;
place = (0,160);
type = Stem;
},
{
horizontal = 1;
place = (560,160);
type = Stem;
},
{
place = (55,195);
type = Stem;
},
{
place = (370,210);
type = Stem;
}
);
layerId = "58D608FC-F2A7-4C81-9CF8-8074D1767F25";
shapes = (
{
closed = 1;
nodes = (
(319,323,l),
(319,406,l),
(13,406,l),
(13,323,l)
);
},
{
closed = 1;
nodes = (
(55,0,l),
(293,0,ls),
(499,0,o),
(580,89,o),
(580,374,cs),
(580,637,o),
(499,720,o),
(293,720,cs),
(0,720,l),
(55,583,l),
(55,456,l),
(250,456,l),
(250,560,l),
(281,560,ls),
(350,560,o),
(370,524,o),
(370,374,cs),
(370,210,o),
(345,160,o),
(281,160,cs),
(250,160,l),
(250,273,l),
(55,273,l)
);
}
);
width = 600;
},
{
associatedMasterId = "58D608FC-F2A7-4C81-9CF8-8074D1767F25";
background = {
shapes = (
{
closed = 1;
nodes = (
(0,720,l),
(55,583,l),
(55,406,l),
(13,406,l),
(13,323,l),
(55,323,l),
(55,0,l),
(293,0,ls),
(499,0,o),
(580,89,o),
(580,374,cs),
(580,637,o),
(499,720,o),
(293,720,cs)
);
},
{
closed = 1;
nodes = (
(250,160,l),
(250,323,l),
(326,323,l),
(326,406,l),
(250,406,l),
(250,560,l),
(281,560,ls),
(350,560,o),
(370,524,o),
(370,374,cs),
(370,210,o),
(345,160,o),
(281,160,cs)
);
}
);
};
hints = (
{
horizontal = 1;
place = (0,160);
type = Stem;
},
{
horizontal = 1;
place = (323,83);
type = Stem;
},
{
horizontal = 1;
place = (560,160);
type = Stem;
},
{
place = (63,195);
type = Stem;
},
{
place = (378,210);
type = Stem;
}
);
layerId = "E3D865F6-C352-499C-9E7A-008FF679604A";
name = "Jul 21 20, 14:36";
shapes = (
{
closed = 1;
nodes = (
(319,323,l),
(319,406,l),
(13,406,l),
(13,323,l)
);
},
{
ref = D;
}
);
width = 600;
}
);
metricRight = D;
note = Eth;
unicode = 208;
},
{
color = 4;
glyphname = E;
kernLeft = B;
kernRight = E;
lastChange = "2023-04-27 15:36:44 +0000";
layers = (
{
anchors = (
{
name = bottom;
pos = (276,-35);
},
{
name = ogonek;
pos = (384,10);
},
{
name = top.case;
pos = (259,740);
}
);
background = {
shapes = (
{
closed = 1;
nodes = (
(650,510,l),
(650,560,l),
(-60,560,l),
(-60,510,l)
);
}
);
};
guides = (
{
angle = 90;
pos = (486,-38);
}
);
hints = (
{
horizontal = 1;
place = (0,160);
type = Stem;
},
{
horizontal = 1;
place = (290,160);
type = Stem;
},
{
horizontal = 1;
place = (560,160);
type = Stem;
},
{
place = (55,195);
type = Stem;
}
);
layerId = "58D608FC-F2A7-4C81-9CF8-8074D1767F25";
shapes = (
{
closed = 1;
nodes = (
(55,0,l),
(456,0,l),
(486,160,l),
(250,160,l),
(250,290,l),
(407,290,l),
(437,450,l),
(250,450,l),
(250,510,l),
(55,510,l)
);
},
{
closed = 1;
nodes = (
(449,560,l),
(479,720,l),
(0,720,l),
(64,560,l)
);
}
);
width = 501;
}
);
note = E;
unicode = 69;
},
{
color = 4;
glyphname = Schwa;
lastChange = "2023-04-27 15:46:43 +0000";
layers = (
{
background = {
shapes = (
{
closed = 0;
nodes = (
(129,557,ls),
(240,557,o),
(298,522,o),
(298,353,cs),
(298,237,o),
(286,171,o),
(254,150,c)
);
}
);
};
hints = (
{
horizontal = 1;
place = (707,-336);
type = Stem;
},
{
place = (454,-330);
type = Stem;
},
{
horizontal = 1;
place = (488,-206);
type = Stem;
},
{
place = (135,0);
type = Stem;
}
);
layerId = "58D608FC-F2A7-4C81-9CF8-8074D1767F25";
shapes = (
{
closed = 1;
nodes = (
(479,4,o),
(553,115,o),
(553,357,cs),
(553,587,o),
(441,728,o),
(225,728,cs),
(168,728,o),
(111,721,o),
(38,707,c),
(65,457,l),
(11,536,l),
(74,550,o),
(131,557,o),
(179,557,cs),
(290,557,o),
(348,522,o),
(348,353,cs),
(348,237,o),
(336,171,o),
(304,150,c),
(304,-9,l)
);
},
{
closed = 1;
nodes = (
(222,169,o),
(213,227,o),
(213,275,cs),
(213,304,o),
(212,330,o),
(212,340,c),
(114,289,l),
(297,289,l),
(297,310,o),
(298,331,o),
(298,352,cs),
(298,377,o),
(297,402,o),
(293,427,c),
(23,427,l),
(18,385,o),
(15,345,o),
(15,307,cs),
(15,126,o),
(81,-4,o),
(254,-10,c),
(254,149,l)
);
}
);
width = 573;
}
);
metricRight = O;
unicode = 399;
},
{
color = 4;
glyphname = F;
kernLeft = B;
lastChange = "2023-04-27 15:46:43 +0000";
layers = (
{
background = {
shapes = (
{
closed = 1;
nodes = (
(55,0,l),
(250,0,l),
(250,264,l),
(386,264,l),
(416,424,l),
(250,424,l),
(250,524,l),
(55,524,l)
);
},
{
closed = 1;
nodes = (
(250,560,l),
(434,560,l),
(464,720,l),
(0,720,l),
(55,583,l),
(55,546,l),
(250,546,l)
);
}
);
};
guides = (
{
pos = (186,510);
}
);
hints = (
{
horizontal = 1;
place = (0,21);
target = up;
type = BottomGhost;
},
{
horizontal = 1;
place = (264,160);
type = Stem;
},
{
horizontal = 1;
place = (560,160);
type = Stem;
},
{
place = (55,195);
type = Stem;
}
);
layerId = "58D608FC-F2A7-4C81-9CF8-8074D1767F25";
shapes = (
{
closed = 1;
nodes = (
(55,0,l),
(250,0,l),
(250,264,l),
(386,264,l),
(416,424,l),
(250,424,l),
(250,510,l),
(55,510,l)
);
},
{
closed = 1;
nodes = (
(434,560,l),
(464,720,l),
(0,720,l),
(64,560,l)
);
}
);
width = 474;
}
);
note = F;
unicode = 70;
},
{
color = 4;
glyphname = G;
kernLeft = C;
kernRight = G;
lastChange = "2023-04-27 15:46:43 +0000";
layers = (
{
anchors = (
{
name = bottom;
pos = (332,-35);
},
{
name = top.case;
pos = (336,740);
}
);
background = {
shapes = (
{
closed = 1;
nodes = (
(302,-24,l),
(352,-24,l),
(352,685,l),
(302,685,l)
);
}
);
};
hints = (
{
horizontal = 1;
place = (-10,160);
type = Stem;
},
{
horizontal = 1;
place = (560,168);
type = Stem;
},
{
place = (20,210);
type = Stem;
},
{
place = (352,180);
type = Stem;
}
);
layerId = "58D608FC-F2A7-4C81-9CF8-8074D1767F25";
shapes = (
{
closed = 1;
nodes = (
(422,-8,o),
(489,6,o),
(532,34,c),
(532,356,l),
(297,356,l),
(352,219,l),
(352,-10,l)
);
},
{
closed = 1;
nodes = (
(235,520,o),
(278,557,o),
(377,557,cs),
(409,557,o),
(437,552,o),
(481,544,c),
(499,708,l),
(446,719,o),
(395,728,o),
(348,728,cs),
(159,728,o),
(29,627,o),
(20,382,c),
(230,382,l)
);
},
{
closed = 1;
nodes = (
(251,181,o),
(232,230,o),
(230,332,c),
(20,332,l),
(27,98,o),
(133,1,o),
(302,-9,c),
(302,161,l)
);
}
);
width = 547;
}
);
note = G;
unicode = 71;
},
{
color = 4;
glyphname = H;
kernLeft = H;
lastChange = "2023-04-28 09:52:01 +0000";
layers = (
{
anchors = (
{
name = top.case;
pos = (290,740);
}
);
background = {
shapes = (
{
closed = 1;
nodes = (
(648,233,l),
(648,283,l),
(-62,283,l),
(-62,233,l)
);
},
{
closed = 1;
nodes = (
(648,443,l),
(648,493,l),
(-62,493,l),
(-62,443,l)
);
}
);
};
hints = (
{
horizontal = 1;
place = (0,21);
target = up;
type = BottomGhost;
},
{
horizontal = 1;
place = (720,-20);
target = down;
type = TopGhost;
},
{
place = (45,195);
type = Stem;
},
{
place = (340,195);
type = Stem;
}
);
layerId = "58D608FC-F2A7-4C81-9CF8-8074D1767F25";
shapes = (
{
closed = 1;
nodes = (
(340,233,l),
(340,0,l),
(535,0,l),
(535,233,l)
);
},
{
closed = 1;
nodes = (
(535,492,l),
(535,720,l),
(340,720,l),
(340,492,l)
);
},
{
closed = 1;
nodes = (
(240,245,l),
(240,720,l),
(45,720,l),
(45,245,l)
);
},
{
closed = 1;
nodes = (
(45,299,l),
(45,0,l),
(240,0,l),
(240,299,l)
);
},
{
closed = 1;
nodes = (
(535,284,l),
(535,443,l),
(45,443,l),
(45,284,l)
);
}
);
width = 580;
}
);
note = H;
unicode = 72;
},
{
color = 4;
glyphname = Hbar;
kernLeft = H;
lastChange = "2023-04-28 09:52:10 +0000";
layers = (
{
background = {
shapes = (
{
closed = 1;
nodes = (
(565,525,l),
(565,608,l),
(15,608,l),
(15,525,l)
);
},
{
closed = 1;
nodes = (
(648,608,l),
(648,658,l),
(-62,658,l),
(-62,608,l)
);
},
{
closed = 1;
nodes = (
(648,475,l),
(648,525,l),
(-62,525,l),
(-62,475,l)
);
},
{
closed = 1;
nodes = (
(648,608,l),
(648,658,l),
(-62,658,l),
(-62,608,l)
);
},
{
closed = 1;
nodes = (
(648,475,l),
(648,525,l),
(-62,525,l),
(-62,475,l)
);
},
{
ref = H;
}
);
};
hints = (
{
horizontal = 1;
place = (0,21);
target = up;
type = BottomGhost;
},
{
horizontal = 1;
place = (525,83);
type = Stem;
},
{
horizontal = 1;
place = (720,-20);
target = down;
type = TopGhost;
},
{
place = (45,195);
type = Stem;
},
{
place = (340,195);
type = Stem;
}
);
layerId = "58D608FC-F2A7-4C81-9CF8-8074D1767F25";
shapes = (
{
closed = 1;
nodes = (
(340,443,l),
(240,443,l),
(240,475,l),
(45,475,l),
(45,0,l),
(240,0,l),
(240,283,l),
(340,283,l),
(340,0,l),
(535,0,l),
(535,475,l),
(340,475,l)
);
},
{
closed = 1;
nodes = (
(240,720,l),
(45,720,l),
(45,658,l),
(240,658,l)
);
},
{
closed = 1;
nodes = (
(535,720,l),
(340,720,l),
(340,658,l),
(535,658,l)
);
},
{
closed = 1;
nodes = (
(565,525,l),
(565,608,l),
(15,608,l),
(15,525,l)
);
}
);
width = 580;
}
);
note = Hbar;
unicode = 294;
},
{
color = 4;
glyphname = I;
kernLeft = H;
lastChange = "2023-04-28 09:53:04 +0000";
layers = (
{
anchors = (
{
name = bottom;
pos = (142,-35);
},
{
name = ogonek;
pos = (135,10);
},
{
name = top.case;
pos = (142,740);
}
);
hints = (
{
horizontal = 1;
place = (0,21);
target = up;
type = BottomGhost;
},
{
horizontal = 1;
place = (720,-20);
target = down;
type = TopGhost;
},
{
place = (45,195);
type = Stem;
}
);
layerId = "58D608FC-F2A7-4C81-9CF8-8074D1767F25";
shapes = (
{
closed = 1;
nodes = (
(45,0,l),
(240,0,l),
(240,720,l),
(45,720,l)
);
}
);
width = 285;
}
);
note = I;
unicode = 73;
},
{
color = 4;
glyphname = J;
kernLeft = J;
kernRight = J;
lastChange = "2023-04-28 09:59:12 +0000";
layers = (
{
anchors = (
{
name = top.case;
pos = (280,740);
}
);
hints = (
{
horizontal = 1;
place = (-10,168);
type = Stem;
},
{
horizontal = 1;
place = (720,-20);
target = down;
type = TopGhost;
},
{
place = (188,195);
type = Stem;
}
);
layerId = "58D608FC-F2A7-4C81-9CF8-8074D1767F25";
shapes = (
{
closed = 1;
nodes = (
(188,281,ls),
(188,183,o),
(176,158,o),
(98,158,cs),
(75,158,o),
(50,163,o),
(29,169,c),
(10,10,l),
(45,-1,o),
(124,-10,o),
(162,-10,cs),
(327,-10,o),
(383,24,o),
(383,215,cs),
(383,720,l),
(133,720,l),
(188,583,l)
);
}
);
width = 423;
}
);
note = J;
unicode = 74;
},
{
color = 4;
glyphname = K;
kernLeft = H;
kernRight = K;
lastChange = "2023-04-28 09:59:12 +0000";
layers = (
{
anchors = (
{
name = bottom;
pos = (280,-35);
},
{
name = top;
pos = (290,740);
}
);
background = {
shapes = (
{
closed = 1;
nodes = (
(220,-63,l),
(266,-82,l),
(611,747,l),
(564,766,l)
);
},
{
closed = 1;
nodes = (
(-33,-63,l),
(13,-82,l),
(358,747,l),
(311,766,l)
);
}
);
};
hints = (
{
horizontal = 1;
place = (0,21);
target = up;
type = BottomGhost;
},
{
horizontal = 1;
place = (720,-20);
target = down;
type = TopGhost;
},
{
place = (45,195);
type = Stem;
}
);
layerId = "58D608FC-F2A7-4C81-9CF8-8074D1767F25";
shapes = (
{
closed = 1;
nodes = (
(340,0,l),
(550,0,l),
(436,324,l),
(322,57,l)
);
},
{
closed = 1;
nodes = (
(240,720,l),
(45,720,l),
(45,130,l),
(240,588,l)
);
},
{
closed = 1;
nodes = (
(547,720,l),
(347,720,l),
(45,0,l),
(244,0,l)
);
}
);
width = 565;
}
);
note = K;
unicode = 75;
},
{
color = 4;
glyphname = L;
kernLeft = H;
kernRight = L;
lastChange = "2023-04-28 09:59:12 +0000";
layers = (
{
anchors = (
{
name = bottom;
pos = (231,-35);
},
{
name = caron;
pos = (342,560);
},
{
name = top.case;
pos = (145,740);
}
);
background = {
shapes = (
{
closed = 1;
nodes = (
(599,170,l),
(599,220,l),
(-111,220,l),
(-111,170,l)
);
}
);
};
hints = (
{
horizontal = 1;
place = (0,170);
type = Stem;
},
{
horizontal = 1;
place = (720,-20);
target = down;
type = TopGhost;
},
{
place = (45,195);
type = Stem;
}
);
layerId = "58D608FC-F2A7-4C81-9CF8-8074D1767F25";
shapes = (
{
closed = 1;
nodes = (
(45,0,l),
(430,0,l),
(461,170,l),
(45,170,l)
);
},
{
closed = 1;
nodes = (
(240,720,l),
(45,720,l),
(45,220,l),
(240,220,l)
);
}
);
width = 466;
}
);
note = L;
unicode = 76;
},
{
color = 4;
glyphname = Ldot;
lastChange = "2023-04-28 09:59:18 +0000";
layers = (
{
background = {
shapes = (
{
closed = 1;
nodes = (
(45,0,l),
(430,0,l),
(461,170,l),
(240,170,l),
(240,720,l),
(45,720,l)
);
},
{
closed = 1;
nodes = (
(359,224,l),
(549,224,l),
(549,414,l),
(359,414,l)
);
}
);
};
hints = (
{
horizontal = 1;
place = (0,170);
type = Stem;
},
{
horizontal = 1;
place = (224,190);
type = Stem;
},
{
horizontal = 1;
place = (720,-20);
target = down;
type = TopGhost;
},
{
place = (45,195);
type = Stem;
},
{
place = (352,204);
type = Stem;
}
);
layerId = "58D608FC-F2A7-4C81-9CF8-8074D1767F25";
shapes = (
{
alignment = -1;
ref = L;
},
{
alignment = -1;
pos = (310,0);
ref = periodcentered;
}
);
width = 573;
}
);
metricLeft = L;
note = Ldot;
unicode = 319;
},
{
color = 4;
glyphname = Lslash;
kernLeft = Dcroat;
kernRight = L;
lastChange = "2023-04-28 09:59:12 +0000";
layers = (
{
background = {
shapes = (
{
closed = 1;
nodes = (
(-321,179,l),
(-303,133,l),
(587,482,l),
(569,529,l)
);
},
{
closed = 1;
nodes = (
(-321,334,l),
(-303,288,l),
(587,637,l),
(569,684,l)
);
}
);
};
hints = (
{
horizontal = 1;
place = (0,170);
type = Stem;
},
{
horizontal = 1;
place = (308,21);
target = up;
type = BottomGhost;
},
{
horizontal = 1;
place = (546,-20);
target = down;
type = TopGhost;
},
{
horizontal = 1;
place = (720,-20);
target = down;
type = TopGhost;
},
{
place = (44,195);
type = Stem;
}
);
layerId = "58D608FC-F2A7-4C81-9CF8-8074D1767F25";
shapes = (
{
closed = 1;
nodes = (
(-18,298,l),
(331,435,l),
(331,537,l),
(-18,401,l)
);
},
{
closed = 1;
nodes = (
(45,0,l),
(430,0,l),
(461,170,l),
(240,170,l),
(240,346,l),
(45,269,l)
);
},
{
closed = 1;
nodes = (
(240,720,l),
(45,720,l),
(45,477,l),
(240,554,l)
);
}
);
width = 466;
}
);
metricRight = L;
note = Lslash;
unicode = 321;
},
{
color = 4;
glyphname = M;
kernLeft = B;
lastChange = "2023-04-28 10:04:14 +0000";
layers = (
{
background = {
shapes = (
{
closed = 1;
nodes = (
(294,79,l),
(337,104,l),
(-17,719,l),
(-60,694,l)
);
},
{
closed = 1;
nodes = (
(704,727,l),
(383,94,l),
(427,71,l),
(749,704,l)
);
}
);
};
guides = (
{
angle = 90;
pos = (323,296);
},
{
angle = 90;
pos = (413,290);
}
);
hints = (
{
horizontal = 1;
place = (0,21);
target = up;
type = BottomGhost;
},
{
horizontal = 1;
place = (720,-20);
target = down;
type = TopGhost;
},
{
place = (55,190);
type = Stem;
},
{
place = (492,180);
type = Stem;
}
);
layerId = "58D608FC-F2A7-4C81-9CF8-8074D1767F25";
shapes = (
{
closed = 1;
nodes = (
(45,0,l),
(235,0,l),
(235,180,l),
(45,516,l)
);
},
{
closed = 1;
nodes = (
(502,0,l),
(692,0,l),
(692,594,l),
(502,216,l)
);
},
{
closed = 1;
nodes = (
(703,720,l),
(508,720,l),
(355,391,l),
(381,391,l),
(228,720,l),
(-20,720,l),
(313,148,l),
(414,148,l)
);
}
);
width = 737;
}
);
note = M;
unicode = 77;
},
{
color = 4;
glyphname = N;
kernLeft = B;
lastChange = "2023-04-28 10:04:14 +0000";
layers = (
{
anchors = (
{
name = bottom;
pos = (342,-35);
},
{
name = top.case;
pos = (339,740);
}
);
background = {
shapes = (
{
closed = 1;
nodes = (
(368,-122,l),
(411,-99,l),
(-6,735,l),
(-50,712,l)
);
},
{
closed = 1;
nodes = (
(655,-122,l),
(698,-99,l),
(281,735,l),
(237,712,l)
);
}
);
};
hints = (
{
horizontal = 1;
place = (0,21);
target = up;
type = BottomGhost;
},
{
horizontal = 1;
place = (720,-20);
target = down;
type = TopGhost;
},
{
place = (61,190);
type = Stem;
},
{
place = (383,190);
type = Stem;
}
);
layerId = "58D608FC-F2A7-4C81-9CF8-8074D1767F25";
shapes = (
{
closed = 1;
nodes = (
(41,0,l),
(231,0,l),
(231,149,l),
(41,533,l)
);
},
{
closed = 1;
nodes = (
(232,720,l),
(0,720,l),
(359,0,l),
(593,0,l)
);
},
{
closed = 1;
nodes = (
(593,720,l),
(403,720,l),
(403,481,l),
(593,112,l)
);
}
);
width = 638;
}
);
note = N;
unicode = 78;
},
{
color = 4;
glyphname = Eng;
kernLeft = B;
lastChange = "2023-04-28 10:04:14 +0000";
layers = (
{
background = {
shapes = (
{
ref = N;
}
);
};
hints = (
{
horizontal = 1;
place = (-162,113);
type = Stem;
},
{
horizontal = 1;
place = (0,21);
target = up;
type = BottomGhost;
},
{
horizontal = 1;
place = (720,-20);
target = down;
type = TopGhost;
},
{
place = (36,170);
type = Stem;
},
{
place = (327,171);
type = Stem;
}
);
layerId = "58D608FC-F2A7-4C81-9CF8-8074D1767F25";
shapes = (
{
closed = 1;
nodes = (
(41,0,l),
(231,0,l),
(231,152,l),
(41,522,l)
);
},
{
closed = 1;
nodes = (
(447,-133,l),
(424,113,l),
(424,54,ls),
(424,-28,o),
(412,-49,o),
(346,-49,cs),
(326,-49,o),
(305,-45,o),
(287,-43,c),
(276,-145,l),
(305,-154,o),
(373,-162,o),
(405,-162,cs),
(546,-162,o),
(593,-133,o),
(593,30,c),
(232,720,l),
(0,720,l)
);
},
{
closed = 1;
nodes = (
(593,720,l),
(403,720,l),
(403,502,l),
(593,140,l)
);
}
);
width = 638;
}
);
metricLeft = N;
metricRight = N;
note = Eng;
unicode = 330;
},
{
color = 4;
glyphname = O;
kernLeft = C;
kernRight = D;
lastChange = "2023-04-28 10:25:31 +0000";
layers = (
{
anchors = (
{
name = bottom;
pos = (293,-35);
},
{
name = horn;
pos = (445,728);
},
{
name = ogonek;
pos = (353,10);
},
{
name = top.case;
pos = (293,740);
}
);
background = {
shapes = (
{
closed = 1;
nodes = (
(268,-60,l),
(318,-60,l),
(318,773,l),
(268,773,l)
);
}
);
};
hints = (
{
horizontal = 1;
place = (-10,155);
type = Stem;
},
{
horizontal = 1;
place = (573,155);
type = Stem;
},
{
place = (20,210);
type = Stem;
},
{
place = (356,210);
type = Stem;
}
);
layerId = "58D608FC-F2A7-4C81-9CF8-8074D1767F25";
shapes = (
{
closed = 1;
nodes = (
(496,-2,o),
(566,90,o),
(566,359,cs),
(566,628,o),
(496,720,o),
(318,727,c),
(318,568,l),
(347,552,o),
(356,499,o),
(356,361,cs),
(356,224,o),
(347,168,o),
(318,151,c),
(318,-9,l)
);
},
{
closed = 1;
nodes = (
(239,167,o),
(230,223,o),
(230,361,cs),
(230,498,o),
(239,552,o),
(268,568,c),
(268,727,l),
(90,720,o),
(20,628,o),
(20,359,cs),
(20,90,o),
(91,-2,o),
(268,-10,c),
(268,151,l)
);
}
);
width = 586;
}
);
note = O;
unicode = 79;
},
{
color = 4;
glyphname = Ohorn;
lastChange = "2023-04-28 10:25:41 +0000";
layers = (
{
anchors = (
{
name = bottom;
pos = (293,-35);
},
{
name = ogonek;
pos = (353,10);
},
{
name = top.case;
pos = (293,740);
}
);
background = {
shapes = (
{
closed = 1;
nodes = (
(509,749,o),
(494,728,o),
(460,728,cs),
(293,728,ls),
(97,728,o),
(20,640,o),
(20,359,cs),
(20,78,o),
(97,-10,o),
(293,-10,cs),
(489,-10,o),
(566,78,o),
(566,359,cs),
(566,467,o),
(555,547,o),
(529,604,c),
(625,592,o),
(661,649,o),
(661,792,cs),
(661,861,l),
(509,861,l),
(509,789,ls)
);
},
{
closed = 1;
nodes = (
(244,145,o),
(230,190,o),
(230,361,cs),
(230,532,o),
(244,573,o),
(293,573,cs),
(342,573,o),
(356,532,o),
(356,361,cs),
(356,190,o),
(342,145,o),
(293,145,cs)
);
}
);
};
hints = (
{
horizontal = 1;
place = (-10,155);
type = Stem;
},
{
horizontal = 1;
place = (573,155);
type = Stem;
},
{
place = (20,210);
type = Stem;
},
{
place = (356,210);
type = Stem;
}
);
layerId = "58D608FC-F2A7-4C81-9CF8-8074D1767F25";
shapes = (
{
closed = 1;
nodes = (
(496,-2,o),
(566,90,o),
(566,359,cs),
(566,489,o),
(550,578,o),
(512,636,c),
(463,612,l),
(614,578,o),
(661,620,o),
(661,792,cs),
(661,861,l),
(509,861,l),
(509,789,ls),
(509,749,o),
(494,728,o),
(460,728,cs),
(318,728,l),
(318,568,l),
(347,552,o),
(356,499,o),
(356,361,cs),
(356,224,o),
(347,168,o),
(318,151,c),
(318,-9,l)
);
},
{
closed = 1;
nodes = (
(268,151,l),
(239,167,o),
(230,223,o),
(230,361,cs),
(230,498,o),
(239,552,o),
(268,568,c),
(268,727,l),
(90,720,o),
(20,628,o),
(20,359,cs),
(20,90,o),
(91,-2,o),
(268,-10,c)
);
}
);
width = 586;
}
);
unicode = 416;
},
{
color = 4;
glyphname = Oslash;
kernLeft = C;
kernRight = D;
lastChange = "2023-04-28 10:25:31 +0000";
layers = (
{
anchors = (
{
name = top.case;
pos = (293,740);
}
);
background = {
shapes = (
{
closed = 1;
nodes = (
(118,146,l),
(29,-5,l),
(103,-48,l),
(193,103,l)
);
},
{
closed = 1;
nodes = (
(459,553,l),
(559,721,l),
(486,765,l),
(386,597,l)
);
},
{
closed = 1;
nodes = (
(202,100,l),
(452,559,l),
(377,600,l),
(125,140,l)
);
},
{
closed = 1;
nodes = (
(350,176,o),
(334,145,o),
(293,145,cs),
(286,145,o),
(279,146,o),
(273,148,c),
(185,2,l),
(216,-6,o),
(252,-10,o),
(293,-10,cs),
(489,-10,o),
(566,78,o),
(566,359,cs),
(566,456,o),
(557,530,o),
(537,586,c),
(355,284,l)
);
},
{
closed = 1;
nodes = (
(367,724,o),
(332,728,o),
(293,728,cs),
(97,728,o),
(20,640,o),
(20,359,cs),
(20,261,o),
(29,187,o),
(50,132,c),
(231,437,l),
(236,545,o),
(252,573,o),
(293,573,cs),
(299,573,o),
(305,572,o),
(311,571,c),
(397,716,l)
);
}
);
};
guides = (
{
angle = 90;
pos = (20,652);
},
{
angle = 90;
pos = (566,618);
}
);
hints = (
{
horizontal = 1;
place = (-10,155);
type = Stem;
},
{
horizontal = 1;
place = (558,-20);
target = down;
type = TopGhost;
},
{
horizontal = 1;
place = (573,155);
type = Stem;
},
{
place = (20,210);
type = Stem;
},
{
place = (356,210);
type = Stem;
},
{
horizontal = 1;
place = (38,21);
target = up;
type = BottomGhost;
}
);
layerId = "58D608FC-F2A7-4C81-9CF8-8074D1767F25";
shapes = (
{
closed = 1;
nodes = (
(103,-48,l),
(559,721,l),
(486,765,l),
(30,-4,l)
);
},
{
closed = 1;
nodes = (
(350,176,o),
(334,145,o),
(293,145,cs),
(286,145,o),
(279,146,o),
(273,148,c),
(185,2,l),
(216,-6,o),
(252,-10,o),
(293,-10,cs),
(489,-10,o),
(566,78,o),
(566,359,cs),
(566,456,o),
(557,530,o),
(537,586,c),
(355,284,l)
);
},
{
closed = 1;
nodes = (
(367,724,o),
(332,728,o),
(293,728,cs),
(97,728,o),
(20,640,o),
(20,359,cs),
(20,261,o),
(29,187,o),
(50,132,c),
(231,437,l),
(236,545,o),
(252,573,o),
(293,573,cs),
(299,573,o),
(305,572,o),
(311,571,c),
(397,716,l)
);
}
);
width = 586;
}
);
metricLeft = O;
metricRight = O;
note = Oslash;
unicode = 216;
},
{
color = 4;
glyphname = OE;
kernLeft = C;
kernRight = E;
lastChange = "2023-04-28 10:25:31 +0000";
layers = (
{
background = {
shapes = (
{
closed = 1;
nodes = (
(306,-120,l),
(356,-120,l),
(356,773,l),
(306,773,l)
);
}
);
};
hints = (
{
horizontal = 1;
place = (-10,369);
type = Stem;
},
{
horizontal = 1;
place = (560,160);
type = Stem;
},
{
place = (230,63);
type = Stem;
},
{
place = (361,195);
type = Stem;
},
{
horizontal = 1;
place = (0,160);
type = Stem;
},
{
horizontal = 1;
place = (290,160);
type = Stem;
},
{
place = (293,63);
type = Stem;
},
{
place = (392,155);
type = Stem;
},
{
horizontal = 1;
place = (361,212);
type = Stem;
}
);
layerId = "58D608FC-F2A7-4C81-9CF8-8074D1767F25";
shapes = (
{
closed = 1;
nodes = (
(297,-10,o),
(302,-10,o),
(306,-10,c),
(306,146,l),
(302,145,o),
(298,145,o),
(293,145,cs),
(244,145,o),
(230,190,o),
(230,361,cs),
(230,532,o),
(244,573,o),
(293,573,cs),
(307,573,o),
(318,570,o),
(327,561,c),
(755,560,l),
(785,720,l),
(379,720,l),
(354,725,o),
(325,728,o),
(293,728,cs),
(97,728,o),
(20,640,o),
(20,359,cs),
(20,78,o),
(97,-10,o),
(293,-10,cs)
);
},
{
closed = 1;
nodes = (
(762,0,l),
(792,160,l),
(547,160,l),
(547,290,l),
(713,290,l),
(743,450,l),
(547,450,l),
(547,510,l),
(356,510,l),
(356,0,l)
);
}
);
width = 807;
}
);
metricLeft = O;
metricRight = E;
note = OE;
unicode = 338;
},
{
color = 4;
glyphname = P;
kernLeft = B;
lastChange = "2023-04-28 10:36:49 +0000";
layers = (
{
background = {
shapes = (
{
closed = 1;
nodes = (
(672,529,l),
(672,579,l),
(-38,579,l),
(-38,529,l)
);
}
);
};
hints = (
{
horizontal = 1;
place = (0,21);
target = up;
type = BottomGhost;
},
{
horizontal = 1;
place = (195,144);
type = Stem;
},
{
horizontal = 1;
place = (577,143);
type = Stem;
},
{
place = (32,205);
type = Stem;
},
{
place = (227,76);
type = Stem;
}
);
layerId = "58D608FC-F2A7-4C81-9CF8-8074D1767F25";
shapes = (
{
closed = 1;
nodes = (
(55,0,l),
(250,0,l),
(250,529,l),
(55,529,l)
);
},
{
closed = 1;
nodes = (
(250,579,ls),
(324,579,o),
(345,559,o),
(345,457,cs),
(345,395,o),
(330,362,o),
(299,347,c),
(299,195,l),
(471,198,o),
(554,275,o),
(554,455,cs),
(554,655,o),
(467,720,o),
(288,720,cs),
(0,720,l),
(55,579,l)
);
}
);
width = 569;
}
);
note = P;
unicode = 80;
},
{
color = 4;
glyphname = Thorn;
kernLeft = H;
lastChange = "2023-04-28 10:36:49 +0000";
layers = (
{
background = {
hints = (
{
horizontal = 1;
place = (-89,21);
target = up;
type = BottomGhost;
},
{
horizontal = 1;
place = (106,144);
type = Stem;
},
{
horizontal = 1;
place = (488,143);
type = Stem;
},
{
place = (22,205);
type = Stem;
},
{
place = (217,76);
type = Stem;
}
);
shapes = (
{
closed = 1;
nodes = (
(621,440,l),
(621,490,l),
(-89,490,l),
(-89,440,l)
);
}
);
};
hints = (
{
horizontal = 1;
place = (0,21);
target = up;
type = BottomGhost;
},
{
horizontal = 1;
place = (195,144);
type = Stem;
},
{
horizontal = 1;
place = (487,145);
type = Stem;
},
{
horizontal = 1;
place = (721,-20);
target = down;
type = TopGhost;
},
{
place = (45,195);
type = Stem;
},
{
place = (321,210);
type = Stem;
},
{
horizontal = 1;
place = (107,146);
type = Stem;
},
{
place = (218,76);
type = Stem;
},
{
horizontal = 1;
place = (577,143);
type = Stem;
}
);
layerId = "58D608FC-F2A7-4C81-9CF8-8074D1767F25";
shapes = (
{
closed = 1;
nodes = (
(462,109,o),
(544,187,o),
(544,367,cs),
(544,567,o),
(458,631,o),
(279,631,cs),
(239,631,l),
(240,720,l),
(45,721,l),
(45,490,l),
(240,490,ls),
(314,490,o),
(335,470,o),
(335,368,cs),
(335,307,o),
(320,274,o),
(291,259,c),
(291,106,l)
);
},
{
closed = 1;
nodes = (
(241,0,l),
(240,440,l),
(45,440,l),
(45,0,l)
);
}
);
width = 559;
}
);
metricLeft = "=H";
metricRight = P;
note = Thorn;
unicode = 222;
},
{
color = 4;
glyphname = Q;
kernLeft = C;
kernRight = D;
lastChange = "2023-04-28 10:36:49 +0000";
layers = (
{
background = {
shapes = (
{
closed = 1;
nodes = (
(648,336,l),
(648,386,l),
(-62,386,l),
(-62,336,l)
);
}
);
};
hints = (
{
horizontal = 1;
place = (-151,21);
target = up;
type = BottomGhost;
},
{
horizontal = 1;
place = (73,-20);
target = down;
type = TopGhost;
},
{
horizontal = 1;
place = (573,155);
type = Stem;
},
{
place = (20,210);
type = Stem;
},
{
place = (356,210);
type = Stem;
},
{
horizontal = 1;
place = (-10,155);
type = Stem;
}
);
layerId = "58D608FC-F2A7-4C81-9CF8-8074D1767F25";
shapes = (
{
closed = 1;
nodes = (
(354,186,o),
(340,145,o),
(293,145,cs),
(246,145,o),
(232,186,o),
(230,336,c),
(20,336,l),
(24,75,o),
(100,-8,o),
(288,-10,c),
(368,-151,l),
(553,-45,l),
(537,-7,o),
(510,22,o),
(480,44,c),
(537,94,o),
(563,187,o),
(566,336,c),
(356,336,l)
);
},
{
closed = 1;
nodes = (
(561,646,o),
(483,728,o),
(293,728,cs),
(103,728,o),
(25,646,o),
(20,386,c),
(230,386,l),
(231,536,o),
(246,573,o),
(293,573,cs),
(340,573,o),
(355,536,o),
(356,386,c),
(566,386,l)
);
}
);
width = 586;
}
);
note = Q;
unicode = 81;
},
{
color = 4;
glyphname = R;
kernLeft = B;
kernRight = R;
lastChange = "2023-04-28 10:36:49 +0000";
layers = (
{
anchors = (
{
name = bottom;
pos = (301,-35);
},
{
name = top.case;
pos = (283,740);
}
);
background = {
shapes = (
{
closed = 0;
nodes = (
(386,0,l),
(261,531,l)
);
}
);
};
hints = (
{
horizontal = 1;
place = (0,21);
target = up;
type = BottomGhost;
},
{
horizontal = 1;
place = (246,80);
type = Stem;
},
{
horizontal = 1;
place = (579,141);
type = Stem;
},
{
place = (55,195);
type = Stem;
},
{
place = (331,200);
type = Stem;
},
{
horizontal = 1;
place = (234,92);
type = Stem;
},
{
horizontal = 1;
place = (246,122);
type = Stem;
}
);
layerId = "58D608FC-F2A7-4C81-9CF8-8074D1767F25";
shapes = (
{
closed = 1;
nodes = (
(378,0,l),
(578,0,l),
(453,531,l),
(407,253,l),
(504,289,o),
(549,355,o),
(549,479,cs),
(549,661,o),
(460,720,o),
(284,720,cs),
(0,720,l),
(55,579,l),
(250,579,ls),
(320,579,o),
(340,563,o),
(340,472,cs),
(340,419,o),
(328,390,o),
(300,377,c),
(300,364,l)
);
},
{
closed = 1;
nodes = (
(250,529,l),
(55,529,l),
(55,0,l),
(250,0,l)
);
}
);
width = 583;
},
{
anchors = (
{
name = bottom;
pos = (301,-35);
},
{
name = top.case;
pos = (283,740);
}
);
associatedMasterId = "58D608FC-F2A7-4C81-9CF8-8074D1767F25";
background = {
shapes = (
{
closed = 1;
nodes = (
(378,0,l),
(578,0,l),
(453,531,l),
(407,253,l),
(504,289,o),
(549,355,o),
(549,479,cs),
(549,661,o),
(460,720,o),
(284,720,cs),
(0,720,l),
(55,579,l),
(250,579,ls),
(320,579,o),
(340,563,o),
(340,472,cs),
(340,419,o),
(328,390,o),
(300,377,c),
(300,364,l)
);
},
{
closed = 1;
nodes = (
(250,529,l),
(55,529,l),
(55,0,l),
(250,0,l)
);
},
{
closed = 0;
nodes = (
(322,221,l),
(477,262,o),
(549,338,o),
(549,479,cs)
);
},
{
closed = 0;
nodes = (
(322,165,l),
(511,215,o),
(598,307,o),
(598,479,cs)
);
}
);
};
hints = (
{
horizontal = 1;
place = (0,21);
target = up;
type = BottomGhost;
},
{
horizontal = 1;
place = (246,80);
type = Stem;
},
{
horizontal = 1;
place = (579,141);
type = Stem;
},
{
place = (55,195);
type = Stem;
},
{
place = (331,200);
type = Stem;
},
{
horizontal = 1;
place = (234,92);
type = Stem;
},
{
horizontal = 1;
place = (246,122);
type = Stem;
}
);
layerId = "F99369AA-DE0B-4356-B3A3-C386B007D110";
name = "Jul 21 20, 14:17";
shapes = (
{
closed = 1;
nodes = (
(378,0,l),
(578,0,l),
(517,259,l),
(477,224,o),
(419,194,o),
(342,171,c)
);
},
{
closed = 1;
nodes = (
(250,529,l),
(55,529,l),
(55,0,l),
(250,0,l)
);
},
{
closed = 1;
nodes = (
(486,272,o),
(549,329,o),
(549,479,cs),
(549,661,o),
(460,720,o),
(284,720,cs),
(0,720,l),
(55,579,l),
(250,579,ls),
(320,579,o),
(340,563,o),
(340,472,cs),
(340,419,o),
(328,390,o),
(300,377,c),
(300,364,l),
(330,222,l)
);
}
);
width = 583;
}
);
note = R;
unicode = 82;
},
{
color = 4;
glyphname = S;
kernLeft = S;
kernRight = S;
lastChange = "2023-04-28 10:51:23 +0000";
layers = (
{
anchors = (
{
name = bottom;
pos = (244,-35);
},
{
name = cedilla;
pos = (247,10);
},
{
name = top.case;
pos = (294,740);
}
);
background = {
shapes = (
{
closed = 1;
nodes = (
(-9,-145,l),
(37,-167,l),
(458,719,l),
(412,741,l)
);
}
);
};
hints = (
{
horizontal = 1;
place = (-10,174);
type = Stem;
},
{
horizontal = 1;
place = (568,160);
type = Stem;
},
{
place = (20,191);
type = Stem;
},
{
place = (277,212);
type = Stem;
}
);
layerId = "58D608FC-F2A7-4C81-9CF8-8074D1767F25";
shapes = (
{
closed = 1;
nodes = (
(260,257,ls),
(290,243,o),
(301,232,o),
(301,210,cs),
(301,176,o),
(275,163,o),
(225,163,cs),
(127,163,o),
(45,179,o),
(45,179,c),
(25,18,l),
(84,3,o),
(161,-10,o),
(249,-10,cs),
(426,-9,o),
(498,74,o),
(498,222,cs),
(498,331,o),
(459,383,o),
(368,423,cs),
(325,442,l),
(242,265,l)
);
},
{
closed = 1;
nodes = (
(248,475,o),
(230,487,o),
(230,508,cs),
(230,546,o),
(255,558,o),
(303,558,cs),
(371,558,o),
(458,547,o),
(458,547,c),
(478,708,l),
(478,708,o),
(388,729,o),
(279,729,cs),
(102,728,o),
(31,656,o),
(31,509,cs),
(31,394,o),
(75,342,o),
(154,306,cs),
(196,287,l),
(278,462,l)
);
}
);
width = 523;
}
);
note = S;
unicode = 83;
},
{
color = 4;
glyphname = Germandbls;
lastChange = "2023-04-28 10:51:14 +0000";
layers = (
{
background = {
shapes = (
{
closed = 1;
nodes = (
(292,348,l),
(292,286,l),
(320,286,ls),
(392,286,o),
(420,263,o),
(420,217,cs),
(420,167,o),
(380,148,o),
(326,148,cs),
(303,148,o),
(276,152,o),
(250,158,c),
(294,200,l),
(275,-41,l),
(246,6,l),
(276,-4,o),
(319,-10,o),
(360,-10,cs),
(501,-10,o),
(622,53,o),
(622,194,cs),
(622,296,o),
(559,382,o),
(360,382,c),
(451,279,l),
(560,504,l),
(507,530,o),
(448,543,o),
(384,544,c)
);
},
{
closed = 1;
nodes = (
(474,594,o),
(551,562,o),
(583,541,c),
(583,750,l),
(693,642,l),
(585,699,o),
(477,728,o),
(362,728,cs),
(181,728,o),
(40,653,o),
(40,499,cs),
(40,0,l),
(235,0,l),
(235,475,ls),
(235,553,o),
(288,594,o),
(385,594,cs)
);
}
);
};
guides = (
{
angle = 90;
pos = (323,664);
},
{
pos = (342,573);
},
{
pos = (134,457);
}
);
layerId = "58D608FC-F2A7-4C81-9CF8-8074D1767F25";
shapes = (
{
closed = 1;
nodes = (
(292,348,l),
(292,286,l),
(320,286,ls),
(392,286,o),
(420,263,o),
(420,217,cs),
(420,167,o),
(380,148,o),
(326,148,cs),
(303,148,o),
(276,152,o),
(250,158,c),
(294,200,l),
(275,-41,l),
(246,6,l),
(276,-4,o),
(319,-10,o),
(360,-10,cs),
(501,-10,o),
(622,53,o),
(622,194,cs),
(622,296,o),
(559,382,o),
(360,382,c),
(451,279,l),
(557,500,l),
(504,526,o),
(445,539,o),
(381,540,c)
);
},
{
closed = 1;
nodes = (
(474,594,o),
(551,562,o),
(583,541,c),
(583,750,l),
(693,642,l),
(585,699,o),
(477,728,o),
(362,728,cs),
(181,728,o),
(40,653,o),
(40,499,cs),
(40,0,l),
(235,0,l),
(235,475,ls),
(235,553,o),
(288,594,o),
(385,594,cs)
);
}
);
width = 637;
},
{
associatedMasterId = "58D608FC-F2A7-4C81-9CF8-8074D1767F25";
background = {
shapes = (
{
closed = 1;
nodes = (
(246,6,l),
(276,-4,o),
(319,-10,o),
(360,-10,cs),
(501,-10,o),
(622,53,o),
(622,194,cs),
(622,296,o),
(559,382,o),
(360,382,c),
(451,329,l),
(583,539,l),
(583,653,l),
(502,703,o),
(406,728,o),
(319,728,cs),
(162,728,o),
(40,651,o),
(40,499,cs),
(40,0,l),
(235,0,l),
(235,498,ls),
(235,553,o),
(271,576,o),
(318,576,cs),
(354,576,o),
(395,563,o),
(431,538,c),
(422,608,l),
(292,398,l),
(292,286,l),
(320,286,ls),
(392,286,o),
(420,263,o),
(420,217,cs),
(420,167,o),
(380,148,o),
(326,148,cs),
(303,148,o),
(276,152,o),
(250,158,c),
(294,200,l),
(275,-41,l)
);
}
);
};
guides = (
{
angle = 90;
pos = (323,664);
},
{
pos = (342,573);
},
{
pos = (134,457);
}
);
layerId = "BA0ECF17-ED2A-4328-95A0-A2B09791462F";
name = "Jul 22 20, 10:33";
shapes = (
{
closed = 1;
nodes = (
(246,6,l),
(276,-4,o),
(319,-10,o),
(360,-10,cs),
(501,-10,o),
(622,53,o),
(622,194,cs),
(622,296,o),
(559,382,o),
(360,382,c),
(451,329,l),
(583,539,l),
(583,669,l),
(502,708,o),
(420,728,o),
(333,728,cs),
(168,728,o),
(40,653,o),
(40,499,cs),
(40,0,l),
(235,0,l),
(235,498,ls),
(235,553,o),
(277,576,o),
(333,576,cs),
(375,576,o),
(424,563,o),
(466,538,c),
(422,608,l),
(292,398,l),
(292,286,l),
(320,286,ls),
(392,286,o),
(420,263,o),
(420,217,cs),
(420,167,o),
(380,148,o),
(326,148,cs),
(303,148,o),
(276,152,o),
(250,158,c),
(294,200,l),
(275,-41,l)
);
}
);
width = 637;
}
);
unicode = 7838;
},
{
color = 4;
glyphname = T;
kernLeft = T;
kernRight = T;
lastChange = "2023-04-28 10:51:46 +0000";
layers = (
{
anchors = (
{
name = bottom;
pos = (246,-35);
},
{
name = cedilla;
pos = (249,10);
},
{
name = top.case;
pos = (260,740);
}
);
hints = (
{
horizontal = 1;
place = (0,21);
target = up;
type = BottomGhost;
},
{
horizontal = 1;
place = (560,160);
type = Stem;
},
{
place = (156,196);
type = Stem;
}
);
layerId = "58D608FC-F2A7-4C81-9CF8-8074D1767F25";
shapes = (
{
closed = 1;
nodes = (
(156,0,l),
(352,0,l),
(352,510,l),
(156,510,l)
);
},
{
closed = 1;
nodes = (
(484,560,l),
(514,720,l),
(10,720,l),
(10,560,l)
);
}
);
width = 519;
}
);
note = T;
unicode = 84;
},
{
color = 4;
glyphname = Tbar;
kernLeft = T;
kernRight = T;
lastChange = "2023-04-28 10:58:58 +0000";
layers = (
{
anchors = (
{
name = bottom;
pos = (246,-35);
},
{
name = cedilla;
pos = (249,10);
},
{
name = top.case;
pos = (260,740);
}
);
background = {
shapes = (
{
closed = 1;
nodes = (
(759,426,l),
(759,476,l),
(49,476,l),
(49,426,l)
);
},
{
closed = 1;
nodes = (
(759,282,l),
(759,332,l),
(49,332,l),
(49,282,l)
);
}
);
};
hints = (
{
horizontal = 1;
place = (0,21);
target = up;
type = BottomGhost;
},
{
horizontal = 1;
place = (338,83);
type = Stem;
},
{
horizontal = 1;
place = (560,160);
type = Stem;
},
{
place = (156,196);
type = Stem;
},
{
horizontal = 1;
place = (0,21);
target = up;
type = BottomGhost;
},
{
horizontal = 1;
place = (560,160);
type = Stem;
},
{
place = (156,196);
type = Stem;
}
);
layerId = "58D608FC-F2A7-4C81-9CF8-8074D1767F25";
shapes = (
{
closed = 1;
nodes = (
(458,331,l),
(458,426,l),
(49,426,l),
(49,331,l)
);
},
{
closed = 1;
nodes = (
(156,0,l),
(352,0,l),
(352,282,l),
(156,282,l)
);
},
{
closed = 1;
nodes = (
(484,560,l),
(514,720,l),
(10,720,l),
(10,560,l)
);
},
{
closed = 1;
nodes = (
(352,627,l),
(156,627,l),
(156,476,l),
(352,476,l)
);
}
);
width = 519;
}
);
metricLeft = T;
metricRight = T;
note = Tbar;
unicode = 358;
},
{
color = 4;
glyphname = U;
kernLeft = U;
kernRight = J;
lastChange = "2023-04-28 11:00:04 +0000";
layers = (
{
anchors = (
{
name = bottom;
pos = (285,-35);
},
{
name = horn;
pos = (482,720);
},
{
name = ogonek;
pos = (346,10);
},
{
name = top.case;
pos = (285,740);
}
);
background = {
shapes = (
{
closed = 1;
nodes = (
(261,-85,l),
(311,-85,l),
(311,773,l),
(261,773,l)
);
}
);
};
hints = (
{
horizontal = 1;
place = (-10,155);
type = Stem;
},
{
horizontal = 1;
place = (720,-20);
target = down;
type = TopGhost;
},
{
place = (40,195);
type = Stem;
},
{
place = (335,195);
type = Stem;
}
);
layerId = "58D608FC-F2A7-4C81-9CF8-8074D1767F25";
shapes = (
{
closed = 1;
nodes = (
(459,-1,o),
(530,79,o),
(530,254,cs),
(530,720,l),
(335,720,l),
(335,245,ls),
(335,194,o),
(328,165,o),
(311,153,c),
(311,-9,l)
);
},
{
closed = 1;
nodes = (
(243,163,o),
(235,193,o),
(235,245,cs),
(235,720,l),
(40,720,l),
(40,254,ls),
(40,78,o),
(111,-2,o),
(261,-9,c),
(261,151,l)
);
}
);
width = 570;
}
);
note = U;
unicode = 85;
},
{
color = 4;
glyphname = V;
kernLeft = V;
kernRight = V;
lastChange = "2023-04-28 11:09:01 +0000";
layers = (
{
background = {
shapes = (
{
closed = 1;
nodes = (
(370,-14,l),
(418,-3,l),
(270,691,l),
(222,680,l)
);
}
);
};
hints = (
{
horizontal = 1;
place = (0,21);
target = up;
type = BottomGhost;
},
{
horizontal = 1;
place = (720,-20);
target = down;
type = TopGhost;
}
);
layerId = "58D608FC-F2A7-4C81-9CF8-8074D1767F25";
shapes = (
{
closed = 1;
nodes = (
(213,720,l),
(5,720,l),
(169,0,l),
(367,0,l)
);
},
{
closed = 1;
nodes = (
(565,720,l),
(368,720,l),
(325,434,l),
(410,37,l)
);
}
);
width = 570;
}
);
note = V;
unicode = 86;
},
{
color = 4;
glyphname = W;
kernLeft = V;
kernRight = V;
lastChange = "2023-04-28 11:09:01 +0000";
layers = (
{
anchors = (
{
name = top.case;
pos = (423,740);
}
);
background = {
shapes = (
{
closed = 1;
nodes = (
(76,-159,l),
(124,-171,l),
(363,778,l),
(314,790,l)
);
},
{
closed = 1;
nodes = (
(485,778,l),
(724,-171,l),
(772,-159,l),
(534,790,l)
);
}
);
};
guides = (
{
angle = 90;
pos = (423,640);
}
);
hints = (
{
horizontal = 1;
place = (0,21);
target = up;
type = BottomGhost;
},
{
horizontal = 1;
place = (720,-20);
target = down;
type = TopGhost;
}
);
layerId = "58D608FC-F2A7-4C81-9CF8-8074D1767F25";
shapes = (
{
closed = 1;
nodes = (
(524,622,l),
(324,622,l),
(167,0,l),
(325,0,l),
(426,428,l),
(424,429,l),
(521,0,l),
(682,0,l)
);
},
{
closed = 1;
nodes = (
(228,720,l),
(20,720,l),
(127,45,l),
(244,515,l)
);
},
{
closed = 1;
nodes = (
(826,720,l),
(618,720,l),
(603,516,l),
(720,48,l)
);
}
);
width = 846;
}
);
note = W;
unicode = 87;
},
{
color = 4;
glyphname = X;
kernRight = K;
lastChange = "2023-04-28 11:09:01 +0000";
layers = (
{
background = {
shapes = (
{
closed = 1;
nodes = (
(548,-7,l),
(593,14,l),
(251,737,l),
(207,717,l)
);
},
{
closed = 1;
nodes = (
(303,-7,l),
(348,14,l),
(6,737,l),
(-38,717,l)
);
}
);
};
hints = (
{
horizontal = 1;
place = (0,21);
target = up;
type = BottomGhost;
},
{
horizontal = 1;
place = (720,-20);
target = down;
type = TopGhost;
}
);
layerId = "58D608FC-F2A7-4C81-9CF8-8074D1767F25";
shapes = (
{
closed = 1;
nodes = (
(9,0,l),
(198,0,l),
(245,122,l),
(142,336,l)
);
},
{
closed = 1;
nodes = (
(555,720,l),
(365,720,l),
(323,587,l),
(428,363,l)
);
},
{
closed = 1;
nodes = (
(355,0,l),
(545,0,l),
(208,720,l),
(14,720,l)
);
}
);
width = 563;
}
);
note = X;
unicode = 88;
},
{
color = 4;
glyphname = Y;
kernLeft = Y;
kernRight = Y;
lastChange = "2023-04-28 11:09:01 +0000";
layers = (
{
anchors = (
{
name = bottom;
pos = (284,-35);
},
{
name = top.case;
pos = (285,740);
}
);
background = {
shapes = (
{
closed = 1;
nodes = (
(485,-105,l),
(532,-90,l),
(252,765,l),
(205,749,l)
);
}
);
};
hints = (
{
horizontal = 1;
place = (0,21);
target = up;
type = BottomGhost;
},
{
horizontal = 1;
place = (220,162);
type = Stem;
},
{
horizontal = 1;
place = (720,-20);
target = down;
type = TopGhost;
},
{
place = (187,195);
type = Stem;
}
);
layerId = "58D608FC-F2A7-4C81-9CF8-8074D1767F25";
shapes = (
{
closed = 1;
nodes = (
(215,720,l),
(5,720,l),
(187,220,l),
(187,0,l),
(382,0,l),
(382,211,l)
);
},
{
closed = 1;
nodes = (
(565,720,l),
(365,720,l),
(320,557,l),
(408,289,l)
);
}
);
width = 570;
}
);
note = Y;
unicode = 89;
},
{
color = 4;
glyphname = Z;
kernLeft = Z;
kernRight = Z;
lastChange = "2023-04-28 11:09:01 +0000";
layers = (
{
anchors = (
{
name = bottom;
pos = (264,-35);
},
{
name = top.case;
pos = (253,740);
}
);
background = {
shapes = (
{
closed = 1;
nodes = (
(-186,-154,l),
(-142,-177,l),
(366,788,l),
(322,812,l)
);
},
{
closed = 1;
nodes = (
(90,-154,l),
(134,-177,l),
(642,788,l),
(598,812,l)
);
}
);
};
hints = (
{
horizontal = 1;
place = (0,160);
type = Stem;
},
{
horizontal = 1;
place = (560,160);
type = Stem;
}
);
layerId = "58D608FC-F2A7-4C81-9CF8-8074D1767F25";
shapes = (
{
closed = 1;
nodes = (
(491,0,l),
(491,160,l),
(312,160,l),
(227,0,l)
);
},
{
closed = 1;
nodes = (
(25,720,l),
(25,560,l),
(189,560,l),
(274,720,l)
);
},
{
closed = 1;
nodes = (
(486,599,l),
(486,720,l),
(329,720,l),
(15,121,l),
(15,0,l),
(171,0,l)
);
}
);
width = 506;
}
);
note = Z;
unicode = 90;
},
{
color = 4;
glyphname = a;
kernLeft = a;
kernRight = a;
lastChange = "2023-04-28 14:12:04 +0000";
layers = (
{
anchors = (
{
name = bottom;
pos = (270,-35);
},
{
name = ogonek;
pos = (357,10);
},
{
name = top;
pos = (258,605);
}
);
background = {
shapes = (
{
closed = 1;
nodes = (
(230,-62,l),
(280,-62,l),
(280,647,l),
(230,647,l)
);
}
);
};
hints = (
{
horizontal = 1;
place = (-10,132);
type = Stem;
},
{
horizontal = 1;
place = (140,24);
type = Stem;
},
{
horizontal = 1;
place = (338,86);
type = Stem;
},
{
place = (195,42);
type = Stem;
},
{
place = (267,25);
type = Stem;
},
{
horizontal = 1;
place = (421,21);
target = up;
type = BottomGhost;
}
);
layerId = "58D608FC-F2A7-4C81-9CF8-8074D1767F25";
shapes = (
{
closed = 1;
nodes = (
(280,86,l),
(304,0,l),
(460,0,l),
(460,421,ls),
(460,550,o),
(366,583,o),
(257,583,cs),
(191,583,o),
(126,569,o),
(66,556,c),
(66,416,l),
(112,433,o),
(158,443,o),
(209,443,cs),
(250,443,o),
(280,432,o),
(280,393,c)
);
},
{
closed = 1;
nodes = (
(210,131,o),
(195,150,o),
(195,181,cs),
(195,206,o),
(209,223,o),
(230,232,c),
(230,338,l),
(106,336,o),
(20,276,o),
(20,164,cs),
(20,53,o),
(94,-10,o),
(174,-10,cs),
(193,-10,o),
(211,-7,o),
(230,1,c),
(230,124,l)
);
}
);
width = 495;
}
);
note = a;
unicode = 97;
},
{
color = 4;
glyphname = aringacute;
kernLeft = a;
kernRight = a;
lastChange = "2023-04-28 11:12:34 +0000";
layers = (
{
background = {
shapes = (
{
closed = 1;
nodes = (
(280,140,l),
(269,128,o),
(256,122,o),
(244,122,cs),
(218,122,o),
(195,143,o),
(195,181,cs),
(195,219,o),
(227,239,o),
(267,239,cs),
(280,239,l)
);
},
{
closed = 1;
nodes = (
(191,583,o),
(126,569,o),
(66,556,c),
(66,416,l),
(112,433,o),
(158,443,o),
(209,443,cs),
(250,443,o),
(280,432,o),
(280,393,cs),
(280,338,l),
(237,338,ls),
(109,338,o),
(20,278,o),
(20,164,cs),
(20,53,o),
(94,-10,o),
(174,-10,cs),
(215,-10,o),
(258,7,o),
(292,43,c),
(304,0,l),
(460,0,l),
(460,421,ls),
(460,550,o),
(366,583,o),
(257,583,cs)
);
},
{
closed = 1;
nodes = (
(398,756,o),
(357,783,o),
(262,783,cs),
(164,783,o),
(123,756,o),
(123,689,cs),
(123,626,o),
(164,599,o),
(262,599,cs),
(357,599,o),
(398,626,o),
(398,689,cs)
);
},
{
closed = 1;
nodes = (
(229,718,o),
(244,726,o),
(262,726,cs),
(276,726,o),
(293,718,o),
(293,690,cs),
(293,664,o),
(276,656,o),
(262,656,cs),
(244,656,o),
(229,664,o),
(229,690,cs)
);
},
{
closed = 1;
nodes = (
(179,793,l),
(330,793,l),
(420,928,l),
(230,928,l)
);
}
);
};
hints = (
{
horizontal = 1;
place = (-10,132);
type = Stem;
},
{
horizontal = 1;
place = (140,24);
type = Stem;
},
{
horizontal = 1;
place = (338,86);
type = Stem;
},
{
horizontal = 1;
place = (599,57);
type = Stem;
},
{
horizontal = 1;
place = (726,57);
type = Stem;
},
{
horizontal = 1;
place = (793,135);
type = Stem;
},
{
place = (195,42);
type = Stem;
},
{
place = (267,25);
type = Stem;
},
{
place = (293,105);
type = Stem;
},
{
horizontal = 1;
place = (421,21);
target = up;
type = BottomGhost;
},
{
place = (123,106);
type = Stem;
}
);
layerId = "58D608FC-F2A7-4C81-9CF8-8074D1767F25";
shapes = (
{
ref = a;
},
{
pos = (258,0);
ref = ringcomb;
},
{
alignment = -1;
pos = (290,123);
ref = acutecomb;
}
);
width = 495;
}
);
note = aringacute;
unicode = 507;
},
{
color = 4;
glyphname = ae;
kernLeft = a;
kernRight = e;
lastChange = "2023-04-28 11:12:34 +0000";
layers = (
{
anchors = (
{
name = top;
pos = (387,605);
}
);
background = {
shapes = (
{
pos = (249,0);
ref = e;
}
);
};
hints = (
{
horizontal = 1;
place = (0,21);
type = Stem;
},
{
horizontal = 1;
place = (140,24);
type = Stem;
},
{
horizontal = 1;
place = (288,295);
type = Stem;
},
{
place = (-337,42);
type = Stem;
},
{
place = (-265,25);
type = Stem;
},
{
place = (0,21);
type = Stem;
},
{
place = (195,42);
type = Stem;
},
{
place = (267,25);
type = Stem;
},
{
place = (499,0);
type = Stem;
},
{
place = (512,0);
type = Stem;
},
{
place = (565,125);
type = Stem;
},
{
horizontal = 1;
place = (232,56);
type = Stem;
},
{
horizontal = 1;
place = (338,86);
type = Stem;
},
{
horizontal = 1;
place = (-10,132);
type = Stem;
},
{
horizontal = 1;
place = (421,21);
target = up;
type = BottomGhost;
},
{
horizontal = 1;
place = (7,336);
type = Stem;
},
{
place = (683,0);
type = Stem;
},
{
horizontal = 1;
place = (232,206);
type = Stem;
}
);
layerId = "58D608FC-F2A7-4C81-9CF8-8074D1767F25";
shapes = (
{
closed = 1;
nodes = (
(683,143,l),
(644,135,o),
(610,130,o),
(581,130,cs),
(475,130,o),
(458,174,o),
(458,292,cs),
(458,361,o),
(464,409,o),
(479,434,c),
(479,582,l),
(444,580,o),
(414,571,o),
(387,557,c),
(351,576,o),
(306,583,o),
(257,583,cs),
(191,583,o),
(126,569,o),
(66,556,c),
(66,416,l),
(112,433,o),
(154,443,o),
(205,443,cs),
(246,443,o),
(280,432,o),
(280,393,cs),
(280,194,ls),
(280,39,o),
(433,-47,o),
(683,7,c)
);
},
{
closed = 1;
nodes = (
(193,-10,o),
(211,-7,o),
(230,1,c),
(230,124,l),
(210,131,o),
(195,150,o),
(195,181,cs),
(195,206,o),
(209,223,o),
(230,232,c),
(230,338,l),
(106,336,o),
(20,276,o),
(20,164,cs),
(20,53,o),
(94,-10,o),
(174,-10,cs)
);
},
{
closed = 1;
nodes = (
(697,232,l),
(703,264,o),
(708,305,o),
(708,343,cs),
(708,451,o),
(680,569,o),
(528,582,c),
(528,436,l),
(540,414,o),
(543,373,o),
(542,343,c),
(508,343,l),
(508,232,l)
);
}
);
width = 723;
}
);
metricLeft = a;
metricRight = e;
note = ae;
unicode = 230;
},
{
color = 4;
glyphname = b;
kernLeft = b;
kernRight = b;
lastChange = "2023-04-28 11:18:11 +0000";
layers = (
{
background = {
shapes = (
{
closed = 1;
nodes = (
(40,34,l),
(96,6,o),
(176,-10,o),
(259,-10,cs),
(428,-10,o),
(518,75,o),
(518,294,cs),
(518,445,o),
(480,583,o),
(334,583,cs),
(311,583,o),
(289,579,o),
(269,571,c),
(269,443,l),
(271,443,o),
(273,443,o),
(275,443,cs),
(319,443,o),
(332,404,o),
(332,299,cs),
(332,186,o),
(322,130,o),
(261,130,cs),
(243,130,o),
(221,135,o),
(40,175,c)
);
},
{
closed = 1;
nodes = (
(433,146,l),
(440,195,l),
(-263,289,l),
(-270,240,l)
);
},
{
closed = 1;
nodes = (
(220,755,l),
(40,729,l),
(40,229,l),
(220,180,l)
);
}
);
};
hints = (
{
horizontal = 1;
place = (0,21);
target = up;
type = BottomGhost;
},
{
horizontal = 1;
place = (443,140);
type = Stem;
},
{
horizontal = 1;
place = (755,-20);
target = down;
type = TopGhost;
},
{
place = (40,180);
type = Stem;
},
{
place = (336,186);
type = Stem;
},
{
horizontal = 1;
place = (-10,139);
type = Stem;
}
);
layerId = "58D608FC-F2A7-4C81-9CF8-8074D1767F25";
shapes = (
{
closed = 1;
nodes = (
(40,3,l),
(96,-10,o),
(146,-10,o),
(229,-10,cs),
(410,-10,o),
(518,74,o),
(518,294,cs),
(518,445,o),
(480,583,o),
(334,583,cs),
(311,583,o),
(289,579,o),
(269,571,c),
(269,443,l),
(271,443,o),
(273,443,o),
(275,443,cs),
(319,443,o),
(332,404,o),
(332,299,cs),
(332,158,o),
(301,135,o),
(219,135,cs),
(40,135,l)
);
},
{
closed = 1;
nodes = (
(220,755,l),
(40,729,l),
(40,180,l),
(220,180,l)
);
}
);
width = 538;
}
);
note = b;
unicode = 98;
},
{
color = 4;
glyphname = c;
kernLeft = c;
kernRight = c;
lastChange = "2023-04-28 11:18:11 +0000";
layers = (
{
anchors = (
{
name = bottom;
pos = (271,-35);
},
{
name = cedilla;
pos = (267,10);
},
{
name = top;
pos = (294,605);
}
);
background = {
shapes = (
{
closed = 1;
nodes = (
(622,264,l),
(622,314,l),
(-88,314,l),
(-88,264,l)
);
}
);
};
hints = (
{
horizontal = 1;
place = (148,295);
type = Stem;
},
{
place = (424,0);
type = Stem;
},
{
horizontal = 1;
place = (-10,575);
type = Stem;
}
);
layerId = "58D608FC-F2A7-4C81-9CF8-8074D1767F25";
shapes = (
{
closed = 1;
nodes = (
(28,49,o),
(135,-10,o),
(273,-10,cs),
(319,-10,o),
(381,-4,o),
(423,8,c),
(423,150,l),
(303,119,o),
(214,119,o),
(207,264,c),
(20,264,l)
);
},
{
closed = 1;
nodes = (
(211,409,o),
(241,442,o),
(296,442,c),
(316,338,l),
(419,338,l),
(419,563,l),
(377,576,o),
(341,583,o),
(295,583,cs),
(158,583,o),
(31,521,o),
(21,315,c),
(207,315,l)
);
}
);
width = 445;
}
);
note = c;
unicode = 99;
},
{
color = 4;
glyphname = d;
kernLeft = c;
kernRight = d;
lastChange = "2023-04-28 11:18:11 +0000";
layers = (
{
anchors = (
{
name = caron;
pos = (601,568);
}
);
background = {
shapes = (
{
closed = 1;
nodes = (
(268,-62,l),
(318,-62,l),
(318,647,l),
(268,647,l)
);
}
);
};
hints = (
{
horizontal = 1;
place = (0,21);
target = up;
type = BottomGhost;
},
{
horizontal = 1;
place = (444,139);
type = Stem;
},
{
horizontal = 1;
place = (755,-20);
target = down;
type = TopGhost;
},
{
place = (16,186);
type = Stem;
},
{
place = (318,180);
type = Stem;
},
{
horizontal = 1;
place = (-10,138);
type = Stem;
}
);
layerId = "58D608FC-F2A7-4C81-9CF8-8074D1767F25";
shapes = (
{
closed = 1;
nodes = (
(318,79,l),
(345,0,l),
(498,0,l),
(498,755,l),
(318,728,l)
);
},
{
closed = 1;
nodes = (
(251,581,o),
(235,583,o),
(220,583,cs),
(90,583,o),
(20,498,o),
(20,279,cs),
(20,128,o),
(58,-10,o),
(204,-10,cs),
(226,-10,o),
(248,-6,o),
(267,1,c),
(267,130,l),
(266,130,o),
(264,130,o),
(263,130,cs),
(219,130,o),
(206,169,o),
(206,274,cs),
(206,381,o),
(215,436,o),
(267,442,c),
(267,578,l)
);
}
);
width = 538;
}
);
note = d;
unicode = 100;
},
{
color = 4;
glyphname = dcroat;
kernLeft = c;
kernRight = d;
lastChange = "2023-04-28 11:18:11 +0000";
layers = (
{
background = {
shapes = (
{
closed = 1;
nodes = (
(238,616,l),
(238,566,l),
(947,566,l),
(947,616,l)
);
}
);
};
guides = (
{
pos = (-40,530);
}
);
hints = (
{
horizontal = 1;
place = (-10,138);
type = Stem;
},
{
horizontal = 1;
place = (444,139);
type = Stem;
},
{
horizontal = 1;
place = (616,75);
type = Stem;
},
{
horizontal = 1;
place = (755,-20);
target = down;
type = TopGhost;
},
{
place = (20,186);
type = Stem;
},
{
place = (322,180);
type = Stem;
},
{
horizontal = 1;
place = (0,21);
target = up;
type = BottomGhost;
}
);
layerId = "58D608FC-F2A7-4C81-9CF8-8074D1767F25";
shapes = (
{
closed = 1;
nodes = (
(226,-10,o),
(248,-6,o),
(267,1,c),
(267,130,l),
(266,130,o),
(264,130,o),
(263,130,cs),
(219,130,o),
(206,162,o),
(206,249,cs),
(206,337,o),
(215,383,o),
(267,388,c),
(267,526,l),
(251,528,o),
(235,530,o),
(220,530,cs),
(90,530,o),
(20,452,o),
(20,253,cs),
(20,116,o),
(58,-10,o),
(204,-10,cs)
);
},
{
closed = 1;
nodes = (
(498,0,l),
(498,566,l),
(318,566,l),
(318,79,l),
(345,0,l)
);
},
{
closed = 1;
nodes = (
(543,616,l),
(543,691,l),
(498,691,l),
(498,755,l),
(318,728,l),
(318,691,l),
(239,691,l),
(239,616,l)
);
}
);
width = 543;
}
);
metricLeft = d;
note = dcroat;
unicode = 273;
},
{
color = 4;
glyphname = eth;
kernLeft = c;
kernRight = b;
lastChange = "2023-04-28 11:18:11 +0000";
layers = (
{
background = {
shapes = (
{
closed = 1;
nodes = (
(-127,277,l),
(-90,243,l),
(382,772,l),
(345,805,l)
);
}
);
};
hints = (
{
horizontal = 1;
place = (-10,141);
type = Stem;
},
{
horizontal = 1;
place = (442,141);
type = Stem;
},
{
horizontal = 1;
place = (763,-20);
target = down;
type = TopGhost;
},
{
place = (20,186);
type = Stem;
},
{
place = (329,185);
type = Stem;
},
{
horizontal = 1;
place = (398,114);
type = Stem;
},
{
place = (20,188);
type = Stem;
}
);
layerId = "58D608FC-F2A7-4C81-9CF8-8074D1767F25";
shapes = (
{
closed = 1;
nodes = (
(250,436,o),
(224,473,o),
(194,501,c),
(85,470,o),
(20,383,o),
(20,259,cs),
(20,83,o),
(84,-5,o),
(242,-10,c),
(242,137,l),
(213,155,o),
(208,206,o),
(208,261,cs),
(208,317,o),
(223,363,o),
(267,386,c)
);
},
{
closed = 1;
nodes = (
(247,557,o),
(329,446,o),
(329,282,cs),
(329,208,o),
(315,159,o),
(292,140,c),
(292,-9,l),
(465,2,o),
(514,100,o),
(514,321,cs),
(514,401,o),
(504,503,o),
(402,610,c),
(467,680,l),
(375,763,l),
(308,690,l),
(273,714,o),
(233,739,o),
(186,763,c),
(93,621,l)
);
}
);
width = 534;
}
);
note = eth;
unicode = 240;
},
{
color = 4;
glyphname = e;
kernLeft = c;
kernRight = e;
lastChange = "2023-04-28 11:18:11 +0000";
layers = (
{
anchors = (
{
name = bottom;
pos = (283,-35);
},
{
name = ogonek;
pos = (332,10);
},
{
name = top;
pos = (250,605);
}
);
background = {
shapes = (
{
closed = 1;
nodes = (
(334,-10,o),
(387,-2,o),
(434,7,c),
(434,143,l),
(403,136,o),
(370,130,o),
(339,130,cs),
(232,130,o),
(209,161,o),
(209,291,cs),
(209,401,o),
(224,451,o),
(257,451,cs),
(305,451,o),
(288,320,o),
(293,301,c),
(373,343,l),
(259,343,l),
(259,232,l),
(450,232,l),
(456,264,o),
(459,305,o),
(459,343,cs),
(459,501,o),
(397,583,o),
(250,583,cs),
(88,583,o),
(20,483,o),
(20,288,cs),
(20,48,o),
(127,-10,o),
(284,-10,cs)
);
},
{
closed = 1;
nodes = (
(231,-62,l),
(281,-62,l),
(281,647,l),
(231,647,l)
);
}
);
};
guides = (
{
angle = 90;
pos = (434,-44);
}
);
hints = (
{
horizontal = 1;
place = (7,336);
type = Stem;
},
{
place = (20,330);
type = Stem;
},
{
horizontal = 1;
place = (232,206);
type = Stem;
},
{
place = (339,0);
type = Stem;
}
);
layerId = "58D608FC-F2A7-4C81-9CF8-8074D1767F25";
shapes = (
{
closed = 1;
nodes = (
(334,-10,o),
(387,-2,o),
(434,7,c),
(434,143,l),
(403,136,o),
(370,130,o),
(339,130,cs),
(232,130,o),
(209,161,o),
(209,291,cs),
(209,366,o),
(216,413,o),
(231,436,c),
(231,583,l),
(83,575,o),
(20,475,o),
(20,288,cs),
(20,48,o),
(127,-10,o),
(284,-10,cs)
);
},
{
closed = 1;
nodes = (
(450,232,l),
(456,264,o),
(459,305,o),
(459,343,cs),
(459,490,o),
(406,571,o),
(280,582,c),
(280,435,l),
(299,399,o),
(289,316,o),
(293,301,c),
(373,343,l),
(259,343,l),
(259,232,l)
);
}
);
width = 474;
}
);
note = e;
unicode = 101;
},
{
color = 4;
glyphname = f;
lastChange = "2023-04-28 11:22:42 +0000";
layers = (
{
background = {
shapes = (
{
closed = 1;
nodes = (
(730,390,l),
(730,440,l),
(20,440,l),
(20,390,l)
);
}
);
};
hints = (
{
horizontal = 1;
place = (0,21);
target = up;
type = BottomGhost;
},
{
horizontal = 1;
place = (440,135);
type = Stem;
},
{
horizontal = 1;
place = (633,130);
type = Stem;
},
{
place = (80,180);
type = Stem;
}
);
layerId = "58D608FC-F2A7-4C81-9CF8-8074D1767F25";
shapes = (
{
closed = 1;
nodes = (
(80,0,l),
(260,0,l),
(260,395,l),
(80,395,l)
);
},
{
closed = 1;
nodes = (
(359,440,l),
(359,575,l),
(260,575,l),
(260,588,ls),
(260,621,o),
(281,634,o),
(320,634,cs),
(332,634,o),
(345,633,o),
(359,631,c),
(359,797,l),
(388,755,l),
(363,760,o),
(339,763,o),
(317,763,cs),
(147,763,o),
(80,724,o),
(80,601,cs),
(80,575,l),
(20,575,l),
(20,440,l)
);
}
);
width = 379;
}
);
note = f;
unicode = 102;
},
{
color = 4;
glyphname = g;
kernLeft = c;
kernRight = g;
lastChange = "2023-04-28 11:22:42 +0000";
layers = (
{
anchors = (
{
name = top;
pos = (302,605);
}
);
background = {
shapes = (
{
closed = 1;
nodes = (
(272,-62,l),
(322,-62,l),
(322,647,l),
(272,647,l)
);
}
);
};
hints = (
{
horizontal = 1;
place = (22,130);
type = Stem;
},
{
horizontal = 1;
place = (452,131);
type = Stem;
},
{
place = (20,187);
type = Stem;
},
{
horizontal = 1;
place = (0,82);
type = Stem;
},
{
place = (108,141);
type = Stem;
}
);
layerId = "58D608FC-F2A7-4C81-9CF8-8074D1767F25";
shapes = (
{
closed = 1;
nodes = (
(322,51,l),
(322,2,o),
(289,-19,o),
(230,-19,cs),
(189,-19,o),
(153,-16,o),
(108,-10,c),
(108,-146,l),
(108,-146,o),
(199,-160,o),
(281,-160,cs),
(422,-160,o),
(502,-83,o),
(502,70,cs),
(502,575,l),
(349,575,l),
(322,494,l)
);
},
{
closed = 1;
nodes = (
(256,580,o),
(239,583,o),
(221,583,cs),
(93,583,o),
(24,505,o),
(24,305,cs),
(24,166,o),
(62,40,o),
(206,40,cs),
(230,40,o),
(252,44,o),
(272,52,c),
(272,170,l),
(270,170,o),
(269,170,o),
(267,170,cs),
(223,170,o),
(210,204,o),
(210,295,cs),
(210,389,o),
(219,438,o),
(272,443,c),
(272,576,l)
);
}
);
width = 542;
}
);
note = g;
unicode = 103;
},
{
color = 4;
glyphname = h;
kernLeft = b;
kernRight = a;
lastChange = "2023-04-28 11:22:52 +0000";
layers = (
{
anchors = (
{
name = top.case;
pos = (131,760);
}
);
hints = (
{
horizontal = 1;
place = (0,21);
target = up;
type = BottomGhost;
},
{
horizontal = 1;
place = (443,0);
type = Stem;
},
{
horizontal = 1;
place = (755,-20);
target = down;
type = TopGhost;
},
{
place = (40,180);
type = Stem;
},
{
place = (259,235);
type = Stem;
}
);
layerId = "58D608FC-F2A7-4C81-9CF8-8074D1767F25";
shapes = (
{
closed = 1;
nodes = (
(220,755,l),
(40,729,l),
(40,0,l),
(220,0,l)
);
},
{
closed = 1;
nodes = (
(300,438,o),
(314,418,o),
(314,382,cs),
(314,0,l),
(494,0,l),
(494,411,ls),
(494,526,o),
(426,583,o),
(334,583,cs),
(313,583,o),
(291,579,o),
(270,572,c),
(270,442,l)
);
}
);
width = 529;
}
);
note = h;
unicode = 104;
},
{
color = 4;
glyphname = hbar;
kernLeft = b;
kernRight = a;
lastChange = "2023-04-28 11:22:52 +0000";
layers = (
{
anchors = (
{
name = top.case;
pos = (131,760);
}
);
background = {
shapes = (
{
closed = 1;
nodes = (
(5,691,l),
(5,616,l),
(309,616,l),
(309,691,l)
);
},
{
closed = 1;
nodes = (
(220,755,l),
(40,729,l),
(40,0,l),
(220,0,l),
(220,402,l),
(231,409,o),
(246,413,o),
(259,413,cs),
(297,413,o),
(314,392,o),
(314,352,cs),
(314,0,l),
(494,0,l),
(494,381,ls),
(494,496,o),
(426,553,o),
(334,553,cs),
(296,553,o),
(255,540,o),
(220,516,c)
);
}
);
};
hints = (
{
horizontal = 1;
place = (0,21);
target = up;
type = BottomGhost;
},
{
horizontal = 1;
place = (443,0);
type = Stem;
},
{
horizontal = 1;
place = (616,75);
type = Stem;
},
{
horizontal = 1;
place = (755,-20);
target = down;
type = TopGhost;
},
{
place = (50,180);
type = Stem;
},
{
place = (269,235);
type = Stem;
},
{
horizontal = 1;
place = (0,21);
target = up;
type = BottomGhost;
},
{
horizontal = 1;
place = (443,0);
type = Stem;
},
{
horizontal = 1;
place = (755,-20);
target = down;
type = TopGhost;
},
{
place = (40,180);
type = Stem;
},
{
place = (259,235);
type = Stem;
}
);
layerId = "58D608FC-F2A7-4C81-9CF8-8074D1767F25";
shapes = (
{
closed = 1;
nodes = (
(494,0,l),
(494,381,ls),
(494,496,o),
(426,553,o),
(334,553,cs),
(313,553,o),
(291,549,o),
(270,542,c),
(270,412,l),
(300,408,o),
(314,388,o),
(314,352,cs),
(314,0,l)
);
},
{
closed = 1;
nodes = (
(220,0,l),
(220,566,l),
(40,566,l),
(40,0,l)
);
},
{
closed = 1;
nodes = (
(309,616,l),
(309,691,l),
(5,691,l),
(5,616,l)
);
},
{
closed = 1;
nodes = (
(220,623,l),
(220,755,l),
(40,729,l),
(40,623,l)
);
}
);
width = 529;
}
);
metricRight = h;
note = hbar;
unicode = 295;
},
{
color = 4;
glyphname = idotless;
lastChange = "2023-04-28 11:22:52 +0000";
layers = (
{
anchors = (
{
name = bottom;
pos = (130,-35);
},
{
name = ogonek;
pos = (116,10);
},
{
name = top;
pos = (130,605);
}
);
layerId = "58D608FC-F2A7-4C81-9CF8-8074D1767F25";
shapes = (
{
closed = 1;
nodes = (
(40,0,l),
(220,0,l),
(220,575,l),
(40,575,l)
);
}
);
width = 260;
}
);
unicode = 305;
},
{
color = 4;
glyphname = jdotless;
lastChange = "2023-04-28 14:12:19 +0000";
layers = (
{
anchors = (
{
name = top;
pos = (130,605);
}
);
layerId = "58D608FC-F2A7-4C81-9CF8-8074D1767F25";
shapes = (
{
closed = 1;
nodes = (
(40,-150,l),
(220,-125,l),
(220,575,l),
(40,575,l)
);
}
);
width = 260;
}
);
unicode = 567;
},
{
color = 4;
glyphname = k;
kernLeft = b;
kernRight = k;
lastChange = "2023-04-28 14:12:19 +0000";
layers = (
{
anchors = (
{
name = bottom;
pos = (265,-35);
}
);
background = {
shapes = (
{
closed = 1;
nodes = (
(-24,4,l),
(21,-18,l),
(332,619,l),
(287,641,l)
);
},
{
closed = 1;
nodes = (
(214,-17,l),
(259,-39,l),
(570,598,l),
(526,620,l)
);
}
);
};
hints = (
{
horizontal = 1;
place = (0,21);
target = up;
type = BottomGhost;
},
{
horizontal = 1;
place = (755,-20);
target = down;
type = TopGhost;
},
{
place = (40,180);
type = Stem;
}
);
layerId = "58D608FC-F2A7-4C81-9CF8-8074D1767F25";
shapes = (
{
closed = 1;
nodes = (
(312,0,l),
(503,0,l),
(403,260,l),
(298,43,l)
);
},
{
closed = 1;
nodes = (
(220,755,l),
(40,731,l),
(40,131,l),
(220,500,l)
);
},
{
closed = 1;
nodes = (
(503,575,l),
(311,575,l),
(30,0,l),
(221,0,l)
);
}
);
width = 511;
}
);
note = k;
unicode = 107;
},
{
color = 4;
glyphname = kgreenlandic;
lastChange = "2023-04-28 14:12:19 +0000";
layers = (
{
anchors = (
{
name = bottom;
pos = (265,-35);
}
);
background = {
shapes = (
{
closed = 1;
nodes = (
(220,575,l),
(40,575,l),
(40,0,l),
(220,0,l),
(220,258,l),
(312,0,l),
(503,0,l),
(390,294,l),
(503,575,l),
(316,575,l),
(220,325,l)
);
}
);
};
hints = (
{
horizontal = 1;
place = (0,21);
target = up;
type = BottomGhost;
},
{
horizontal = 1;
place = (755,-20);
target = down;
type = TopGhost;
},
{
place = (40,180);
type = Stem;
}
);
layerId = "58D608FC-F2A7-4C81-9CF8-8074D1767F25";
shapes = (
{
closed = 1;
nodes = (
(312,0,l),
(503,0,l),
(403,260,l),
(298,43,l)
);
},
{
closed = 1;
nodes = (
(220,575,l),
(40,575,l),
(40,131,l),
(220,500,l)
);
},
{
closed = 1;
nodes = (
(503,575,l),
(311,575,l),
(30,0,l),
(221,0,l)
);
}
);
width = 511;
}
);
unicode = 312;
},
{
color = 4;
glyphname = l;
kernLeft = b;
kernRight = d;
lastChange = "2023-04-28 14:12:19 +0000";
layers = (
{
anchors = (
{
name = bottom;
pos = (130,-35);
},
{
name = caron;
pos = (323,568);
},
{
name = top.case;
pos = (131,760);
}
);
hints = (
{
horizontal = 1;
place = (0,21);
target = up;
type = BottomGhost;
},
{
horizontal = 1;
place = (755,-20);
target = down;
type = TopGhost;
},
{
place = (40,180);
type = Stem;
}
);
layerId = "58D608FC-F2A7-4C81-9CF8-8074D1767F25";
shapes = (
{
closed = 1;
nodes = (
(220,755,l),
(40,731,l),
(40,0,l),
(220,0,l)
);
}
);
width = 260;
}
);
note = l;
unicode = 108;
},
{
color = 4;
glyphname = ldot;
lastChange = "2023-04-28 14:12:19 +0000";
layers = (
{
background = {
shapes = (
{
closed = 1;
nodes = (
(220,755,l),
(40,731,l),
(40,0,l),
(220,0,l)
);
},
{
closed = 1;
nodes = (
(274,224,l),
(464,224,l),
(464,414,l),
(274,414,l)
);
}
);
};
hints = (
{
horizontal = 1;
place = (0,21);
target = up;
type = BottomGhost;
},
{
horizontal = 1;
place = (224,190);
type = Stem;
},
{
horizontal = 1;
place = (755,-20);
target = down;
type = TopGhost;
},
{
place = (40,180);
type = Stem;
},
{
place = (267,204);
type = Stem;
}
);
layerId = "58D608FC-F2A7-4C81-9CF8-8074D1767F25";
shapes = (
{
alignment = -1;
ref = l;
},
{
alignment = -1;
pos = (246,0);
ref = periodcentered;
}
);
width = 546;
}
);
metricLeft = l;
metricRight = periodcentered;
note = ldot;
unicode = 320;
},
{
color = 4;
glyphname = lslash;
kernLeft = b;
kernRight = d;
lastChange = "2023-04-28 14:12:19 +0000";
layers = (
{
anchors = (
{
name = bottom;
pos = (167,-35);
}
);
background = {
shapes = (
{
closed = 1;
nodes = (
(-349,300,l),
(-333,252,l),
(336,487,l),
(319,534,l)
);
},
{
closed = 1;
nodes = (
(-332,159,l),
(-316,111,l),
(353,346,l),
(336,393,l)
);
}
);
};
hints = (
{
horizontal = 1;
place = (0,21);
target = up;
type = BottomGhost;
},
{
horizontal = 1;
place = (286,21);
target = up;
type = BottomGhost;
},
{
horizontal = 1;
place = (488,-20);
target = down;
type = TopGhost;
},
{
horizontal = 1;
place = (755,-20);
target = down;
type = TopGhost;
},
{
place = (65,180);
type = Stem;
},
{
horizontal = 1;
place = (0,21);
target = up;
type = BottomGhost;
},
{
horizontal = 1;
place = (755,-20);
target = down;
type = TopGhost;
},
{
place = (77,180);
type = Stem;
}
);
layerId = "58D608FC-F2A7-4C81-9CF8-8074D1767F25";
shapes = (
{
closed = 1;
nodes = (
(336,393,l),
(336,487,l),
(-3,368,l),
(-3,274,l)
);
},
{
closed = 1;
nodes = (
(77,0,l),
(257,0,l),
(257,312,l),
(77,249,l)
);
},
{
closed = 1;
nodes = (
(257,755,l),
(77,731,l),
(77,449,l),
(257,512,l)
);
}
);
width = 333;
}
);
note = lslash;
unicode = 322;
},
{
color = 4;
glyphname = m;
kernLeft = m;
kernRight = a;
lastChange = "2023-04-28 14:12:19 +0000";
layers = (
{
background = {
shapes = (
{
closed = 1;
nodes = (
(547,434,o),
(556,414,o),
(556,382,cs),
(556,0,l),
(736,0,l),
(736,411,ls),
(736,526,o),
(673,583,o),
(587,583,cs),
(567,583,o),
(547,580,o),
(527,573,c),
(527,441,l)
);
},
{
closed = 1;
nodes = (
(220,494,l),
(193,575,l),
(40,575,l),
(40,0,l),
(220,0,l)
);
},
{
closed = 1;
nodes = (
(468,541,o),
(458,533,o),
(448,523,c),
(421,563,o),
(378,583,o),
(328,583,cs),
(308,583,o),
(289,580,o),
(270,573,c),
(270,440,l),
(289,433,o),
(298,414,o),
(298,382,cs),
(298,0,l),
(478,0,l),
(478,411,ls),
(478,418,o),
(477,426,o),
(477,433,c),
(482,436,o),
(488,439,o),
(495,441,c),
(479,548,l)
);
}
);
};
hints = (
{
horizontal = 1;
place = (0,21);
target = up;
type = BottomGhost;
},
{
horizontal = 1;
place = (443,140);
type = Stem;
},
{
place = (40,180);
type = Stem;
},
{
place = (304,180);
type = Stem;
},
{
place = (565,180);
type = Stem;
}
);
layerId = "58D608FC-F2A7-4C81-9CF8-8074D1767F25";
shapes = (
{
closed = 1;
nodes = (
(547,434,o),
(556,414,o),
(556,382,cs),
(556,0,l),
(736,0,l),
(736,411,ls),
(736,526,o),
(673,583,o),
(587,583,cs),
(567,583,o),
(547,580,o),
(527,573,c),
(527,441,l)
);
},
{
closed = 1;
nodes = (
(220,494,l),
(193,575,l),
(40,575,l),
(40,0,l),
(220,0,l)
);
},
{
closed = 1;
nodes = (
(478,506,o),
(431,583,o),
(328,583,cs),
(308,583,o),
(289,580,o),
(270,573,c),
(270,440,l),
(289,433,o),
(298,414,o),
(298,382,cs),
(298,0,l),
(478,0,l),
(478,406,ls)
);
}
);
width = 771;
}
);
note = m;
unicode = 109;
},
{
color = 4;
glyphname = n;
kernLeft = m;
kernRight = a;
lastChange = "2023-04-28 14:12:19 +0000";
layers = (
{
anchors = (
{
name = bottom;
pos = (270,-35);
},
{
name = top;
pos = (270,605);
}
);
background = {
shapes = (
{
closed = 1;
nodes = (
(220,-62,l),
(270,-62,l),
(270,647,l),
(220,647,l)
);
}
);
};
hints = (
{
horizontal = 1;
place = (0,21);
target = up;
type = BottomGhost;
},
{
horizontal = 1;
place = (536,39);
type = Stem;
},
{
place = (40,219);
type = Stem;
},
{
place = (206,108);
type = Stem;
}
);
layerId = "58D608FC-F2A7-4C81-9CF8-8074D1767F25";
shapes = (
{
closed = 1;
nodes = (
(300,438,o),
(314,418,o),
(314,382,cs),
(314,0,l),
(494,0,l),
(494,411,ls),
(494,526,o),
(426,583,o),
(334,583,cs),
(313,583,o),
(291,579,o),
(270,572,c),
(270,442,l)
);
},
{
closed = 1;
nodes = (
(193,575,l),
(40,575,l),
(40,0,l),
(220,0,l),
(220,498,l)
);
}
);
width = 529;
}
);
note = n;
unicode = 110;
},
{
color = 4;
glyphname = eng;
kernLeft = m;
kernRight = a;
lastChange = "2023-04-28 14:20:14 +0000";
layers = (
{
background = {
shapes = (
{
ref = n;
}
);
};
hints = (
{
horizontal = 1;
place = (-160,76);
type = Stem;
},
{
horizontal = 1;
place = (0,21);
target = up;
type = BottomGhost;
},
{
horizontal = 1;
place = (443,140);
type = Stem;
},
{
place = (40,180);
type = Stem;
},
{
place = (314,180);
type = Stem;
},
{
place = (230,264);
type = Stem;
},
{
horizontal = 1;
place = (536,39);
type = Stem;
},
{
place = (193,121);
type = Stem;
},
{
place = (259,235);
type = Stem;
}
);
layerId = "58D608FC-F2A7-4C81-9CF8-8074D1767F25";
shapes = (
{
closed = 1;
nodes = (
(314,-18,ls),
(314,-67,o),
(277,-84,o),
(230,-84,c),
(230,-158,l),
(244,-159,o),
(259,-160,o),
(273,-160,cs),
(388,-160,o),
(494,-123,o),
(494,16,cs),
(494,411,ls),
(494,526,o),
(426,583,o),
(334,583,cs),
(290,583,o),
(245,567,o),
(206,536,c),
(193,575,l),
(40,575,l),
(40,0,l),
(220,0,l),
(220,432,l),
(231,439,o),
(246,443,o),
(259,443,cs),
(297,443,o),
(314,422,o),
(314,382,cs)
);
}
);
width = 529;
}
);
note = eng;
unicode = 331;
},
{
color = 4;
glyphname = o;
kernLeft = c;
kernRight = b;
lastChange = "2023-04-28 14:20:14 +0000";
layers = (
{
anchors = (
{
name = bottom;
pos = (267,-35);
},
{
name = horn;
pos = (399,583);
},
{
name = ogonek;
pos = (288,10);
},
{
name = top;
pos = (267,605);
}
);
background = {
shapes = (
{
closed = 1;
nodes = (
(242,-62,l),
(292,-62,l),
(292,647,l),
(242,647,l)
);
}
);
};
hints = (
{
horizontal = 1;
place = (287,155);
type = Stem;
},
{
place = (267,61);
type = Stem;
},
{
horizontal = 1;
place = (286,156);
type = Stem;
},
{
place = (206,61);
type = Stem;
}
);
layerId = "58D608FC-F2A7-4C81-9CF8-8074D1767F25";
shapes = (
{
closed = 1;
nodes = (
(452,-1,o),
(514,85,o),
(514,287,cs),
(514,488,o),
(452,575,o),
(292,582,c),
(292,435,l),
(318,419,o),
(328,373,o),
(328,286,cs),
(328,201,o),
(318,155,o),
(292,138,c),
(292,-9,l)
);
},
{
closed = 1;
nodes = (
(216,153,o),
(206,199,o),
(206,286,cs),
(206,374,o),
(216,420,o),
(242,436,c),
(242,582,l),
(82,574,o),
(20,488,o),
(20,287,cs),
(20,85,o),
(82,-1,o),
(242,-9,c),
(242,137,l)
);
}
);
width = 534;
}
);
note = o;
unicode = 111;
},
{
color = 4;
glyphname = ohorn;
lastChange = "2023-04-28 14:20:14 +0000";
layers = (
{
anchors = (
{
name = bottom;
pos = (267,-35);
},
{
name = ogonek;
pos = (288,10);
},
{
name = top;
pos = (267,605);
}
);
hints = (
{
horizontal = 1;
place = (287,155);
type = Stem;
},
{
place = (267,61);
type = Stem;
},
{
horizontal = 1;
place = (286,156);
type = Stem;
},
{
place = (206,61);
type = Stem;
}
);
layerId = "58D608FC-F2A7-4C81-9CF8-8074D1767F25";
shapes = (
{
closed = 1;
nodes = (
(463,604,o),
(448,583,o),
(414,583,cs),
(292,582,l),
(292,435,l),
(318,419,o),
(328,373,o),
(328,286,cs),
(328,201,o),
(318,155,o),
(292,138,c),
(292,-9,l),
(452,-1,o),
(514,85,o),
(514,287,cs),
(514,351,o),
(508,403,o),
(494,445,c),
(582,457,o),
(615,510,o),
(615,647,cs),
(615,716,l),
(463,716,l),
(463,644,ls)
);
},
{
closed = 1;
nodes = (
(20,85,o),
(82,-1,o),
(242,-9,c),
(242,137,l),
(216,153,o),
(206,199,o),
(206,286,cs),
(206,374,o),
(216,420,o),
(242,436,c),
(242,582,l),
(82,574,o),
(20,488,o),
(20,287,cs)
);
}
);
width = 534;
}
);
unicode = 417;
},
{
color = 4;
glyphname = oslash;
kernLeft = c;
kernRight = b;
lastChange = "2023-04-28 14:20:14 +0000";
layers = (
{
anchors = (
{
name = bottom;
pos = (267,-35);
},
{
name = horn;
pos = (399,583);
},
{
name = ogonek;
pos = (288,10);
},
{
name = top;
pos = (267,605);
}
);
background = {
shapes = (
{
closed = 1;
nodes = (
(33,52,l),
(77,27,l),
(425,645,l),
(382,669,l)
);
},
{
closed = 1;
nodes = (
(108,-85,l),
(152,-110,l),
(498,508,l),
(455,532,l)
);
}
);
};
guides = (
{
angle = 90;
pos = (18,94);
},
{
angle = 90;
pos = (514,94);
}
);
hints = (
{
horizontal = 1;
place = (-69,21);
target = up;
type = BottomGhost;
},
{
horizontal = 1;
place = (287,155);
type = Stem;
},
{
horizontal = 1;
place = (643,-20);
target = down;
type = TopGhost;
},
{
place = (267,61);
type = Stem;
},
{
horizontal = 1;
place = (286,156);
type = Stem;
},
{
place = (206,61);
type = Stem;
},
{
horizontal = 1;
place = (287,155);
type = Stem;
},
{
place = (267,61);
type = Stem;
},
{
horizontal = 1;
place = (286,156);
type = Stem;
},
{
place = (206,61);
type = Stem;
}
);
layerId = "58D608FC-F2A7-4C81-9CF8-8074D1767F25";
shapes = (
{
closed = 1;
nodes = (
(496,604,l),
(425,645,l),
(36,-44,l),
(108,-85,l)
);
},
{
closed = 1;
nodes = (
(210,367,l),
(217,412,o),
(230,434,o),
(252,440,c),
(331,579,l),
(311,582,o),
(290,583,o),
(267,583,cs),
(88,583,o),
(20,498,o),
(20,287,cs),
(20,202,o),
(31,137,o),
(55,91,c)
);
},
{
closed = 1;
nodes = (
(446,-10,o),
(514,75,o),
(514,287,cs),
(514,364,o),
(505,429,o),
(481,479,c),
(321,193,l),
(315,163,o),
(305,144,o),
(289,136,c),
(210,-7,l),
(227,-9,o),
(246,-10,o),
(267,-10,cs)
);
}
);
width = 534;
}
);
metricLeft = o;
metricRight = o;
note = oslash;
unicode = 248;
},
{
color = 4;
glyphname = oe;
kernLeft = c;
kernRight = e;
lastChange = "2023-04-28 14:20:14 +0000";
layers = (
{
background = {
shapes = (
{
pos = (287,0);
ref = e;
},
{
ref = o;
}
);
};
hints = (
{
horizontal = 1;
place = (-11,142);
type = Stem;
},
{
horizontal = 1;
place = (232,55);
type = Stem;
},
{
horizontal = 1;
place = (442,141);
type = Stem;
},
{
place = (20,186);
type = Stem;
},
{
place = (324,190);
type = Stem;
},
{
place = (560,0);
type = Stem;
},
{
place = (613,125);
type = Stem;
},
{
horizontal = 1;
place = (-10,141);
type = Stem;
},
{
horizontal = 1;
place = (233,110);
type = Stem;
},
{
place = (20,190);
type = Stem;
},
{
horizontal = 1;
place = (7,336);
type = Stem;
},
{
place = (721,0);
type = Stem;
},
{
horizontal = 1;
place = (232,206);
type = Stem;
},
{
place = (328,168);
type = Stem;
},
{
horizontal = 1;
place = (287,296);
type = Stem;
}
);
layerId = "58D608FC-F2A7-4C81-9CF8-8074D1767F25";
shapes = (
{
closed = 1;
nodes = (
(584,396,o),
(577,312,o),
(579,309,c),
(660,343,l),
(546,343,l),
(546,232,l),
(735,232,l),
(741,264,o),
(746,305,o),
(746,343,cs),
(746,451,o),
(719,568,o),
(567,582,c),
(567,434,l)
);
},
{
closed = 1;
nodes = (
(92,575,o),
(20,501,o),
(20,287,cs),
(20,72,o),
(92,-3,o),
(241,-10,c),
(241,138,l),
(217,153,o),
(206,197,o),
(206,287,cs),
(206,377,o),
(217,420,o),
(241,435,c),
(241,582,l)
);
},
{
closed = 1;
nodes = (
(478,580,o),
(443,568,o),
(413,549,c),
(382,571,o),
(341,580,o),
(291,583,c),
(291,437,l),
(317,423,o),
(328,379,o),
(328,286,cs),
(328,193,o),
(317,150,o),
(291,136,c),
(291,-10,l),
(341,-6,o),
(382,10,o),
(412,39,c),
(456,2,o),
(516,-10,o),
(577,-10,cs),
(626,-10,o),
(676,-2,o),
(721,7,c),
(721,143,l),
(677,135,o),
(640,130,o),
(611,130,cs),
(520,130,o),
(496,167,o),
(496,292,cs),
(496,374,o),
(505,415,o),
(519,435,c),
(519,582,l)
);
}
);
width = 761;
}
);
metricLeft = o;
metricRight = e;
note = oe;
unicode = 339;
},
{
color = 4;
glyphname = p;
kernLeft = m;
kernRight = b;
lastChange = "2023-04-28 14:21:49 +0000";
layers = (
{
background = {
shapes = (
{
angle = 180;
pos = (538,575);
ref = d;
}
);
};
hints = (
{
horizontal = 1;
place = (-150,21);
target = up;
type = BottomGhost;
},
{
horizontal = 1;
place = (-10,139);
type = Stem;
},
{
horizontal = 1;
place = (443,140);
type = Stem;
},
{
place = (41,180);
type = Stem;
},
{
place = (340,183);
type = Stem;
}
);
layerId = "58D608FC-F2A7-4C81-9CF8-8074D1767F25";
shapes = (
{
closed = 1;
nodes = (
(272,443,o),
(273,443,o),
(275,443,cs),
(319,443,o),
(332,404,o),
(332,299,cs),
(332,192,o),
(323,136,o),
(270,130,c),
(270,-5,l),
(287,-8,o),
(303,-10,o),
(318,-10,cs),
(448,-10,o),
(518,75,o),
(518,294,cs),
(518,445,o),
(480,583,o),
(334,583,cs),
(311,583,o),
(290,579,o),
(270,572,c),
(270,443,l)
);
},
{
closed = 1;
nodes = (
(193,575,l),
(40,575,l),
(40,-150,l),
(220,-124,l),
(220,497,l)
);
}
);
width = 538;
}
);
note = p;
unicode = 112;
},
{
color = 4;
glyphname = thorn;
kernLeft = b;
kernRight = b;
lastChange = "2023-04-28 14:21:49 +0000";
layers = (
{
background = {
shapes = (
{
ref = p;
}
);
};
hints = (
{
horizontal = 1;
place = (-150,21);
target = up;
type = BottomGhost;
},
{
horizontal = 1;
place = (-10,140);
type = Stem;
},
{
horizontal = 1;
place = (443,140);
type = Stem;
},
{
horizontal = 1;
place = (755,-20);
target = down;
type = TopGhost;
},
{
place = (40,180);
type = Stem;
},
{
place = (340,183);
type = Stem;
},
{
place = (41,180);
type = Stem;
},
{
place = (332,190);
type = Stem;
}
);
layerId = "58D608FC-F2A7-4C81-9CF8-8074D1767F25";
shapes = (
{
closed = 1;
nodes = (
(40,731,l),
(40,-150,l),
(220,-124,l),
(220,755,l)
);
},
{
closed = 1;
nodes = (
(272,443,o),
(273,443,o),
(275,443,cs),
(319,443,o),
(332,404,o),
(332,299,cs),
(332,192,o),
(323,136,o),
(270,130,c),
(270,-5,l),
(287,-8,o),
(303,-10,o),
(318,-10,cs),
(448,-10,o),
(518,75,o),
(518,294,cs),
(518,445,o),
(480,583,o),
(334,583,cs),
(311,583,o),
(290,579,o),
(270,572,c),
(270,443,l)
);
}
);
width = 538;
}
);
note = thorn;
unicode = 254;
},
{
color = 4;
glyphname = q;
kernLeft = c;
kernRight = g;
lastChange = "2023-04-28 14:21:49 +0000";
layers = (
{
background = {
hints = (
{
horizontal = 1;
place = (571,21);
target = up;
type = BottomGhost;
},
{
horizontal = 1;
place = (128,-140);
type = Stem;
},
{
horizontal = 1;
place = (-184,21);
target = up;
type = BottomGhost;
},
{
place = (498,-180);
type = Stem;
},
{
place = (202,-186);
type = Stem;
},
{
horizontal = 1;
place = (581,-139);
type = Stem;
}
);
shapes = (
{
closed = 1;
nodes = (
(498,568,l),
(442,581,o),
(392,581,o),
(309,581,cs),
(128,581,o),
(20,497,o),
(20,277,cs),
(20,126,o),
(58,-12,o),
(204,-12,cs),
(227,-12,o),
(249,-8,o),
(269,0,c),
(269,128,l),
(267,128,o),
(265,128,o),
(263,128,cs),
(219,128,o),
(206,167,o),
(206,272,cs),
(206,413,o),
(237,436,o),
(319,436,cs),
(498,436,l)
);
},
{
closed = 1;
nodes = (
(318,-184,l),
(498,-158,l),
(498,391,l),
(318,391,l)
);
}
);
};
hints = (
{
horizontal = 1;
place = (-150,21);
target = up;
type = BottomGhost;
},
{
horizontal = 1;
place = (-10,138);
type = Stem;
},
{
horizontal = 1;
place = (444,139);
type = Stem;
},
{
place = (0,186);
type = Stem;
},
{
place = (302,180);
type = Stem;
}
);
layerId = "58D608FC-F2A7-4C81-9CF8-8074D1767F25";
shapes = (
{
closed = 1;
nodes = (
(318,-182,l),
(498,-156,l),
(498,391,l),
(318,391,l)
);
},
{
closed = 1;
nodes = (
(498,568,l),
(442,581,o),
(392,581,o),
(309,581,cs),
(128,581,o),
(20,497,o),
(20,277,cs),
(20,126,o),
(58,-12,o),
(204,-12,cs),
(227,-12,o),
(249,-8,o),
(269,0,c),
(269,128,l),
(267,128,o),
(265,128,o),
(263,128,cs),
(219,128,o),
(206,167,o),
(206,272,cs),
(206,413,o),
(237,436,o),
(319,436,cs),
(498,436,l)
);
}
);
width = 538;
}
);
note = q;
unicode = 113;
},
{
color = 4;
glyphname = r;
kernLeft = m;
kernRight = r;
lastChange = "2023-04-28 14:21:49 +0000";
layers = (
{
anchors = (
{
name = bottom;
pos = (124,-35);
},
{
name = top;
pos = (220,605);
}
);
background = {
shapes = (
{
closed = 1;
nodes = (
(303,407,o),
(340,410,o),
(374,410,c),
(374,580,l),
(331,587,o),
(296,582,o),
(269,566,c),
(269,402,l)
);
},
{
closed = 1;
nodes = (
(220,498,l),
(193,575,l),
(40,575,l),
(40,0,l),
(220,0,l)
);
}
);
};
hints = (
{
horizontal = 1;
place = (0,21);
target = up;
type = BottomGhost;
},
{
place = (40,180);
type = Stem;
}
);
layerId = "58D608FC-F2A7-4C81-9CF8-8074D1767F25";
shapes = (
{
closed = 1;
nodes = (
(296,407,o),
(336,410,o),
(374,410,c),
(374,578,l),
(326,587,o),
(288,580,o),
(258,559,c),
(258,402,l)
);
},
{
closed = 1;
nodes = (
(220,498,l),
(193,575,l),
(40,575,l),
(40,0,l),
(220,0,l)
);
}
);
width = 389;
}
);
note = r;
unicode = 114;
},
{
color = 4;
glyphname = s;
kernLeft = s;
kernRight = s;
lastChange = "2023-04-28 14:25:11 +0000";
layers = (
{
anchors = (
{
name = bottom;
pos = (191,-35);
},
{
name = cedilla;
pos = (192,10);
},
{
name = top;
pos = (235,605);
}
);
background = {
shapes = (
{
closed = 1;
nodes = (
(4,5,l),
(46,-23,l),
(431,573,l),
(389,600,l)
);
}
);
};
hints = (
{
horizontal = 1;
place = (-10,140);
type = Stem;
},
{
horizontal = 1;
place = (443,140);
type = Stem;
},
{
place = (15,182);
type = Stem;
},
{
place = (236,183);
type = Stem;
}
);
layerId = "58D608FC-F2A7-4C81-9CF8-8074D1767F25";
shapes = (
{
closed = 1;
nodes = (
(200,201,ls),
(217,190,o),
(225,181,o),
(225,168,cs),
(225,146,o),
(206,135,o),
(170,135,cs),
(88,135,o),
(35,146,o),
(35,146,c),
(20,10,l),
(67,-2,o),
(123,-10,o),
(191,-10,cs),
(346,-9,o),
(409,50,o),
(409,169,cs),
(409,244,o),
(383,286,o),
(319,327,cs),
(286,348,l),
(194,205,l)
);
},
{
closed = 1;
nodes = (
(231,384,ls),
(214,395,o),
(206,402,o),
(206,415,cs),
(206,437,o),
(226,444,o),
(274,444,cs),
(324,444,o),
(376,435,o),
(376,435,c),
(391,568,l),
(391,568,o),
(318,583,o),
(235,583,cs),
(85,582,o),
(25,528,o),
(25,418,cs),
(25,341,o),
(51,298,o),
(114,257,cs),
(152,232,l),
(243,376,l)
);
}
);
width = 429;
}
);
note = s;
unicode = 115;
},
{
color = 4;
glyphname = germandbls;
kernLeft = b;
kernRight = s;
lastChange = "2023-04-28 14:25:11 +0000";
layers = (
{
background = {
shapes = (
{
closed = 1;
nodes = (
(266,341,o),
(292,298,o),
(355,257,cs),
(441,201,ls),
(458,190,o),
(466,181,o),
(466,168,cs),
(466,146,o),
(447,135,o),
(411,135,cs),
(329,135,o),
(276,146,o),
(276,146,c),
(261,10,l),
(308,-2,o),
(364,-10,o),
(432,-10,cs),
(587,-9,o),
(650,50,o),
(650,169,cs),
(650,244,o),
(624,286,o),
(560,327,cs),
(472,384,ls),
(455,395,o),
(447,402,o),
(447,415,cs),
(447,458,o),
(609,467,o),
(609,593,cs),
(609,706,o),
(525,763,o),
(324,763,cs),
(117,763,o),
(40,696,o),
(40,560,cs),
(40,0,l),
(220,0,l),
(220,546,ls),
(220,609,o),
(246,640,o),
(319,640,cs),
(384,640,o),
(420,627,o),
(420,595,cs),
(420,545,o),
(266,546,o),
(266,418,cs)
);
},
{
closed = 1;
nodes = (
(297,129,l),
(347,129,l),
(347,838,l),
(297,838,l)
);
},
{
pos = (242,0);
ref = s;
}
);
};
hints = (
{
horizontal = 1;
place = (-10,140);
type = Stem;
},
{
horizontal = 1;
place = (443,140);
type = Stem;
},
{
place = (0,21);
type = Stem;
},
{
place = (407,144);
type = Stem;
},
{
place = (859,182);
type = Stem;
},
{
place = (1080,183);
type = Stem;
}
);
layerId = "58D608FC-F2A7-4C81-9CF8-8074D1767F25";
shapes = (
{
closed = 1;
nodes = (
(441,201,ls),
(458,190,o),
(466,181,o),
(466,168,cs),
(466,146,o),
(447,135,o),
(411,135,cs),
(329,135,o),
(276,146,o),
(276,146,c),
(261,10,l),
(308,-2,o),
(364,-10,o),
(432,-10,cs),
(587,-9,o),
(650,50,o),
(650,169,cs),
(650,244,o),
(624,286,o),
(560,327,cs),
(529,347,l),
(435,205,l)
);
},
{
closed = 1;
nodes = (
(111,757,o),
(40,690,o),
(40,560,cs),
(40,0,l),
(220,0,l),
(220,546,ls),
(220,603,o),
(241,633,o),
(298,639,c),
(298,763,l)
);
},
{
closed = 1;
nodes = (
(472,384,ls),
(455,395,o),
(447,404,o),
(447,417,cs),
(447,430,o),
(466,438,o),
(491,449,cs),
(539,469,o),
(609,499,o),
(609,593,cs),
(609,702,o),
(531,759,o),
(346,763,c),
(346,639,l),
(394,636,o),
(420,622,o),
(420,595,cs),
(420,564,o),
(392,551,o),
(359,535,cs),
(316,515,o),
(266,491,o),
(266,418,cs),
(266,341,o),
(292,298,o),
(355,257,cs),
(393,232,l),
(486,375,l)
);
}
);
width = 670;
}
);
metricLeft = l;
note = germandbls;
unicode = 223;
},
{
color = 4;
glyphname = t;
kernLeft = t;
kernRight = t;
lastChange = "2023-04-28 14:25:11 +0000";
layers = (
{
anchors = (
{
name = bottom;
pos = (237,-35);
},
{
name = caron;
pos = (385,598);
},
{
name = cedilla;
pos = (224,10);
}
);
background = {
shapes = (
{
closed = 1;
nodes = (
(720,390,l),
(720,440,l),
(10,440,l),
(10,390,l)
);
}
);
};
guides = (
{
angle = 90;
pos = (85,546);
}
);
hints = (
{
horizontal = 1;
place = (-10,-20);
target = down;
type = TopGhost;
},
{
horizontal = 1;
place = (151,424);
type = Stem;
},
{
horizontal = 1;
place = (575,21);
target = up;
type = BottomGhost;
},
{
place = (260,109);
type = Stem;
}
);
layerId = "58D608FC-F2A7-4C81-9CF8-8074D1767F25";
shapes = (
{
closed = 1;
nodes = (
(85,171,ls),
(85,35,o),
(147,-10,o),
(270,-10,cs),
(331,-10,o),
(393,12,o),
(434,39,c),
(374,-30,l),
(374,191,l),
(390,146,l),
(381,144,o),
(362,137,o),
(326,137,cs),
(283,137,o),
(265,153,o),
(265,191,cs),
(265,399,l),
(85,399,l)
);
},
{
closed = 1;
nodes = (
(374,440,l),
(374,575,l),
(265,575,l),
(265,701,l),
(85,701,l),
(85,575,l),
(10,575,l),
(10,440,l)
);
}
);
width = 394;
}
);
note = t;
unicode = 116;
},
{
color = 4;
glyphname = tbar;
kernLeft = t;
kernRight = t;
lastChange = "2023-04-28 14:25:11 +0000";
layers = (
{
guides = (
{
angle = 90;
pos = (373,404);
}
);
hints = (
{
horizontal = 1;
place = (-10,-20);
target = down;
type = TopGhost;
},
{
horizontal = 1;
place = (151,424);
type = Stem;
},
{
place = (260,109);
type = Stem;
},
{
horizontal = 1;
place = (301,75);
type = Stem;
},
{
horizontal = 1;
place = (575,21);
target = up;
type = BottomGhost;
}
);
layerId = "58D608FC-F2A7-4C81-9CF8-8074D1767F25";
shapes = (
{
closed = 1;
nodes = (
(373,281,l),
(373,376,l),
(10,376,l),
(10,281,l)
);
},
{
ref = t;
}
);
width = 394;
}
);
note = tbar;
unicode = 359;
},
{
color = 4;
glyphname = u;
kernLeft = u;
kernRight = g;
lastChange = "2023-05-02 15:08:07 +0000";
layers = (
{
anchors = (
{
name = bottom;
pos = (261,-30);
},
{
name = horn;
pos = (449,575);
},
{
name = ogonek;
pos = (377,10);
},
{
name = top;
pos = (257,605);
}
);
background = {
shapes = (
{
closed = 1;
nodes = (
(326,0,l),
(479,0,l),
(479,575,l),
(299,575,l),
(299,143,l),
(289,136,o),
(276,132,o),
(264,132,cs),
(230,132,o),
(215,153,o),
(215,193,cs),
(215,575,l),
(35,575,l),
(35,162,ls),
(35,47,o),
(101,-10,o),
(189,-10,cs),
(232,-10,o),
(275,8,o),
(313,39,c)
);
}
);
};
hints = (
{
horizontal = 1;
place = (0,21);
target = up;
type = BottomGhost;
},
{
horizontal = 1;
place = (575,-20);
target = down;
type = TopGhost;
},
{
place = (35,180);
type = Stem;
},
{
place = (299,180);
type = Stem;
},
{
horizontal = 1;
place = (-10,141);
type = Stem;
}
);
layerId = "58D608FC-F2A7-4C81-9CF8-8074D1767F25";
shapes = (
{
closed = 1;
nodes = (
(229,137,o),
(215,157,o),
(215,193,cs),
(215,575,l),
(35,575,l),
(35,164,ls),
(35,49,o),
(103,-8,o),
(195,-8,cs),
(216,-8,o),
(238,-4,o),
(259,3,c),
(259,133,l)
);
},
{
closed = 1;
nodes = (
(326,0,l),
(479,0,l),
(479,575,l),
(299,575,l),
(299,77,l)
);
}
);
width = 519;
}
);
note = u;
unicode = 117;
},
{
color = 4;
glyphname = v;
kernLeft = v;
kernRight = v;
lastChange = "2023-05-02 15:08:11 +0000";
layers = (
{
background = {
shapes = (
{
closed = 1;
nodes = (
(313,-60,l),
(362,-51,l),
(227,645,l),
(178,636,l)
);
}
);
};
hints = (
{
horizontal = 1;
place = (0,21);
target = up;
type = BottomGhost;
},
{
horizontal = 1;
place = (575,-20);
target = down;
type = TopGhost;
}
);
layerId = "58D608FC-F2A7-4C81-9CF8-8074D1767F25";
shapes = (
{
closed = 1;
nodes = (
(190,575,l),
(5,575,l),
(139,0,l),
(302,0,l)
);
},
{
closed = 1;
nodes = (
(350,0,l),
(486,575,l),
(306,575,l),
(275,370,l)
);
}
);
width = 491;
}
);
note = v;
unicode = 118;
},
{
color = 4;
glyphname = w;
kernLeft = v;
kernRight = v;
lastChange = "2023-05-02 15:08:11 +0000";
layers = (
{
anchors = (
{
name = top;
pos = (387,605);
}
);
background = {
shapes = (
{
closed = 1;
nodes = (
(264,645,l),
(128,-50,l),
(176,-60,l),
(312,635,l)
);
},
{
closed = 1;
nodes = (
(607,-60,l),
(655,-50,l),
(519,645,l),
(471,635,l)
);
}
);
};
hints = (
{
horizontal = 1;
place = (0,21);
target = up;
type = BottomGhost;
},
{
horizontal = 1;
place = (575,-20);
target = down;
type = TopGhost;
}
);
layerId = "58D608FC-F2A7-4C81-9CF8-8074D1767F25";
shapes = (
{
closed = 1;
nodes = (
(188,575,l),
(5,575,l),
(135,0,l),
(222,410,l)
);
},
{
closed = 1;
nodes = (
(482,575,l),
(303,575,l),
(188,0,l),
(339,0,l),
(387,274,l),
(438,0,l),
(596,0,l)
);
},
{
closed = 1;
nodes = (
(778,575,l),
(596,575,l),
(571,382,l),
(642,17,l)
);
}
);
width = 783;
}
);
note = w;
unicode = 119;
},
{
color = 4;
glyphname = x;
kernRight = k;
lastChange = "2023-05-02 15:08:11 +0000";
layers = (
{
background = {
shapes = (
{
closed = 1;
nodes = (
(247,399,l),
(231,465,l),
(191,575,l),
(9,575,l),
(122,290,l),
(8,0,l),
(190,0,l),
(244,176,l),
(260,110,l),
(300,0,l),
(482,0,l),
(369,285,l),
(483,575,l),
(301,575,l)
);
}
);
};
hints = (
{
horizontal = 1;
place = (0,21);
target = up;
type = BottomGhost;
},
{
horizontal = 1;
place = (575,-20);
target = down;
type = TopGhost;
}
);
layerId = "58D608FC-F2A7-4C81-9CF8-8074D1767F25";
shapes = (
{
closed = 1;
nodes = (
(8,0,l),
(190,0,l),
(212,68,l),
(111,263,l)
);
},
{
closed = 1;
nodes = (
(483,575,l),
(301,575,l),
(280,505,l),
(379,312,l)
);
},
{
closed = 1;
nodes = (
(300,0,l),
(482,0,l),
(191,575,l),
(9,575,l)
);
}
);
width = 491;
},
{
associatedMasterId = "58D608FC-F2A7-4C81-9CF8-8074D1767F25";
background = {
shapes = (
{
closed = 1;
nodes = (
(247,399,l),
(231,465,l),
(191,575,l),
(9,575,l),
(122,290,l),
(8,0,l),
(190,0,l),
(244,176,l),
(260,110,l),
(300,0,l),
(482,0,l),
(369,285,l),
(483,575,l),
(301,575,l)
);
}
);
};
hints = (
{
horizontal = 1;
place = (0,21);
target = up;
type = BottomGhost;
},
{
horizontal = 1;
place = (575,-20);
target = down;
type = TopGhost;
}
);
layerId = "53DAD440-8DDC-4334-8A95-8E82ACC60A55";
name = "Jul 21 20, 13:02";
shapes = (
{
closed = 1;
nodes = (
(247,399,l),
(231,465,l),
(191,575,l),
(9,575,l),
(122,290,l),
(8,0,l),
(190,0,l),
(244,176,l),
(260,110,l),
(300,0,l),
(482,0,l),
(369,285,l),
(483,575,l),
(301,575,l)
);
}
);
width = 491;
}
);
note = x;
unicode = 120;
},
{
color = 4;
glyphname = y;
kernLeft = v;
kernRight = v;
lastChange = "2023-05-02 15:08:11 +0000";
layers = (
{
anchors = (
{
name = bottom;
pos = (453,-35);
},
{
name = top;
pos = (248,605);
}
);
background = {
shapes = (
{
closed = 1;
nodes = (
(110,-48,l),
(159,-58,l),
(318,633,l),
(269,643,l)
);
}
);
};
hints = (
{
horizontal = 1;
place = (-150,21);
target = up;
type = BottomGhost;
},
{
horizontal = 1;
place = (0,21);
target = up;
type = BottomGhost;
},
{
horizontal = 1;
place = (575,-20);
target = down;
type = TopGhost;
}
);
layerId = "58D608FC-F2A7-4C81-9CF8-8074D1767F25";
shapes = (
{
closed = 1;
nodes = (
(137,-150,l),
(311,-126,l),
(486,575,l),
(306,575,l)
);
},
{
closed = 1;
nodes = (
(190,575,l),
(5,575,l),
(132,32,l),
(216,393,l)
);
}
);
width = 491;
}
);
note = y;
unicode = 121;
},
{
color = 4;
glyphname = z;
kernLeft = z;
kernRight = z;
lastChange = "2023-05-02 15:08:11 +0000";
layers = (
{
anchors = (
{
name = bottom;
pos = (236,-35);
},
{
name = top;
pos = (241,605);
}
);
background = {
shapes = (
{
closed = 1;
nodes = (
(-86,2,l),
(-42,-22,l),
(294,602,l),
(250,626,l)
);
},
{
closed = 1;
nodes = (
(170,2,l),
(214,-22,l),
(550,602,l),
(506,626,l)
);
}
);
};
hints = (
{
horizontal = 1;
place = (0,140);
type = Stem;
},
{
horizontal = 1;
place = (435,140);
type = Stem;
}
);
layerId = "58D608FC-F2A7-4C81-9CF8-8074D1767F25";
shapes = (
{
closed = 1;
nodes = (
(427,0,l),
(427,140,l),
(296,140,l),
(221,0,l)
);
},
{
closed = 1;
nodes = (
(37,575,l),
(37,435,l),
(152,435,l),
(228,575,l)
);
},
{
closed = 1;
nodes = (
(418,469,l),
(418,575,l),
(280,575,l),
(30,110,l),
(30,0,l),
(170,2,l)
);
}
);
width = 457;
}
);
note = z;
unicode = 122;
},
{
color = 4;
glyphname = fi;
kernRight = d;
lastChange = "2023-05-02 15:08:29 +0000";
layers = (
{
background = {
shapes = (
{
closed = 1;
nodes = (
(730,390,l),
(730,440,l),
(20,440,l),
(20,390,l)
);
}
);
};
hints = (
{
horizontal = 1;
place = (0,21);
target = up;
type = BottomGhost;
},
{
horizontal = 1;
place = (440,135);
type = Stem;
},
{
horizontal = 1;
place = (605,181);
type = Stem;
},
{
horizontal = 1;
place = (633,130);
type = Stem;
},
{
place = (65,180);
type = Stem;
},
{
place = (382,180);
type = Stem;
},
{
horizontal = 1;
place = (0,21);
target = up;
type = BottomGhost;
},
{
horizontal = 1;
place = (440,135);
type = Stem;
},
{
horizontal = 1;
place = (633,130);
type = Stem;
},
{
place = (80,180);
type = Stem;
}
);
layerId = "58D608FC-F2A7-4C81-9CF8-8074D1767F25";
shapes = (
{
closed = 1;
nodes = (
(80,0,l),
(260,0,l),
(260,390,l),
(80,390,l)
);
},
{
closed = 1;
nodes = (
(519,440,l),
(519,575,l),
(260,575,l),
(260,588,ls),
(260,621,o),
(281,634,o),
(320,634,cs),
(332,634,o),
(345,633,o),
(359,631,c),
(359,797,l),
(388,755,l),
(363,760,o),
(339,763,o),
(317,763,cs),
(147,763,o),
(80,724,o),
(80,601,cs),
(80,575,l),
(20,575,l),
(20,440,l)
);
},
{
pos = (379,0);
ref = i;
}
);
width = 639;
}
);
note = fi;
unicode = 64257;
},
{
color = 4;
glyphname = fl;
kernRight = d;
lastChange = "2023-05-02 15:08:29 +0000";
layers = (
{
hints = (
{
horizontal = 1;
place = (0,21);
target = up;
type = BottomGhost;
},
{
horizontal = 1;
place = (440,135);
type = Stem;
},
{
horizontal = 1;
place = (633,130);
type = Stem;
},
{
place = (65,180);
type = Stem;
},
{
place = (379,180);
type = Stem;
},
{
horizontal = 1;
place = (755,-20);
target = down;
type = TopGhost;
}
);
layerId = "58D608FC-F2A7-4C81-9CF8-8074D1767F25";
shapes = (
{
closed = 1;
nodes = (
(340,633,o),
(350,632,o),
(359,631,c),
(359,758,l),
(333,761,o),
(307,763,o),
(283,763,cs),
(137,763,o),
(80,724,o),
(80,601,cs),
(80,575,l),
(20,575,l),
(20,440,l),
(442,440,l),
(442,575,l),
(260,575,l),
(260,588,ls),
(260,622,o),
(282,633,o),
(332,633,cs)
);
},
{
closed = 1;
nodes = (
(80,0,l),
(260,0,l),
(260,390,l),
(80,390,l)
);
},
{
pos = (364,0);
ref = l;
}
);
width = 624;
}
);
note = fl;
unicode = 64258;
},
{
color = 4;
glyphname = ordfeminine;
lastChange = "2023-05-02 15:15:06 +0000";
layers = (
{
background = {
shapes = (
{
closed = 1;
nodes = (
(153,-120,l),
(203,-120,l),
(203,589,l),
(153,589,l)
);
}
);
};
hints = (
{
horizontal = 1;
place = (-10,132);
type = Stem;
},
{
horizontal = 1;
place = (140,24);
type = Stem;
},
{
horizontal = 1;
place = (338,86);
type = Stem;
},
{
horizontal = 1;
place = (472,67);
type = Stem;
},
{
horizontal = 1;
place = (598,95);
type = Stem;
},
{
place = (30,114);
type = Stem;
},
{
place = (195,42);
type = Stem;
},
{
place = (267,25);
type = Stem;
},
{
place = (203,121);
type = Stem;
},
{
horizontal = 1;
place = (304,91);
type = Stem;
},
{
horizontal = 1;
place = (421,21);
target = up;
type = BottomGhost;
},
{
place = (60,264);
type = Stem;
}
);
layerId = "58D608FC-F2A7-4C81-9CF8-8074D1767F25";
shapes = (
{
closed = 1;
nodes = (
(203,384,l),
(221,312,l),
(324,312,l),
(324,588,ls),
(324,655,o),
(278,693,o),
(194,693,cs),
(141,693,o),
(60,681,o),
(60,681,c),
(60,585,l),
(60,585,o),
(112,598,o),
(157,598,cs),
(180,598,o),
(203,592,o),
(203,571,c)
);
},
{
closed = 1;
nodes = (
(149,539,ls),
(83,539,o),
(30,491,o),
(30,420,cs),
(30,356,o),
(71,304,o),
(133,304,cs),
(140,304,o),
(146,304,o),
(152,305,c),
(152,405,l),
(147,411,o),
(144,421,o),
(144,435,cs),
(144,444,o),
(147,452,o),
(152,459,c),
(152,539,l)
);
}
);
width = 369;
}
);
note = ordfeminine;
unicode = 170;
},
{
color = 4;
glyphname = ordmasculine;
lastChange = "2023-05-02 15:15:06 +0000";
layers = (
{
background = {
shapes = (
{
closed = 1;
nodes = (
(167,14,l),
(217,14,l),
(217,723,l),
(167,723,l)
);
}
);
};
hints = (
{
horizontal = 1;
place = (302,92);
type = Stem;
},
{
horizontal = 1;
place = (601,94);
type = Stem;
},
{
place = (28,122);
type = Stem;
},
{
place = (231,122);
type = Stem;
},
{
horizontal = 1;
place = (597,96);
type = Stem;
},
{
horizontal = 1;
place = (304,96);
type = Stem;
},
{
place = (225,128);
type = Stem;
}
);
layerId = "58D608FC-F2A7-4C81-9CF8-8074D1767F25";
shapes = (
{
closed = 1;
nodes = (
(314,312,o),
(353,361,o),
(353,498,cs),
(353,635,o),
(314,685,o),
(217,692,c),
(217,575,l),
(223,560,o),
(225,536,o),
(225,499,cs),
(225,460,o),
(222,435,o),
(217,420,c),
(217,305,l)
);
},
{
closed = 1;
nodes = (
(160,430,o),
(157,456,o),
(157,499,cs),
(157,540,o),
(160,565,o),
(167,580,c),
(167,692,l),
(69,686,o),
(29,636,o),
(29,498,cs),
(29,360,o),
(69,311,o),
(167,305,c),
(167,415,l)
);
}
);
width = 383;
}
);
note = ordmasculine;
unicode = 186;
},
{
color = 4;
glyphname = zero;
lastChange = "2023-05-02 15:25:09 +0000";
layers = (
{
background = {
shapes = (
{
closed = 1;
nodes = (
(293,-62,l),
(343,-62,l),
(343,773,l),
(293,773,l)
);
},
{
closed = 1;
nodes = (
(736,339,l),
(736,389,l),
(-100,389,l),
(-100,339,l)
);
}
);
};
guides = (
{
angle = 90;
pos = (317,413);
}
);
hints = (
{
horizontal = 1;
place = (-10,155);
type = Stem;
},
{
horizontal = 1;
place = (573,155);
type = Stem;
},
{
place = (30,209);
type = Stem;
},
{
place = (335,210);
type = Stem;
}
);
layerId = "58D608FC-F2A7-4C81-9CF8-8074D1767F25";
shapes = (
{
closed = 1;
nodes = (
(373,242,o),
(363,182,o),
(343,158,c),
(343,-9,l),
(507,1,o),
(580,112,o),
(585,341,c),
(375,341,l)
);
},
{
closed = 1;
nodes = (
(55,111,o),
(127,0,o),
(293,-9,c),
(293,156,l),
(271,179,o),
(260,240,o),
(259,341,c),
(50,341,l)
);
},
{
closed = 1;
nodes = (
(261,486,o),
(271,542,o),
(292,563,c),
(292,727,l),
(127,718,o),
(55,617,o),
(50,389,c),
(259,389,l)
);
},
{
closed = 1;
nodes = (
(580,615,o),
(508,717,o),
(344,727,c),
(344,560,l),
(364,537,o),
(373,483,o),
(375,389,c),
(585,389,l)
);
}
);
width = 635;
}
);
note = zero;
unicode = 48;
},
{
color = 4;
glyphname = one;
lastChange = "2023-05-02 15:25:09 +0000";
layers = (
{
background = {
shapes = (
{
closed = 1;
nodes = (
(-255,376,l),
(-235,330,l),
(535,652,l),
(516,698,l)
);
}
);
};
hints = (
{
horizontal = 1;
place = (0,21);
target = up;
type = BottomGhost;
},
{
horizontal = 1;
place = (720,-20);
target = down;
type = TopGhost;
},
{
place = (122,196);
type = Stem;
}
);
layerId = "58D608FC-F2A7-4C81-9CF8-8074D1767F25";
shapes = (
{
closed = 1;
nodes = (
(142,0,l),
(338,0,l),
(338,569,l),
(142,489,l)
);
},
{
closed = 1;
nodes = (
(338,720,l),
(181,720,l),
(15,647,l),
(32,497,l),
(338,624,l)
);
}
);
width = 383;
}
);
note = one;
unicode = 49;
},
{
color = 4;
glyphname = two;
lastChange = "2023-05-02 15:25:09 +0000";
layers = (
{
background = {
shapes = (
{
closed = 1;
nodes = (
(-355,210,l),
(-355,159,l),
(482,160,l),
(482,210,l)
);
}
);
};
guides = (
{
angle = 90;
pos = (482,237);
}
);
hints = (
{
horizontal = 1;
place = (0,160);
type = Stem;
},
{
horizontal = 1;
place = (566,162);
type = Stem;
},
{
place = (254,203);
type = Stem;
}
);
layerId = "58D608FC-F2A7-4C81-9CF8-8074D1767F25";
shapes = (
{
closed = 1;
nodes = (
(35,126,l),
(35,0,l),
(482,0,l),
(482,160,l),
(63,160,l)
);
},
{
closed = 1;
nodes = (
(376,301,ls),
(430,372,o),
(469,449,o),
(469,530,cs),
(469,672,o),
(371,728,o),
(236,728,cs),
(159,728,o),
(69,709,o),
(-19,677,c),
(13,772,l),
(65,516,l),
(41,540,l),
(80,555,o),
(129,565,o),
(172,565,cs),
(225,565,o),
(268,548,o),
(268,500,cs),
(268,448,o),
(231,383,o),
(188,327,cs),
(99,211,l),
(307,211,l)
);
}
);
width = 512;
}
);
note = two;
unicode = 50;
},
{
color = 4;
glyphname = three;
lastChange = "2023-05-02 15:25:09 +0000";
layers = (
{
background = {
shapes = (
{
closed = 1;
nodes = (
(242,793,l),
(191,793,l),
(192,-43,l),
(242,-43,l)
);
}
);
};
hints = (
{
horizontal = 1;
place = (-10,296);
type = Stem;
},
{
place = (53,30);
type = Stem;
},
{
place = (153,165);
type = Stem;
},
{
horizontal = 1;
place = (-10,0);
type = Stem;
},
{
horizontal = 1;
place = (178,17);
type = Stem;
}
);
layerId = "58D608FC-F2A7-4C81-9CF8-8074D1767F25";
shapes = (
{
closed = 1;
nodes = (
(268,553,o),
(286,536,o),
(286,506,cs),
(286,455,o),
(257,432,o),
(183,432,cs),
(106,432,l),
(107,286,l),
(180,286,ls),
(256,286,o),
(286,263,o),
(286,217,cs),
(286,181,o),
(264,161,o),
(230,153,c),
(230,-10,l),
(370,-7,o),
(490,57,o),
(490,194,cs),
(490,286,o),
(445,336,o),
(377,362,c),
(377,364,l),
(448,398,o),
(482,455,o),
(482,547,cs),
(480,676,o),
(374,728,o),
(241,728,c),
(241,561,l)
);
},
{
closed = 1;
nodes = (
(120,149,o),
(44,172,o),
(-13,203,c),
(52,258,l),
(15,-56,l),
(-12,40,l),
(48,13,o),
(116,-4,o),
(181,-9,c),
(181,148,l)
);
},
{
closed = 1;
nodes = (
(132,720,o),
(69,706,o),
(11,684,c),
(27,781,l),
(87,468,l),
(22,537,l),
(68,553,o),
(133,568,o),
(188,568,cs),
(189,568,o),
(190,568,o),
(191,568,c),
(191,726,l)
);
}
);
width = 505;
}
);
note = three;
unicode = 51;
},
{
color = 4;
glyphname = four;
lastChange = "2023-05-02 15:25:09 +0000";
layers = (
{
background = {
shapes = (
{
closed = 1;
nodes = (
(108,104,l),
(152,80,l),
(545,817,l),
(500,840,l)
);
},
{
closed = 1;
nodes = (
(-283,133,l),
(-283,83,l),
(552,83,l),
(552,133,l)
);
}
);
};
hints = (
{
horizontal = 1;
place = (0,21);
target = up;
type = BottomGhost;
},
{
horizontal = 1;
place = (132,153);
type = Stem;
},
{
horizontal = 1;
place = (726,-20);
target = down;
type = TopGhost;
},
{
place = (293,188);
type = Stem;
}
);
layerId = "58D608FC-F2A7-4C81-9CF8-8074D1767F25";
shapes = (
{
closed = 1;
nodes = (
(302,0,l),
(490,0,l),
(490,84,l),
(302,84,l)
);
},
{
closed = 1;
nodes = (
(552,133,l),
(581,285,l),
(490,285,l),
(490,712,l),
(302,362,l),
(302,285,l),
(117,285,l),
(165,211,l),
(432,715,l),
(256,726,l),
(20,277,l),
(20,132,l)
);
}
);
width = 582;
}
);
note = four;
unicode = 52;
},
{
color = 4;
glyphname = five;
lastChange = "2023-05-02 15:25:09 +0000";
layers = (
{
background = {
shapes = (
{
closed = 1;
nodes = (
(275,728,l),
(224,728,l),
(225,-108,l),
(275,-108,l)
);
}
);
};
hints = (
{
horizontal = 1;
place = (-10,158);
type = Stem;
},
{
horizontal = 1;
place = (442,278);
type = Stem;
},
{
place = (254,210);
type = Stem;
},
{
place = (214,209);
type = Stem;
}
);
layerId = "58D608FC-F2A7-4C81-9CF8-8074D1767F25";
shapes = (
{
closed = 1;
nodes = (
(257,112,o),
(82,145,o),
(-28,204,c),
(42,257,l),
(1,-56,l),
(-26,40,l),
(21,17,o),
(107,-10,o),
(198,-10,cs),
(387,-10,o),
(473,69,o),
(483,206,c),
(284,206,l)
);
},
{
closed = 1;
nodes = (
(46,310,l),
(138,315,o),
(262,329,o),
(284,258,c),
(483,258,l),
(475,390,o),
(391,446,o),
(271,446,cs),
(227,446,o),
(188,441,o),
(144,432,c),
(224,362,l),
(224,720,l),
(46,720,l)
);
},
{
closed = 1;
nodes = (
(437,540,l),
(472,720,l),
(275,720,l),
(275,541,l)
);
}
);
width = 499;
}
);
note = five;
unicode = 53;
},
{
color = 4;
glyphname = six;
lastChange = "2023-05-02 15:25:09 +0000";
layers = (
{
background = {
shapes = (
{
closed = 1;
nodes = (
(240,500,o),
(261,566,o),
(363,566,cs),
(397,566,o),
(440,558,o),
(495,542,c),
(444,467,l),
(477,761,l),
(503,705,l),
(459,717,o),
(405,727,o),
(350,727,cs),
(106,727,o),
(36,540,o),
(36,330,cs),
(36,93,o),
(130,-9,o),
(288,-9,cs),
(446,-9,o),
(522,83,o),
(522,250,cs),
(522,394,o),
(448,470,o),
(345,470,cs),
(307,470,o),
(264,458,o),
(220,438,c),
(220,316,l),
(243,326,o),
(261,331,o),
(276,331,cs),
(312,331,o),
(327,301,o),
(327,224,cs),
(327,161,o),
(316,122,o),
(291,122,cs),
(252,122,o),
(240,153,o),
(240,338,cs)
);
},
{
closed = 1;
nodes = (
(291,731,l),
(240,731,l),
(241,-105,l),
(291,-105,l)
);
}
);
};
hints = (
{
horizontal = 1;
place = (-9,131);
type = Stem;
},
{
horizontal = 1;
place = (330,139);
type = Stem;
},
{
horizontal = 1;
place = (566,161);
type = Stem;
},
{
place = (35,211);
type = Stem;
},
{
place = (326,195);
type = Stem;
}
);
layerId = "58D608FC-F2A7-4C81-9CF8-8074D1767F25";
shapes = (
{
closed = 1;
nodes = (
(339,331,o),
(358,301,o),
(358,224,cs),
(358,181,o),
(346,149,o),
(328,133,c),
(328,-8,l),
(481,0,o),
(554,91,o),
(554,250,cs),
(554,394,o),
(475,470,o),
(365,470,cs),
(341,470,o),
(316,466,o),
(289,458,c),
(289,331,l)
);
},
{
closed = 1;
nodes = (
(243,136,o),
(239,183,o),
(239,338,cs),
(239,500,o),
(264,566,o),
(385,566,cs),
(426,566,o),
(476,558,o),
(541,542,c),
(471,467,l),
(506,761,l),
(534,705,l),
(487,717,o),
(429,727,o),
(370,727,cs),
(110,727,o),
(35,540,o),
(35,330,cs),
(35,106,o),
(124,3,o),
(277,-8,c),
(277,125,l)
);
}
);
width = 574;
}
);
note = six;
unicode = 54;
},
{
color = 4;
glyphname = seven;
lastChange = "2023-05-02 15:25:09 +0000";
layers = (
{
background = {
shapes = (
{
closed = 1;
nodes = (
(861,490,l),
(861,541,l),
(25,540,l),
(25,490,l)
);
}
);
};
hints = (
{
horizontal = 1;
place = (0,21);
target = up;
type = BottomGhost;
},
{
horizontal = 1;
place = (540,180);
type = Stem;
}
);
layerId = "58D608FC-F2A7-4C81-9CF8-8074D1767F25";
shapes = (
{
closed = 1;
nodes = (
(77,0,l),
(285,0,l),
(446,490,l),
(269,490,l)
);
},
{
closed = 1;
nodes = (
(474,720,l),
(25,720,l),
(25,540,l),
(474,540,l)
);
}
);
width = 489;
}
);
note = seven;
unicode = 55;
},
{
color = 4;
glyphname = eight;
lastChange = "2023-05-02 15:25:09 +0000";
layers = (
{
background = {
shapes = (
{
closed = 1;
nodes = (
(312,751,l),
(261,751,l),
(262,-85,l),
(312,-85,l)
);
}
);
};
hints = (
{
horizontal = 1;
place = (200,7);
type = Stem;
},
{
place = (151,118);
type = Stem;
},
{
place = (274,0);
type = Stem;
},
{
horizontal = 1;
place = (200,182);
type = Stem;
},
{
place = (28,246);
type = Stem;
},
{
horizontal = 1;
place = (207,321);
type = Stem;
}
);
layerId = "58D608FC-F2A7-4C81-9CF8-8074D1767F25";
shapes = (
{
closed = 1;
nodes = (
(473,-1,o),
(550,81,o),
(550,185,cs),
(550,285,o),
(507,348,o),
(418,380,c),
(418,382,l),
(493,406,o),
(529,460,o),
(529,539,cs),
(529,655,o),
(455,720,o),
(310,726,c),
(310,599,l),
(328,589,o),
(336,565,o),
(336,528,cs),
(336,466,o),
(322,441,o),
(285,441,cs),
(248,441,o),
(234,466,o),
(234,528,cs),
(234,565,o),
(242,589,o),
(260,600,c),
(260,726,l),
(115,720,o),
(41,655,o),
(41,539,cs),
(41,460,o),
(77,406,o),
(152,382,c),
(152,380,l),
(63,348,o),
(20,285,o),
(20,185,cs),
(20,80,o),
(98,-2,o),
(261,-9,c),
(261,108,l),
(235,119,o),
(224,152,o),
(224,207,cs),
(224,276,o),
(241,310,o),
(285,310,cs),
(329,310,o),
(346,276,o),
(346,207,cs),
(346,155,o),
(336,123,o),
(313,110,c),
(313,-9,l)
);
}
);
width = 570;
}
);
note = eight;
unicode = 56;
},
{
glyphname = zero.osf;
lastChange = "2023-04-27 14:21:07 +0000";
layers = (
{
hints = (
{
horizontal = 1;
place = (-10,155);
type = Stem;
},
{
horizontal = 1;
place = (573,155);
type = Stem;
},
{
place = (30,209);
type = Stem;
},
{
place = (335,210);
type = Stem;
}
);
layerId = "58D608FC-F2A7-4C81-9CF8-8074D1767F25";
shapes = (
{
closed = 1;
nodes = (
(469,-10,o),
(545,108,o),
(545,364,cs),
(545,620,o),
(469,728,o),
(287,728,cs),
(105,728,o),
(30,620,o),
(30,364,cs),
(30,108,o),
(105,-10,o),
(287,-10,cs)
);
},
{
closed = 1;
nodes = (
(253,145,o),
(239,217,o),
(239,364,cs),
(239,511,o),
(253,573,o),
(287,573,cs),
(321,573,o),
(335,511,o),
(335,364,cs),
(335,217,o),
(321,145,o),
(287,145,cs)
);
}
);
width = 575;
}
);
note = zero;
},
{
glyphname = one.osf;
lastChange = "2023-04-27 14:21:07 +0000";
layers = (
{
hints = (
{
horizontal = 1;
place = (0,21);
target = up;
type = BottomGhost;
},
{
horizontal = 1;
place = (720,-20);
target = down;
type = TopGhost;
},
{
place = (122,196);
type = Stem;
}
);
layerId = "58D608FC-F2A7-4C81-9CF8-8074D1767F25";
shapes = (
{
closed = 1;
nodes = (
(32,497,l),
(122,542,l),
(122,0,l),
(318,0,l),
(318,720,l),
(161,720,l),
(15,647,l)
);
}
);
width = 363;
}
);
note = one;
},
{
glyphname = two.osf;
lastChange = "2023-04-27 14:21:07 +0000";
layers = (
{
background = {
shapes = (
{
closed = 1;
nodes = (
(254,593,o),
(254,500,cs),
(254,448,o),
(219,383,o),
(179,327,cs),
(35,126,l),
(35,0,l),
(467,0,l),
(467,160,l),
(268,160,l),
(370,301,ls),
(421,372,o),
(457,449,o),
(457,530,cs),
(457,666,o),
(375,728,o),
(220,728,cs),
(145,728,o),
(50,713,o),
(-19,667,c),
(13,772,l),
(77,459,l),
(24,526,l),
(104,573,o)
);
}
);
};
hints = (
{
horizontal = 1;
place = (0,160);
type = Stem;
},
{
horizontal = 1;
place = (566,162);
type = Stem;
},
{
place = (254,203);
type = Stem;
}
);
layerId = "58D608FC-F2A7-4C81-9CF8-8074D1767F25";
shapes = (
{
closed = 1;
nodes = (
(118,565,o),
(164,565,cs),
(214,565,o),
(254,548,o),
(254,500,cs),
(254,448,o),
(219,383,o),
(179,327,cs),
(35,126,l),
(35,0,l),
(467,0,l),
(467,160,l),
(268,160,l),
(370,301,ls),
(421,372,o),
(457,449,o),
(457,530,cs),
(457,672,o),
(361,728,o),
(230,728,cs),
(155,728,o),
(67,709,o),
(-19,677,c),
(13,772,l),
(77,459,l),
(24,533,l),
(63,551,o)
);
}
);
width = 497;
}
);
note = two;
},
{
glyphname = three.osf;
lastChange = "2023-04-27 14:21:07 +0000";
layers = (
{
background = {
shapes = (
{
ref = two;
}
);
};
hints = (
{
horizontal = 1;
place = (-10,296);
type = Stem;
},
{
place = (53,30);
type = Stem;
},
{
place = (153,165);
type = Stem;
},
{
horizontal = 1;
place = (-10,0);
type = Stem;
},
{
horizontal = 1;
place = (178,17);
type = Stem;
}
);
layerId = "58D608FC-F2A7-4C81-9CF8-8074D1767F25";
shapes = (
{
closed = 1;
nodes = (
(71,468,l),
(8,537,l),
(51,553,o),
(113,568,o),
(165,568,cs),
(217,568,o),
(258,553,o),
(258,506,cs),
(258,455,o),
(231,432,o),
(161,432,cs),
(89,432,l),
(90,286,l),
(158,286,ls),
(230,286,o),
(258,263,o),
(258,217,cs),
(258,167,o),
(218,148,o),
(164,148,cs),
(105,148,o),
(30,171,o),
(-26,203,c),
(37,258,l),
(1,-56,l),
(-25,40,l),
(45,8,o),
(124,-10,o),
(198,-10,cs),
(339,-10,o),
(460,53,o),
(460,194,cs),
(460,286,o),
(404,336,o),
(320,362,c),
(320,364,l),
(408,398,o),
(451,455,o),
(451,547,cs),
(451,676,o),
(348,728,o),
(220,728,cs),
(149,728,o),
(70,712,o),
(-3,684,c),
(13,781,l)
);
}
);
width = 474;
}
);
note = three;
},
{
glyphname = four.osf;
lastChange = "2023-04-27 14:21:07 +0000";
layers = (
{
hints = (
{
horizontal = 1;
place = (0,21);
target = up;
type = BottomGhost;
},
{
horizontal = 1;
place = (132,153);
type = Stem;
},
{
horizontal = 1;
place = (726,-20);
target = down;
type = TopGhost;
},
{
place = (293,188);
type = Stem;
}
);
layerId = "58D608FC-F2A7-4C81-9CF8-8074D1767F25";
shapes = (
{
closed = 1;
nodes = (
(227,726,l),
(21,277,l),
(21,132,l),
(293,132,l),
(293,0,l),
(481,0,l),
(481,133,l),
(543,133,l),
(572,285,l),
(481,285,l),
(481,712,l)
);
},
{
closed = 1;
nodes = (
(189,285,l),
(293,512,l),
(293,285,l)
);
}
);
width = 573;
}
);
note = four;
},
{
glyphname = five.osf;
lastChange = "2023-04-27 14:21:07 +0000";
layers = (
{
background = {
shapes = (
{
closed = 1;
nodes = (
(76,468,l),
(13,537,l),
(56,553,o),
(118,568,o),
(170,568,cs),
(222,568,o),
(263,553,o),
(263,506,cs),
(263,455,o),
(236,432,o),
(166,432,cs),
(94,432,l),
(95,286,l),
(163,286,ls),
(235,286,o),
(263,263,o),
(263,217,cs),
(263,167,o),
(223,148,o),
(169,148,cs),
(110,148,o),
(35,171,o),
(-21,203,c),
(42,258,l),
(6,-56,l),
(-20,40,l),
(50,8,o),
(129,-10,o),
(203,-10,cs),
(344,-10,o),
(465,53,o),
(465,194,cs),
(465,286,o),
(409,336,o),
(325,362,c),
(325,364,l),
(413,398,o),
(456,455,o),
(456,547,cs),
(456,676,o),
(353,728,o),
(225,728,cs),
(154,728,o),
(75,712,o),
(2,684,c),
(18,781,l)
);
}
);
};
hints = (
{
horizontal = 1;
place = (-10,158);
type = Stem;
},
{
horizontal = 1;
place = (442,278);
type = Stem;
},
{
place = (254,210);
type = Stem;
},
{
place = (214,209);
type = Stem;
}
);
layerId = "58D608FC-F2A7-4C81-9CF8-8074D1767F25";
shapes = (
{
closed = 1;
nodes = (
(268,107,o),
(84,140,o),
(-28,204,c),
(39,257,l),
(0,-56,l),
(-26,40,l),
(19,17,o),
(102,-10,o),
(189,-10,cs),
(384,-10,o),
(464,80,o),
(464,235,cs),
(464,383,o),
(382,446,o),
(260,446,cs),
(217,446,o),
(180,441,o),
(137,432,c),
(214,362,l),
(214,540,l),
(419,540,l),
(453,720,l),
(43,720,l),
(43,310,l),
(137,316,o),
(268,332,o),
(268,233,cs)
);
}
);
width = 479;
}
);
note = five;
},
{
glyphname = six.osf;
lastChange = "2023-04-27 14:21:07 +0000";
layers = (
{
background = {
shapes = (
{
closed = 1;
nodes = (
(239,509,o),
(255,566,o),
(358,566,cs),
(394,566,o),
(427,560,o),
(452,548,c),
(469,707,l),
(427,717,o),
(368,727,o),
(308,727,cs),
(96,727,o),
(35,540,o),
(35,330,cs),
(35,93,o),
(129,-9,o),
(287,-9,cs),
(445,-9,o),
(521,83,o),
(521,250,cs),
(521,405,o),
(452,469,o),
(349,469,cs),
(322,469,o),
(296,464,o),
(272,455,c),
(219,316,l),
(224,317,o),
(282,330,o),
(285,330,cs),
(316,330,o),
(326,282,o),
(326,224,cs),
(326,161,o),
(315,122,o),
(290,122,cs),
(252,122,o),
(239,161,o),
(239,338,cs)
);
}
);
};
hints = (
{
horizontal = 1;
place = (-9,131);
type = Stem;
},
{
horizontal = 1;
place = (330,139);
type = Stem;
},
{
horizontal = 1;
place = (566,161);
type = Stem;
},
{
place = (35,211);
type = Stem;
},
{
place = (326,195);
type = Stem;
}
);
layerId = "58D608FC-F2A7-4C81-9CF8-8074D1767F25";
shapes = (
{
closed = 1;
nodes = (
(239,500,o),
(260,566,o),
(362,566,cs),
(396,566,o),
(439,558,o),
(494,542,c),
(443,467,l),
(476,761,l),
(502,705,l),
(458,717,o),
(404,727,o),
(349,727,cs),
(105,727,o),
(35,540,o),
(35,330,cs),
(35,93,o),
(129,-9,o),
(287,-9,cs),
(445,-9,o),
(521,83,o),
(521,250,cs),
(521,394,o),
(447,470,o),
(344,470,cs),
(306,470,o),
(263,458,o),
(219,438,c),
(219,316,l),
(242,326,o),
(260,331,o),
(275,331,cs),
(311,331,o),
(326,301,o),
(326,224,cs),
(326,161,o),
(315,122,o),
(290,122,cs),
(251,122,o),
(239,153,o),
(239,338,cs)
);
}
);
width = 541;
}
);
note = six;
},
{
glyphname = seven.osf;
lastChange = "2023-04-27 14:21:07 +0000";
layers = (
{
hints = (
{
horizontal = 1;
place = (0,21);
target = up;
type = BottomGhost;
},
{
horizontal = 1;
place = (540,180);
type = Stem;
}
);
layerId = "58D608FC-F2A7-4C81-9CF8-8074D1767F25";
shapes = (
{
closed = 1;
nodes = (
(285,0,l),
(454,578,l),
(454,720,l),
(25,720,l),
(25,540,l),
(268,540,l),
(77,0,l)
);
}
);
width = 469;
}
);
note = seven;
},
{
glyphname = eight.osf;
lastChange = "2023-04-27 14:21:07 +0000";
layers = (
{
background = {
shapes = (
{
closed = 1;
nodes = (
(147,380,l),
(47,344,o),
(20,294,o),
(20,200,cs),
(20,63,o),
(107,-10,o),
(274,-10,cs),
(441,-10,o),
(528,63,o),
(528,200,cs),
(528,294,o),
(501,344,o),
(401,380,c),
(401,382,l),
(473,406,o),
(507,450,o),
(507,549,cs),
(507,677,o),
(429,727,o),
(274,727,cs),
(119,727,o),
(41,677,o),
(41,549,cs),
(41,450,o),
(75,406,o),
(147,382,c)
);
},
{
closed = 1;
nodes = (
(310,310,o),
(324,276,o),
(324,207,cs),
(324,137,o),
(310,104,o),
(274,104,cs),
(238,104,o),
(224,137,o),
(224,207,cs),
(224,276,o),
(238,310,o),
(274,310,cs)
);
},
{
closed = 1;
nodes = (
(305,605,o),
(316,578,o),
(316,528,cs),
(316,466,o),
(305,441,o),
(274,441,cs),
(243,441,o),
(232,466,o),
(232,528,cs),
(232,578,o),
(243,605,o),
(274,605,cs)
);
}
);
};
hints = (
{
horizontal = 1;
place = (200,7);
type = Stem;
},
{
place = (151,118);
type = Stem;
},
{
place = (274,0);
type = Stem;
},
{
horizontal = 1;
place = (200,182);
type = Stem;
},
{
place = (28,246);
type = Stem;
},
{
horizontal = 1;
place = (207,321);
type = Stem;
}
);
layerId = "58D608FC-F2A7-4C81-9CF8-8074D1767F25";
shapes = (
{
closed = 1;
nodes = (
(445,-10,o),
(528,75,o),
(528,185,cs),
(528,285,o),
(486,348,o),
(401,380,c),
(401,382,l),
(473,406,o),
(507,460,o),
(507,539,cs),
(507,661,o),
(429,727,o),
(274,727,cs),
(119,727,o),
(41,661,o),
(41,539,cs),
(41,460,o),
(75,406,o),
(147,382,c),
(147,380,l),
(62,348,o),
(20,285,o),
(20,185,cs),
(20,75,o),
(103,-10,o),
(274,-10,cs)
);
},
{
closed = 1;
nodes = (
(238,104,o),
(224,137,o),
(224,207,cs),
(224,276,o),
(238,310,o),
(274,310,cs),
(310,310,o),
(324,276,o),
(324,207,cs),
(324,137,o),
(310,104,o),
(274,104,cs)
);
},
{
closed = 1;
nodes = (
(243,441,o),
(232,466,o),
(232,528,cs),
(232,578,o),
(243,605,o),
(274,605,cs),
(305,605,o),
(316,578,o),
(316,528,cs),
(316,466,o),
(305,441,o),
(274,441,cs)
);
}
);
width = 548;
}
);
note = eight;
},
{
color = 4;
glyphname = fraction;
lastChange = "2023-05-02 15:28:15 +0000";
layers = (
{
hints = (
{
horizontal = 1;
place = (4,21);
target = up;
type = BottomGhost;
},
{
horizontal = 1;
place = (748,-20);
target = down;
type = TopGhost;
}
);
layerId = "58D608FC-F2A7-4C81-9CF8-8074D1767F25";
shapes = (
{
closed = 1;
nodes = (
(-166,59,l),
(-92,4,l),
(369,693,l),
(295,748,l)
);
}
);
width = 180;
}
);
note = fraction;
unicode = 8260;
},
{
color = 4;
glyphname = onehalf;
lastChange = "2023-05-02 15:28:15 +0000";
layers = (
{
background = {
shapes = (
{
closed = 1;
nodes = (
(33,565,l),
(89,593,l),
(89,332,l),
(210,332,l),
(210,710,l),
(113,710,l),
(22,665,l)
);
},
{
closed = 1;
nodes = (
(570,227,o),
(556,201,o),
(536,175,cs),
(467,83,l),
(467,0,l),
(691,0,l),
(691,95,l),
(599,95,l),
(642,159,ls),
(668,197,o),
(688,239,o),
(688,283,cs),
(688,355,o),
(627,383,o),
(565,383,cs),
(526,383,o),
(484,369,o),
(455,350,c),
(488,269,l),
(501,278,o),
(516,282,o),
(533,282,cs),
(551,282,o),
(570,272,o),
(570,251,cs)
);
},
{
closed = 1;
nodes = (
(94,59,l),
(168,4,l),
(629,693,l),
(555,748,l)
);
}
);
};
hints = (
{
horizontal = 1;
place = (0,95);
type = Stem;
},
{
horizontal = 1;
place = (282,101);
type = Stem;
},
{
horizontal = 1;
place = (710,-20);
target = down;
type = TopGhost;
},
{
horizontal = 1;
place = (748,-20);
target = down;
type = TopGhost;
},
{
place = (89,121);
type = Stem;
},
{
place = (570,118);
type = Stem;
},
{
place = (467,224);
type = Stem;
},
{
horizontal = 1;
place = (4,21);
target = up;
type = BottomGhost;
}
);
layerId = "58D608FC-F2A7-4C81-9CF8-8074D1767F25";
shapes = (
{
ref = onesuperior;
},
{
pos = (280,0);
ref = fraction;
},
{
alignment = -1;
pos = (441,-332);
ref = twosuperior;
}
);
width = 765;
}
);
metricLeft = onesuperior;
note = onehalf;
unicode = 189;
},
{
color = 4;
glyphname = onesuperior;
lastChange = "2023-05-02 15:28:15 +0000";
layers = (
{
background = {
shapes = (
{
closed = 1;
nodes = (
(-480,395,l),
(-466,347,l),
(333,585,l),
(318,633,l)
);
}
);
};
layerId = "58D608FC-F2A7-4C81-9CF8-8074D1767F25";
shapes = (
{
closed = 1;
nodes = (
(94,332,l),
(235,332,l),
(235,556,l),
(94,514,l)
);
},
{
closed = 1;
nodes = (
(235,710,l),
(138,710,l),
(15,665,l),
(28,547,l),
(235,609,l)
);
}
);
width = 280;
}
);
metricLeft = one;
metricRight = one;
unicode = 185;
},
{
color = 4;
glyphname = twosuperior;
lastChange = "2023-05-02 15:28:15 +0000";
layers = (
{
background = {
shapes = (
{
closed = 1;
nodes = (
(-539,477,l),
(-539,427,l),
(294,427,l),
(294,477,l)
);
}
);
};
guides = (
{
pos = (343,332);
}
);
layerId = "58D608FC-F2A7-4C81-9CF8-8074D1767F25";
shapes = (
{
closed = 1;
nodes = (
(29,414,l),
(29,332,l),
(294,332,l),
(294,427,l),
(41,427,l)
);
},
{
closed = 1;
nodes = (
(229,483,ls),
(271,525,o),
(290,571,o),
(290,615,cs),
(290,681,o),
(226,715,o),
(141,715,cs),
(97,715,o),
(60,708,o),
(29,695,c),
(42,606,l),
(53,610,o),
(71,613,o),
(89,613,cs),
(115,613,o),
(143,604,o),
(143,581,cs),
(143,560,o),
(132,537,o),
(82,477,c),
(223,477,l)
);
}
);
width = 324;
}
);
metricLeft = two;
metricRight = two;
unicode = 178;
},
{
color = 4;
glyphname = threesuperior;
lastChange = "2023-05-02 15:28:15 +0000";
layers = (
{
background = {
shapes = (
{
closed = 1;
nodes = (
(61,487,l),
(70,487,ls),
(128,487,o),
(150,482,o),
(150,450,cs),
(150,406,o),
(68,412,o),
(25,426,c),
(10,344,l),
(123,303,o),
(299,320,o),
(299,433,cs),
(299,469,o),
(282,490,o),
(255,506,c),
(61,506,l)
);
},
{
closed = 1;
nodes = (
(286,567,o),
(294,589,o),
(294,618,cs),
(294,716,o),
(121,735,o),
(20,697,c),
(35,614,l),
(64,626,o),
(144,631,o),
(142,594,cs),
(143,568,o),
(122,562,o),
(68,562,cs),
(61,562,l),
(61,551,l),
(270,551,l)
);
}
);
};
layerId = "58D608FC-F2A7-4C81-9CF8-8074D1767F25";
shapes = (
{
closed = 1;
nodes = (
(61,460,l),
(70,460,ls),
(128,460,o),
(150,455,o),
(150,427,cs),
(150,374,o),
(7,409,o),
(-21,418,c),
(40,506,l),
(10,344,l),
(123,303,o),
(299,320,o),
(299,433,cs),
(299,471,o),
(282,494,o),
(255,511,c),
(61,511,l)
);
},
{
closed = 1;
nodes = (
(286,564,o),
(294,587,o),
(294,618,cs),
(294,716,o),
(121,735,o),
(20,697,c),
(49,534,l),
(-8,621,l),
(9,634,o),
(142,662,o),
(142,617,cs),
(142,595,o),
(122,590,o),
(68,590,cs),
(61,590,l),
(61,547,l),
(270,547,l)
);
}
);
width = 313;
}
);
unicode = 179;
},
{
color = 4;
glyphname = foursuperior;
lastChange = "2023-05-02 15:28:15 +0000";
layers = (
{
background = {
shapes = (
{
closed = 1;
nodes = (
(-475,533,l),
(-475,483,l),
(358,483,l),
(358,533,l)
);
}
);
};
guides = (
{
pos = (111,332);
}
);
layerId = "58D608FC-F2A7-4C81-9CF8-8074D1767F25";
shapes = (
{
closed = 1;
nodes = (
(140,483,l),
(145,508,o),
(149,530,o),
(161,557,cs),
(186,613,l),
(181,533,l),
(311,533,l),
(311,692,l),
(133,710,l),
(74,638,o),
(45,555,o),
(21,469,c),
(21,380,l),
(180,380,l),
(180,332,l),
(311,332,l),
(311,380,l),
(343,380,l),
(358,483,l)
);
}
);
width = 363;
}
);
unicode = 8308;
},
{
glyphname = .notdef;
lastChange = "2023-04-27 14:21:07 +0000";
layers = (
{
hints = (
{
horizontal = 1;
place = (-9,59);
type = Stem;
},
{
horizontal = 1;
place = (133,41);
type = Stem;
},
{
horizontal = 1;
place = (400,42);
type = Stem;
},
{
horizontal = 1;
place = (524,59);
type = Stem;
},
{
place = (15,59);
type = Stem;
},
{
place = (157,41);
type = Stem;
},
{
place = (424,42);
type = Stem;
},
{
place = (548,59);
type = Stem;
},
{
place = (90,42);
type = Stem;
},
{
place = (491,41);
type = Stem;
}
);
layerId = "58D608FC-F2A7-4C81-9CF8-8074D1767F25";
shapes = (
{
closed = 1;
nodes = (
(474,-9,o),
(607,124,o),
(607,287,cs),
(607,450,o),
(474,583,o),
(311,583,cs),
(148,583,o),
(15,450,o),
(15,287,cs),
(15,117,o),
(148,-9,o),
(311,-9,cs)
);
},
{
closed = 1;
nodes = (
(180,50,o),
(74,156,o),
(74,287,cs),
(74,319,o),
(80,348,o),
(91,376,c),
(90,369,o),
(90,361,o),
(90,354,cs),
(90,230,o),
(193,133,o),
(311,133,cs),
(396,133,o),
(466,202,o),
(466,287,cs),
(466,297,o),
(464,306,o),
(463,315,c),
(480,288,o),
(491,255,o),
(491,220,cs),
(491,116,o),
(415,50,o),
(311,50,cs)
);
},
{
closed = 1;
nodes = (
(249,174,o),
(198,225,o),
(198,287,cs),
(198,349,o),
(249,400,o),
(311,400,cs),
(373,400,o),
(424,349,o),
(424,287,cs),
(424,225,o),
(373,174,o),
(311,174,cs)
);
},
{
closed = 1;
nodes = (
(532,205,o),
(532,213,o),
(532,220,cs),
(532,350,o),
(422,442,o),
(311,442,cs),
(226,442,o),
(157,372,o),
(157,287,cs),
(157,278,o),
(158,268,o),
(160,259,c),
(142,286,o),
(132,319,o),
(132,354,cs),
(132,444,o),
(189,524,o),
(311,524,cs),
(442,524,o),
(548,418,o),
(548,287,cs),
(548,256,o),
(542,226,o),
(531,198,c)
);
}
);
width = 622;
}
);
note = ".notdef";
},
{
color = 4;
glyphname = period;
kernLeft = comma;
kernRight = comma;
lastChange = "2023-05-02 15:44:32 +0000";
layers = (
{
hints = (
{
horizontal = 1;
place = (-10,183);
type = Stem;
},
{
place = (60,178);
type = Stem;
}
);
layerId = "58D608FC-F2A7-4C81-9CF8-8074D1767F25";
shapes = (
{
closed = 1;
nodes = (
(62,0,l),
(238,0,l),
(238,165,l),
(62,165,l)
);
}
);
width = 300;
}
);
note = period;
unicode = 46;
},
{
color = 4;
glyphname = comma;
kernLeft = comma;
kernRight = comma;
lastChange = "2023-05-02 15:44:32 +0000";
layers = (
{
guides = (
{
pos = (137,164);
}
);
hints = (
{
horizontal = 1;
place = (-128,21);
target = up;
type = BottomGhost;
},
{
horizontal = 1;
place = (120,-20);
target = down;
type = TopGhost;
}
);
layerId = "58D608FC-F2A7-4C81-9CF8-8074D1767F25";
shapes = (
{
closed = 1;
nodes = (
(20,-84,l),
(161,-84,l),
(255,164,l),
(75,164,l)
);
}
);
width = 300;
}
);
note = comma;
unicode = 44;
},
{
color = 4;
glyphname = exclam;
lastChange = "2023-05-02 15:44:32 +0000";
layers = (
{
hints = (
{
horizontal = 1;
place = (-10,173);
type = Stem;
},
{
horizontal = 1;
place = (779,-20);
target = down;
type = TopGhost;
},
{
place = (68,165);
type = Stem;
},
{
place = (53,195);
type = Stem;
}
);
layerId = "58D608FC-F2A7-4C81-9CF8-8074D1767F25";
shapes = (
{
closed = 1;
nodes = (
(218,224,l),
(248,610,l),
(248,779,l),
(52,779,l),
(52,610,l),
(82,224,l)
);
},
{
closed = 1;
nodes = (
(241,0,l),
(241,136,l),
(60,136,l),
(60,0,l)
);
}
);
width = 300;
}
);
note = exclam;
unicode = 33;
},
{
color = 4;
glyphname = question;
lastChange = "2023-05-02 15:44:32 +0000";
layers = (
{
background = {
shapes = (
{
closed = 1;
nodes = (
(-149,594,l),
(-149,548,l),
(685,548,l),
(685,594,l)
);
}
);
};
hints = (
{
horizontal = 1;
place = (-10,173);
type = Stem;
},
{
horizontal = 1;
place = (350,105);
type = Stem;
},
{
horizontal = 1;
place = (620,168);
type = Stem;
},
{
place = (205,211);
type = Stem;
},
{
place = (62,180);
type = Stem;
}
);
layerId = "58D608FC-F2A7-4C81-9CF8-8074D1767F25";
shapes = (
{
closed = 1;
nodes = (
(201,484,o),
(132,470,o),
(72,470,cs),
(62,470,l),
(62,224,l),
(242,224,l),
(242,350,l),
(347,368,o),
(405,445,o),
(415,545,c),
(205,545,l)
);
},
{
closed = 1;
nodes = (
(242,0,l),
(242,136,l),
(62,136,l),
(62,0,l)
);
},
{
closed = 1;
nodes = (
(406,735,o),
(290,788,o),
(164,788,cs),
(97,788,o),
(56,784,o),
(10,774,c),
(28,615,l),
(47,618,o),
(68,620,o),
(100,620,cs),
(139,620,o),
(167,610,o),
(185,594,c),
(415,594,l)
);
}
);
width = 441;
}
);
note = question;
unicode = 63;
},
{
color = 4;
glyphname = bullet;
kernLeft = bullet;
kernRight = bullet;
lastChange = "2023-05-02 15:44:32 +0000";
layers = (
{
hints = (
{
horizontal = 1;
place = (174,21);
target = up;
type = BottomGhost;
},
{
horizontal = 1;
place = (465,-20);
target = down;
type = TopGhost;
}
);
layerId = "58D608FC-F2A7-4C81-9CF8-8074D1767F25";
shapes = (
{
closed = 1;
nodes = (
(295,174,o),
(345,228,o),
(345,319,cs),
(345,409,o),
(295,465,o),
(199,465,cs),
(101,465,o),
(55,409,o),
(55,319,cs),
(55,228,o),
(101,174,o),
(199,174,cs)
);
}
);
width = 400;
}
);
note = bullet;
unicode = 8226;
},
{
color = 4;
glyphname = asterisk;
lastChange = "2023-05-02 15:44:32 +0000";
layers = (
{
background = {
shapes = (
{
closed = 1;
nodes = (
(302,794,l),
(180,794,l),
(204,656,l),
(96,745,l),
(34,641,l),
(166,590,l),
(33,541,l),
(94,436,l),
(204,526,l),
(180,386,l),
(302,386,l),
(278,525,l),
(386,436,l),
(449,540,l),
(316,590,l),
(447,640,l),
(386,745,l),
(279,656,l)
);
}
);
};
hints = (
{
horizontal = 1;
place = (466,21);
target = up;
type = BottomGhost;
},
{
horizontal = 1;
place = (794,-20);
target = down;
type = TopGhost;
}
);
layerId = "58D608FC-F2A7-4C81-9CF8-8074D1767F25";
shapes = (
{
closed = 1;
nodes = (
(302,386,l),
(278,525,l),
(386,436,l),
(449,540,l),
(316,590,l),
(447,640,l),
(386,745,l),
(279,656,l),
(302,794,l),
(180,794,l),
(204,656,l),
(96,745,l),
(34,641,l),
(166,590,l),
(33,541,l),
(94,436,l),
(204,526,l),
(180,386,l)
);
},
{
closed = 1;
nodes = (
(201,520,o),
(169,552,o),
(169,593,cs),
(169,633,o),
(201,665,o),
(242,665,cs),
(282,665,o),
(314,633,o),
(314,593,cs),
(314,552,o),
(282,520,o),
(242,520,cs)
);
}
);
width = 482;
}
);
note = asterisk;
unicode = 42;
},
{
color = 4;
glyphname = numbersign;
lastChange = "2023-05-02 15:44:32 +0000";
layers = (
{
background = {
shapes = (
{
closed = 1;
nodes = (
(-105,620,l),
(-105,574,l),
(729,574,l),
(729,620,l)
);
}
);
};
guides = (
{
angle = 265.9504;
pos = (567,518);
}
);
hints = (
{
horizontal = 1;
place = (0,21);
target = up;
type = BottomGhost;
},
{
horizontal = 1;
place = (575,-20);
target = down;
type = TopGhost;
}
);
layerId = "58D608FC-F2A7-4C81-9CF8-8074D1767F25";
shapes = (
{
closed = 1;
nodes = (
(294,0,l),
(422,0,l),
(455,223,l),
(327,223,l)
);
},
{
closed = 1;
nodes = (
(564,461,l),
(581,574,l),
(339,574,l),
(322,461,l)
);
},
{
closed = 1;
nodes = (
(518,154,l),
(534,267,l),
(42,267,l),
(24,154,l)
);
},
{
closed = 1;
nodes = (
(80,0,l),
(208,0,l),
(224,109,l),
(96,109,l)
);
},
{
closed = 1;
nodes = (
(89,574,l),
(71,461,l),
(220,461,l),
(239,574,l)
);
},
{
closed = 1;
nodes = (
(530,720,l),
(402,720,l),
(341,314,l),
(469,314,l)
);
},
{
closed = 1;
nodes = (
(108,191,l),
(236,191,l),
(295,575,l),
(167,575,l)
);
},
{
closed = 1;
nodes = (
(316,720,l),
(188,720,l),
(173,620,l),
(301,620,l)
);
}
);
width = 605;
}
);
note = numbersign;
unicode = 35;
},
{
color = 4;
glyphname = slash;
lastChange = "2023-05-02 15:44:32 +0000";
layers = (
{
hints = (
{
horizontal = 1;
place = (-36,21);
target = up;
type = BottomGhost;
},
{
horizontal = 1;
place = (755,-20);
target = down;
type = TopGhost;
}
);
layerId = "58D608FC-F2A7-4C81-9CF8-8074D1767F25";
shapes = (
{
closed = 1;
nodes = (
(0,-36,l),
(169,-36,l),
(427,755,l),
(258,755,l)
);
}
);
width = 427;
}
);
note = slash;
unicode = 47;
},
{
color = 4;
glyphname = hyphen;
kernLeft = hyphen;
kernRight = hyphen;
lastChange = "2023-05-02 15:44:32 +0000";
layers = (
{
hints = (
{
horizontal = 1;
place = (269,21);
target = up;
type = BottomGhost;
},
{
horizontal = 1;
place = (408,-20);
target = down;
type = TopGhost;
}
);
layerId = "58D608FC-F2A7-4C81-9CF8-8074D1767F25";
shapes = (
{
closed = 1;
nodes = (
(30,408,l),
(30,269,l),
(270,269,l),
(270,408,l)
);
}
);
width = 300;
}
);
note = hyphen;
unicode = 45;
},
{
color = 4;
glyphname = endash;
kernLeft = hyphen;
kernRight = hyphen;
lastChange = "2023-05-02 15:44:32 +0000";
layers = (
{
hints = (
{
horizontal = 1;
place = (279,21);
target = up;
type = BottomGhost;
},
{
horizontal = 1;
place = (398,-20);
target = down;
type = TopGhost;
}
);
layerId = "58D608FC-F2A7-4C81-9CF8-8074D1767F25";
shapes = (
{
closed = 1;
nodes = (
(10,398,l),
(10,279,l),
(440,279,l),
(440,398,l)
);
}
);
width = 450;
}
);
note = endash;
unicode = 8211;
},
{
color = 4;
glyphname = emdash;
kernLeft = hyphen;
kernRight = hyphen;
lastChange = "2023-05-02 15:44:32 +0000";
layers = (
{
hints = (
{
horizontal = 1;
place = (279,21);
target = up;
type = BottomGhost;
},
{
horizontal = 1;
place = (398,-20);
target = down;
type = TopGhost;
}
);
layerId = "58D608FC-F2A7-4C81-9CF8-8074D1767F25";
shapes = (
{
closed = 1;
nodes = (
(50,398,l),
(50,279,l),
(625,279,l),
(625,398,l)
);
}
);
width = 675;
}
);
note = emdash;
unicode = 8212;
},
{
color = 4;
glyphname = parenleft;
lastChange = "2023-05-02 15:44:32 +0000";
layers = (
{
background = {
shapes = (
{
closed = 1;
nodes = (
(574,293,l),
(574,343,l),
(-260,344,l),
(-260,294,l)
);
}
);
};
guides = (
{
pos = (126,516);
},
{
angle = -40.9153;
pos = (184,613);
}
);
hints = (
{
horizontal = 1;
place = (-146,21);
target = up;
type = BottomGhost;
},
{
horizontal = 1;
place = (782,-20);
target = down;
type = TopGhost;
},
{
place = (50,169);
type = Stem;
}
);
layerId = "58D608FC-F2A7-4C81-9CF8-8074D1767F25";
shapes = (
{
closed = 1;
nodes = (
(35,96,ls),
(35,61,o),
(44,43,o),
(71,16,cs),
(232,-146,l),
(348,-29,l),
(236,80,ls),
(220,95,o),
(219,111,o),
(219,132,cs),
(219,293,l),
(35,293,l)
);
},
{
closed = 1;
nodes = (
(219,504,ls),
(219,525,o),
(220,541,o),
(236,556,cs),
(348,665,l),
(232,782,l),
(71,620,ls),
(44,593,o),
(35,575,o),
(35,540,cs),
(35,343,l),
(219,343,l)
);
}
);
width = 380;
}
);
note = parenleft;
unicode = 40;
},
{
color = 4;
glyphname = braceleft;
lastChange = "2023-05-02 15:44:32 +0000";
layers = (
{
background = {
shapes = (
{
closed = 1;
nodes = (
(710,290,l),
(710,340,l),
(-124,341,l),
(-124,291,l)
);
}
);
};
hints = (
{
place = (15,264);
type = Stem;
},
{
place = (120,255);
type = Stem;
},
{
place = (120,159);
type = Stem;
}
);
layerId = "58D608FC-F2A7-4C81-9CF8-8074D1767F25";
shapes = (
{
closed = 1;
nodes = (
(10,237,l),
(86,237,o),
(115,207,o),
(115,112,cs),
(115,67,ls),
(115,-77,o),
(174,-123,o),
(337,-123,cs),
(387,-123,l),
(387,25,l),
(343,25,ls),
(306,25,o),
(291,42,o),
(291,96,cs),
(291,167,ls),
(291,230,o),
(270,267,o),
(234,290,c),
(10,290,l)
);
},
{
closed = 1;
nodes = (
(269,363,o),
(291,400,o),
(291,465,cs),
(291,536,ls),
(291,590,o),
(306,607,o),
(343,607,cs),
(387,607,l),
(387,755,l),
(337,755,ls),
(174,755,o),
(115,709,o),
(115,565,cs),
(115,520,ls),
(115,425,o),
(86,395,o),
(10,395,c),
(10,340,l),
(231,340,l)
);
}
);
width = 436;
}
);
note = braceleft;
unicode = 123;
},
{
color = 4;
glyphname = bracketleft;
lastChange = "2023-05-02 15:44:32 +0000";
layers = (
{
background = {
shapes = (
{
closed = 1;
nodes = (
(710,290,l),
(710,340,l),
(-124,341,l),
(-124,291,l)
);
}
);
};
hints = (
{
horizontal = 1;
place = (-124,130);
type = Stem;
},
{
horizontal = 1;
place = (625,130);
type = Stem;
},
{
place = (55,259);
type = Stem;
},
{
place = (55,160);
type = Stem;
}
);
layerId = "58D608FC-F2A7-4C81-9CF8-8074D1767F25";
shapes = (
{
closed = 1;
nodes = (
(55,-124,l),
(314,-124,l),
(314,24,l),
(215,24,l),
(215,291,l),
(55,291,l)
);
},
{
closed = 1;
nodes = (
(215,607,l),
(314,607,l),
(314,755,l),
(55,755,l),
(55,340,l),
(215,340,l)
);
}
);
width = 349;
}
);
note = bracketleft;
unicode = 91;
},
{
color = 4;
glyphname = quoteleft;
kernLeft = quoteleft;
kernRight = quoteleft;
lastChange = "2023-05-02 15:44:32 +0000";
layers = (
{
hints = (
{
horizontal = 1;
place = (501,21);
target = up;
type = BottomGhost;
},
{
horizontal = 1;
place = (763,-20);
target = down;
type = TopGhost;
},
{
place = (30,165);
type = Stem;
}
);
layerId = "58D608FC-F2A7-4C81-9CF8-8074D1767F25";
shapes = (
{
closed = 1;
nodes = (
(45,558,ls),
(45,491,o),
(80,458,o),
(152,458,cs),
(237,458,l),
(237,763,l),
(45,737,l)
);
}
);
width = 257;
}
);
metricLeft = "=|comma";
metricRight = "=|comma";
note = quoteleft;
unicode = 8216;
},
{
color = 4;
glyphname = guilsinglleft;
kernLeft = guilsinglleft;
kernRight = guilsinglleft;
lastChange = "2023-05-02 15:44:32 +0000";
layers = (
{
hints = (
{
horizontal = 1;
place = (59,21);
target = up;
type = BottomGhost;
},
{
horizontal = 1;
place = (459,-20);
target = down;
type = TopGhost;
}
);
layerId = "58D608FC-F2A7-4C81-9CF8-8074D1767F25";
shapes = (
{
closed = 1;
nodes = (
(176,259,l),
(306,459,l),
(150,459,l),
(20,264,l),
(20,254,l),
(150,59,l),
(306,59,l)
);
}
);
width = 346;
}
);
note = guilsinglleft;
unicode = 8249;
},
{
color = 4;
glyphname = quotesingle;
lastChange = "2023-05-02 15:44:32 +0000";
layers = (
{
background = {
shapes = (
{
closed = 1;
nodes = (
(30,558,ls),
(30,491,o),
(65,458,o),
(137,458,cs),
(222,458,l),
(222,763,l),
(30,737,l)
);
}
);
};
hints = (
{
horizontal = 1;
place = (530,21);
target = up;
type = BottomGhost;
},
{
horizontal = 1;
place = (754,-20);
target = down;
type = TopGhost;
},
{
place = (38,117);
type = Stem;
}
);
layerId = "58D608FC-F2A7-4C81-9CF8-8074D1767F25";
shapes = (
{
closed = 1;
nodes = (
(51,458,l),
(184,458,l),
(206,754,l),
(30,754,l)
);
}
);
width = 236;
}
);
note = quotesingle;
unicode = 39;
},
{
color = 4;
glyphname = florin;
lastChange = "2023-05-02 16:24:39 +0000";
layers = (
{
background = {
shapes = (
{
closed = 1;
nodes = (
(-454,385,l),
(-454,335,l),
(379,335,l),
(379,385,l)
);
},
{
closed = 1;
nodes = (
(-474,195,l),
(-474,145,l),
(359,145,l),
(359,195,l)
);
}
);
};
hints = (
{
horizontal = 1;
place = (-149,344);
type = Stem;
},
{
horizontal = 1;
place = (335,103);
type = Stem;
},
{
horizontal = 1;
place = (335,248);
type = Stem;
}
);
layerId = "58D608FC-F2A7-4C81-9CF8-8074D1767F25";
shapes = (
{
closed = 1;
nodes = (
(28,-149,l),
(210,-149,l),
(253,143,l),
(71,143,l)
);
},
{
closed = 1;
nodes = (
(288,395,ls),
(293,429,o),
(316,440,o),
(366,440,cs),
(374,440,o),
(384,439,o),
(393,438,c),
(412,578,l),
(387,581,o),
(361,583,o),
(337,583,cs),
(191,583,o),
(127,544,o),
(111,421,cs),
(107,386,l),
(287,386,l)
);
},
{
closed = 1;
nodes = (
(40,335,l),
(20,195,l),
(359,195,l),
(379,335,l)
);
}
);
width = 422;
}
);
note = florin;
unicode = 402;
},
{
color = 4;
glyphname = at;
lastChange = "2023-05-02 16:24:39 +0000";
layers = (
{
background = {
hints = (
{
horizontal = 1;
place = (85,132);
type = Stem;
},
{
horizontal = 1;
place = (235,24);
type = Stem;
},
{
horizontal = 1;
place = (433,86);
type = Stem;
},
{
place = (482,42);
type = Stem;
},
{
place = (554,25);
type = Stem;
},
{
horizontal = 1;
place = (516,21);
target = up;
type = BottomGhost;
}
);
shapes = (
{
closed = 1;
nodes = (
(710,244,l),
(710,294,l),
(-124,295,l),
(-124,245,l)
);
}
);
};
hints = (
{
horizontal = 1;
place = (-10,132);
type = Stem;
},
{
horizontal = 1;
place = (140,24);
type = Stem;
},
{
horizontal = 1;
place = (338,86);
type = Stem;
},
{
place = (195,42);
type = Stem;
},
{
place = (267,25);
type = Stem;
},
{
place = (464,18);
type = Stem;
},
{
place = (567,48);
type = Stem;
},
{
horizontal = 1;
place = (138,79);
type = Stem;
},
{
place = (531,84);
type = Stem;
},
{
horizontal = 1;
place = (0,276);
type = Stem;
},
{
horizontal = 1;
place = (334,99);
type = Stem;
},
{
horizontal = 1;
place = (259,279);
type = Stem;
}
);
layerId = "58D608FC-F2A7-4C81-9CF8-8074D1767F25";
shapes = (
{
closed = 1;
nodes = (
(53,-33,o),
(212,-141,o),
(460,-141,cs),
(511,-141,o),
(581,-137,o),
(636,-121,c),
(615,22,l),
(556,2,o),
(509,0,o),
(440,0,cs),
(320,0,o),
(236,61,o),
(229,246,c),
(45,246,l)
);
},
{
closed = 1;
nodes = (
(497,226,o),
(482,245,o),
(482,276,cs),
(482,301,o),
(496,318,o),
(517,327,c),
(517,433,l),
(393,431,o),
(307,371,o),
(307,259,cs),
(307,148,o),
(381,85,o),
(461,85,cs),
(480,85,o),
(498,88,o),
(517,96,c),
(517,219,l)
);
},
{
closed = 1;
nodes = (
(237,479,o),
(320,538,o),
(440,538,cs),
(522,538,o),
(567,507,o),
(567,433,c),
(567,181,l),
(591,95,l),
(747,95,l),
(747,463,ls),
(747,615,o),
(620,679,o),
(460,679,cs),
(214,679,o),
(56,569,o),
(46,296,c),
(229,296,l)
);
}
);
width = 797;
}
);
note = at;
unicode = 64;
},
{
color = 4;
glyphname = ampersand;
lastChange = "2023-05-02 16:24:39 +0000";
layers = (
{
background = {
shapes = (
{
closed = 1;
nodes = (
(423,-14,l),
(461,18,l),
(-70,659,l),
(-109,627,l)
);
}
);
};
hints = (
{
horizontal = 1;
place = (1,21);
target = up;
type = BottomGhost;
},
{
horizontal = 1;
place = (566,160);
type = Stem;
},
{
place = (113,125);
type = Stem;
},
{
place = (469,195);
type = Stem;
},
{
horizontal = 1;
place = (-9,151);
type = Stem;
},
{
place = (40,198);
type = Stem;
}
);
layerId = "58D608FC-F2A7-4C81-9CF8-8074D1767F25";
shapes = (
{
closed = 1;
nodes = (
(657,290,o),
(670,386,o),
(670,451,c),
(484,451,l),
(484,428,o),
(483,396,o),
(478,363,c),
(615,207,l)
);
},
{
closed = 1;
nodes = (
(364,138,l),
(356,137,o),
(349,137,o),
(342,137,cs),
(280,137,o),
(246,169,o),
(234,214,c),
(107,367,l),
(61,326,o),
(45,267,o),
(45,213,cs),
(45,101,o),
(132,-10,o),
(275,-10,cs),
(346,-10,o),
(407,7,o),
(444,38,c),
(476,1,l),
(731,1,l),
(363,417,l),
(333,452,o),
(319,477,o),
(319,502,cs),
(319,547,o),
(352,567,o),
(406,567,cs),
(434,567,o),
(465,560,o),
(493,549,c),
(507,705,l),
(453,719,o),
(401,727,o),
(352,727,cs),
(220,727,o),
(119,668,o),
(119,526,cs),
(119,484,o),
(116,433,o),
(175,363,cs)
);
}
);
width = 746;
}
);
note = ampersand;
unicode = 38;
},
{
color = 4;
glyphname = paragraph;
lastChange = "2023-05-02 16:24:39 +0000";
layers = (
{
background = {
shapes = (
{
closed = 1;
nodes = (
(381,0,l),
(431,0,l),
(431,720,l),
(381,720,l)
);
}
);
};
hints = (
{
horizontal = 1;
place = (0,21);
target = up;
type = BottomGhost;
},
{
horizontal = 1;
place = (634,86);
type = Stem;
},
{
place = (286,84);
type = Stem;
}
);
layerId = "58D608FC-F2A7-4C81-9CF8-8074D1767F25";
shapes = (
{
closed = 1;
nodes = (
(525,0,l),
(525,583,l),
(580,720,l),
(431,720,l),
(431,0,l)
);
},
{
closed = 1;
nodes = (
(242,720,l),
(103,720,o),
(35,651,o),
(35,473,cs),
(35,296,o),
(99,227,o),
(242,227,cs),
(286,227,l),
(286,0,l),
(381,0,l),
(381,720,l)
);
}
);
width = 580;
}
);
note = paragraph;
unicode = 182;
},
{
color = 4;
glyphname = section;
lastChange = "2023-05-02 16:24:39 +0000";
layers = (
{
background = {
shapes = (
{
closed = 1;
nodes = (
(604,40,l),
(633,80,l),
(-36,577,l),
(-65,536,l)
);
}
);
};
hints = (
{
horizontal = 1;
place = (-139,140);
type = Stem;
},
{
horizontal = 1;
place = (-137,140);
type = Stem;
},
{
horizontal = 1;
place = (-16,140);
type = Stem;
},
{
horizontal = 1;
place = (-10,140);
type = Stem;
},
{
horizontal = 1;
place = (314,140);
type = Stem;
},
{
horizontal = 1;
place = (437,140);
type = Stem;
},
{
horizontal = 1;
place = (443,140);
type = Stem;
},
{
horizontal = 1;
place = (539,140);
type = Stem;
},
{
place = (-2,181);
type = Stem;
},
{
place = (-2,182);
type = Stem;
},
{
place = (218,184);
type = Stem;
},
{
place = (219,183);
type = Stem;
},
{
place = (332,183);
type = Stem;
},
{
place = (679,182);
type = Stem;
},
{
place = (707,182);
type = Stem;
},
{
place = (900,183);
type = Stem;
},
{
place = (928,183);
type = Stem;
}
);
layerId = "58D608FC-F2A7-4C81-9CF8-8074D1767F25";
shapes = (
{
closed = 1;
nodes = (
(362,-100,o),
(424,-45,o),
(424,67,cs),
(424,126,o),
(405,164,o),
(354,199,cs),
(231,283,ls),
(210,297,o),
(198,308,o),
(198,334,cs),
(198,336,o),
(198,338,o),
(199,341,c),
(73,435,l),
(50,408,o),
(40,372,o),
(40,327,cs),
(40,234,o),
(80,199,o),
(137,161,cs),
(217,108,ls),
(231,99,o),
(240,93,o),
(240,76,cs),
(240,55,o),
(221,44,o),
(185,44,cs),
(103,44,o),
(50,55,o),
(50,55,c),
(35,-81,l),
(82,-93,o),
(138,-101,o),
(206,-101,cs)
);
},
{
closed = 1;
nodes = (
(444,263,o),
(454,298,o),
(454,343,cs),
(454,436,o),
(417,473,o),
(360,510,cs),
(276,564,ls),
(259,575,o),
(251,582,o),
(251,595,cs),
(251,617,o),
(271,624,o),
(319,624,cs),
(369,624,o),
(421,615,o),
(421,615,c),
(436,748,l),
(436,748,o),
(363,763,o),
(280,763,cs),
(131,762,o),
(70,711,o),
(70,606,cs),
(70,538,o),
(90,497,o),
(143,463,cs),
(277,377,ls),
(299,363,o),
(310,352,o),
(310,326,cs),
(310,324,o),
(310,322,o),
(310,320,c),
(422,237,l)
);
}
);
width = 489;
}
);
note = section;
unicode = 167;
},
{
color = 4;
glyphname = copyright;
lastChange = "2023-05-02 16:24:39 +0000";
layers = (
{
background = {
shapes = (
{
closed = 1;
nodes = (
(354,20,l),
(404,20,l),
(404,853,l),
(354,853,l)
);
},
{
closed = 1;
nodes = (
(796,395,l),
(796,445,l),
(-38,446,l),
(-37,396,l)
);
}
);
};
hints = (
{
horizontal = 1;
place = (-10,155);
type = Stem;
},
{
horizontal = 1;
place = (221,100);
type = Stem;
},
{
horizontal = 1;
place = (507,99);
type = Stem;
},
{
horizontal = 1;
place = (678,85);
type = Stem;
},
{
place = (-605,210);
type = Stem;
},
{
place = (-269,210);
type = Stem;
},
{
place = (20,85);
type = Stem;
},
{
place = (205,137);
type = Stem;
},
{
place = (642,0);
type = Stem;
},
{
horizontal = 1;
place = (72,86);
type = Stem;
},
{
place = (625,86);
type = Stem;
},
{
place = (212,121);
type = Stem;
}
);
layerId = "58D608FC-F2A7-4C81-9CF8-8074D1767F25";
shapes = (
{
closed = 1;
nodes = (
(355,159,l),
(226,169,o),
(130,264,o),
(121,397,c),
(36,397,l),
(45,217,o),
(178,85,o),
(355,73,c)
);
},
{
closed = 1;
nodes = (
(425,223,o),
(472,227,o),
(502,235,c),
(502,334,l),
(417,316,o),
(353,315,o),
(343,397,c),
(206,397,l),
(213,274,o),
(289,223,o),
(391,223,cs)
);
},
{
closed = 1;
nodes = (
(582,84,o),
(714,215,o),
(725,394,c),
(639,394,l),
(629,263,o),
(534,169,o),
(405,159,c),
(405,73,l)
);
},
{
closed = 1;
nodes = (
(121,446,l),
(133,575,o),
(227,666,o),
(353,677,c),
(353,762,l),
(180,750,o),
(49,622,o),
(36,446,c)
);
},
{
closed = 1;
nodes = (
(343,446,l),
(348,499,o),
(370,517,o),
(408,517,c),
(423,449,l),
(499,449,l),
(499,596,l),
(468,604,o),
(443,609,o),
(408,609,cs),
(313,609,o),
(220,566,o),
(207,446,c)
);
},
{
closed = 1;
nodes = (
(725,447,l),
(712,623,o),
(579,753,o),
(403,762,c),
(403,677,l),
(532,668,o),
(626,576,o),
(639,447,c)
);
}
);
width = 761;
},
{
associatedMasterId = "58D608FC-F2A7-4C81-9CF8-8074D1767F25";
background = {
shapes = (
{
closed = 1;
nodes = (
(20,225,o),
(173,72,o),
(365,72,cs),
(558,72,o),
(711,225,o),
(711,418,cs),
(711,610,o),
(558,763,o),
(365,763,cs),
(173,763,o),
(20,610,o),
(20,418,cs)
);
},
{
closed = 1;
nodes = (
(105,563,o),
(220,678,o),
(365,678,cs),
(511,678,o),
(625,563,o),
(625,418,cs),
(625,272,o),
(511,158,o),
(365,158,cs),
(220,158,o),
(105,272,o),
(105,418,cs)
);
},
{
closed = 1;
nodes = (
(404,444,l),
(465,444,l),
(465,591,l),
(436,605,o),
(404,609,o),
(378,609,cs),
(257,609,o),
(212,535,o),
(212,414,cs),
(212,288,o),
(263,224,o),
(388,224,cs),
(413,224,o),
(446,226,o),
(469,232,c),
(469,328,l),
(451,326,o),
(436,324,o),
(418,324,cs),
(359,324,o),
(333,345,o),
(333,416,cs),
(333,475,o),
(350,511,o),
(396,513,c)
);
}
);
};
hints = (
{
horizontal = 1;
place = (-10,155);
type = Stem;
},
{
horizontal = 1;
place = (221,100);
type = Stem;
},
{
horizontal = 1;
place = (507,99);
type = Stem;
},
{
horizontal = 1;
place = (678,85);
type = Stem;
},
{
place = (-605,210);
type = Stem;
},
{
place = (-269,210);
type = Stem;
},
{
place = (20,85);
type = Stem;
},
{
place = (205,137);
type = Stem;
},
{
place = (642,0);
type = Stem;
},
{
horizontal = 1;
place = (72,86);
type = Stem;
},
{
place = (625,86);
type = Stem;
},
{
place = (212,121);
type = Stem;
}
);
layerId = "0CE61A5A-C8AF-47F7-A23D-A8606AB86166";
name = "Mar 19 20, 17:45";
shapes = (
{
closed = 1;
nodes = (
(20,225,o),
(173,72,o),
(365,72,cs),
(558,72,o),
(711,225,o),
(711,418,cs),
(711,610,o),
(558,763,o),
(365,763,cs),
(173,763,o),
(20,610,o),
(20,418,cs)
);
},
{
closed = 1;
nodes = (
(105,563,o),
(220,678,o),
(365,678,cs),
(511,678,o),
(625,563,o),
(625,418,cs),
(625,272,o),
(511,158,o),
(365,158,cs),
(220,158,o),
(105,272,o),
(105,418,cs)
);
},
{
closed = 1;
nodes = (
(404,444,l),
(465,444,l),
(465,591,l),
(436,605,o),
(404,609,o),
(378,609,cs),
(257,609,o),
(212,535,o),
(212,414,cs),
(212,288,o),
(263,224,o),
(388,224,cs),
(413,224,o),
(446,226,o),
(469,232,c),
(469,328,l),
(451,326,o),
(436,324,o),
(418,324,cs),
(359,324,o),
(333,345,o),
(333,416,cs),
(333,475,o),
(350,511,o),
(396,513,c)
);
}
);
width = 731;
}
);
note = copyright;
unicode = 169;
},
{
color = 4;
glyphname = registered;
lastChange = "2023-05-02 16:24:39 +0000";
layers = (
{
background = {
shapes = (
{
closed = 1;
nodes = (
(231,614,l),
(250,543,l),
(250,228,l),
(368,228,l),
(368,359,l),
(382,359,l),
(422,228,l),
(543,228,l),
(487,380,l),
(512,404,o),
(529,440,o),
(529,491,cs),
(529,563,o),
(497,614,o),
(398,614,cs)
);
},
{
closed = 1;
nodes = (
(372,538,ls),
(398,538,o),
(408,526,o),
(408,483,cs),
(408,442,o),
(398,430,o),
(372,430,cs),
(368,430,l),
(368,538,l)
);
},
{
closed = 1;
nodes = (
(634,265,o),
(538,170,o),
(407,159,c),
(407,73,l),
(585,84,o),
(719,217,o),
(728,400,c),
(641,400,l)
);
},
{
closed = 1;
nodes = (
(46,217,o),
(179,85,o),
(357,73,c),
(357,159,l),
(227,170,o),
(131,265,o),
(123,399,c),
(37,399,l)
);
},
{
closed = 1;
nodes = (
(713,624,o),
(580,753,o),
(404,762,c),
(404,677,l),
(533,668,o),
(628,577,o),
(640,448,c),
(727,448,l)
);
},
{
closed = 1;
nodes = (
(137,575,o),
(229,665,o),
(354,677,c),
(354,762,l),
(182,750,o),
(52,622,o),
(38,449,c),
(124,449,l)
);
}
);
};
hints = (
{
horizontal = 1;
place = (0,21);
target = up;
type = BottomGhost;
},
{
horizontal = 1;
place = (72,86);
type = Stem;
},
{
horizontal = 1;
place = (234,92);
type = Stem;
},
{
horizontal = 1;
place = (579,141);
type = Stem;
},
{
place = (-603,195);
type = Stem;
},
{
place = (-327,200);
type = Stem;
},
{
place = (20,85);
type = Stem;
},
{
place = (243,108);
type = Stem;
},
{
place = (390,1);
type = Stem;
},
{
place = (625,86);
type = Stem;
},
{
horizontal = 1;
place = (530,76);
type = Stem;
},
{
horizontal = 1;
place = (678,85);
type = Stem;
},
{
horizontal = 1;
place = (228,194);
type = Stem;
}
);
layerId = "58D608FC-F2A7-4C81-9CF8-8074D1767F25";
shapes = (
{
closed = 1;
nodes = (
(541,228,l),
(474,513,l),
(449,364,l),
(501,383,o),
(525,418,o),
(525,485,cs),
(525,582,o),
(478,614,o),
(383,614,cs),
(231,614,l),
(250,538,l),
(365,538,ls),
(403,538,o),
(413,530,o),
(413,481,cs),
(413,453,o),
(407,437,o),
(392,430,c),
(392,423,l),
(434,228,l)
);
},
{
closed = 1;
nodes = (
(357,159,l),
(227,170,o),
(130,265,o),
(122,399,c),
(36,399,l),
(45,217,o),
(179,85,o),
(357,73,c)
);
},
{
closed = 1;
nodes = (
(123,449,l),
(136,575,o),
(229,665,o),
(354,677,c),
(354,762,l),
(182,750,o),
(51,622,o),
(37,449,c)
);
},
{
closed = 1;
nodes = (
(585,84,o),
(720,217,o),
(729,400,c),
(642,400,l),
(635,265,o),
(538,170,o),
(407,159,c),
(407,73,l)
);
},
{
closed = 1;
nodes = (
(365,228,l),
(365,488,l),
(250,488,l),
(250,228,l)
);
},
{
closed = 1;
nodes = (
(728,448,l),
(714,624,o),
(580,753,o),
(404,762,c),
(404,677,l),
(533,668,o),
(629,577,o),
(641,448,c)
);
}
);
width = 765;
}
);
metricLeft = copyright;
metricRight = copyright;
note = registered;
unicode = 174;
},
{
color = 4;
glyphname = trademark;
lastChange = "2023-05-02 16:24:39 +0000";
layers = (
{
background = {
shapes = (
{
closed = 1;
nodes = (
(683,-10,l),
(726,15,l),
(309,737,l),
(266,711,l)
);
},
{
closed = 1;
nodes = (
(735,737,l),
(318,15,l),
(361,-10,l),
(778,711,l)
);
}
);
};
hints = (
{
horizontal = 1;
place = (318,21);
target = up;
type = BottomGhost;
},
{
horizontal = 1;
place = (626,94);
type = Stem;
},
{
place = (-518,180);
type = Stem;
},
{
place = (20,273);
type = Stem;
},
{
place = (339,114);
type = Stem;
},
{
place = (588,114);
type = Stem;
},
{
place = (97,119);
type = Stem;
}
);
layerId = "58D608FC-F2A7-4C81-9CF8-8074D1767F25";
shapes = (
{
closed = 1;
nodes = (
(344,318,l),
(458,318,l),
(458,379,l),
(344,577,l)
);
},
{
closed = 1;
nodes = (
(97,318,l),
(216,318,l),
(216,575,l),
(97,575,l)
);
},
{
closed = 1;
nodes = (
(298,626,l),
(298,720,l),
(15,720,l),
(15,626,l)
);
},
{
closed = 1;
nodes = (
(594,318,l),
(707,318,l),
(707,588,l),
(594,392,l)
);
},
{
closed = 1;
nodes = (
(707,720,l),
(582,720,l),
(525,585,l),
(468,720,l),
(313,720,l),
(492,413,l),
(546,413,l),
(707,688,l)
);
}
);
width = 757;
}
);
note = trademark;
unicode = 8482;
},
{
color = 4;
glyphname = degree;
lastChange = "2023-05-02 15:47:35 +0000";
layers = (
{
background = {
shapes = (
{
closed = 1;
nodes = (
(-58,560,l),
(-58,510,l),
(662,510,l),
(662,560,l)
);
}
);
};
hints = (
{
horizontal = 1;
place = (417,66);
type = Stem;
},
{
horizontal = 1;
place = (663,66);
type = Stem;
},
{
place = (57,66);
type = Stem;
},
{
place = (284,66);
type = Stem;
}
);
layerId = "58D608FC-F2A7-4C81-9CF8-8074D1767F25";
shapes = (
{
closed = 1;
nodes = (
(329,458,o),
(290,423,o),
(234,423,cs),
(177,423,o),
(138,458,o),
(129,510,c),
(41,510,l),
(51,408,o),
(125,341,o),
(234,341,cs),
(343,341,o),
(417,408,o),
(427,510,c),
(339,510,l)
);
},
{
closed = 1;
nodes = (
(416,663,o),
(343,729,o),
(234,729,cs),
(125,729,o),
(52,663,o),
(41,561,c),
(129,561,l),
(139,613,o),
(178,647,o),
(234,647,cs),
(290,647,o),
(330,613,o),
(339,561,c),
(427,561,l)
);
}
);
width = 468;
}
);
note = degree;
unicode = 176;
},
{
color = 4;
glyphname = bar;
lastChange = "2023-05-04 10:45:33 +0000";
layers = (
{
hints = (
{
horizontal = 1;
place = (0,21);
target = up;
type = BottomGhost;
},
{
horizontal = 1;
place = (755,-20);
target = down;
type = TopGhost;
},
{
place = (70,149);
type = Stem;
}
);
layerId = "58D608FC-F2A7-4C81-9CF8-8074D1767F25";
shapes = (
{
closed = 1;
nodes = (
(200,805,l),
(80,805,l),
(80,-120,l),
(200,-120,l)
);
}
);
width = 280;
}
);
note = bar;
unicode = 124;
},
{
color = 4;
glyphname = brokenbar;
lastChange = "2023-05-04 10:45:33 +0000";
layers = (
{
background = {
shapes = (
{
closed = 1;
nodes = (
(219,755,l),
(70,755,l),
(70,418,l),
(219,418,l)
);
},
{
closed = 1;
nodes = (
(219,358,l),
(70,358,l),
(70,1,l),
(219,1,l)
);
}
);
};
hints = (
{
horizontal = 1;
place = (1,21);
target = up;
type = BottomGhost;
},
{
horizontal = 1;
place = (755,-20);
target = down;
type = TopGhost;
},
{
place = (70,149);
type = Stem;
}
);
layerId = "58D608FC-F2A7-4C81-9CF8-8074D1767F25";
shapes = (
{
closed = 1;
nodes = (
(80,283,l),
(80,-120,l),
(200,-120,l),
(200,283,l)
);
},
{
closed = 1;
nodes = (
(200,402,l),
(200,805,l),
(80,805,l),
(80,402,l)
);
}
);
width = 280;
}
);
metricLeft = bar;
metricRight = bar;
note = brokenbar;
unicode = 166;
},
{
color = 4;
glyphname = dagger;
lastChange = "2023-05-04 10:45:33 +0000";
layers = (
{
background = {
shapes = (
{
closed = 1;
nodes = (
(670,364,l),
(670,414,l),
(-164,415,l),
(-164,365,l)
);
}
);
};
hints = (
{
horizontal = 1;
place = (44,48);
type = Stem;
},
{
horizontal = 1;
place = (692,-20);
target = down;
type = TopGhost;
},
{
place = (192,63);
type = Stem;
},
{
place = (83,151);
type = Stem;
}
);
layerId = "58D608FC-F2A7-4C81-9CF8-8074D1767F25";
shapes = (
{
closed = 1;
nodes = (
(105,204,ls),
(101,170,o),
(99,139,o),
(99,112,cs),
(99,54,o),
(141,10,o),
(219,-1,c),
(263,179,l),
(263,365,l),
(122,365,l)
);
},
{
closed = 1;
nodes = (
(179,599,o),
(168,610,o),
(168,623,cs),
(168,637,o),
(179,647,o),
(192,647,cs),
(206,647,o),
(216,637,o),
(216,623,cs),
(216,610,o),
(206,599,o),
(192,599,cs)
);
},
{
closed = 1;
nodes = (
(277,415,l),
(277,612,ls),
(277,719,o),
(105,716,o),
(105,616,cs),
(105,574,o),
(126,574,o),
(126,534,cs),
(126,493,o),
(83,437,o),
(83,430,cs),
(83,422,o),
(92,415,o),
(92,415,c)
);
}
);
width = 347;
}
);
note = dagger;
unicode = 8224;
},
{
color = 4;
glyphname = litre;
lastChange = "2023-05-04 10:45:33 +0000";
layers = (
{
background = {
shapes = (
{
closed = 1;
nodes = (
(331,-60,l),
(381,-60,l),
(381,773,l),
(331,773,l)
);
}
);
};
hints = (
{
horizontal = 1;
place = (-10,125);
type = Stem;
},
{
horizontal = 1;
place = (626,102);
type = Stem;
},
{
place = (80,183);
type = Stem;
},
{
place = (350,139);
type = Stem;
}
);
layerId = "58D608FC-F2A7-4C81-9CF8-8074D1767F25";
shapes = (
{
closed = 1;
nodes = (
(103,212,l),
(49,186,o),
(21,174,o),
(-7,165,c),
(27,62,l),
(54,72,o),
(80,83,o),
(124,107,c)
);
},
{
closed = 1;
nodes = (
(387,610,o),
(393,598,o),
(393,578,cs),
(393,525,o),
(374,428,o),
(295,325,c),
(302,279,o),
(311,240,o),
(327,211,c),
(449,330,o),
(513,474,o),
(513,577,cs),
(513,656,o),
(473,716,o),
(378,726,c),
(378,615,l)
);
},
{
closed = 1;
nodes = (
(169,718,o),
(71,562,o),
(71,301,cs),
(71,64,o),
(202,-10,o),
(316,-10,cs),
(353,-10,o),
(392,-3,o),
(432,9,c),
(452,129,l),
(427,119,o),
(405,114,o),
(384,115,cs),
(299,118,o),
(261,203,o),
(261,332,cs),
(261,464,o),
(290,572,o),
(330,607,c),
(330,727,l)
);
}
);
width = 531;
},
{
associatedMasterId = "58D608FC-F2A7-4C81-9CF8-8074D1767F25";
hints = (
{
horizontal = 1;
place = (-10,125);
type = Stem;
},
{
horizontal = 1;
place = (626,102);
type = Stem;
},
{
place = (80,183);
type = Stem;
},
{
place = (350,139);
type = Stem;
}
);
layerId = "16214484-61D9-406F-B08E-A10F11126943";
name = "Mar 19 20, 18:09";
shapes = (
{
closed = 1;
nodes = (
(74,62,l),
(99,72,o),
(123,83,o),
(145,94,c),
(192,25,o),
(263,-10,o),
(350,-10,cs),
(407,-10,o),
(446,-2,o),
(487,9,c),
(488,129,l),
(469,121,o),
(450,115,o),
(423,115,cs),
(372,115,o),
(325,133,o),
(296,193,c),
(427,305,o),
(489,441,o),
(489,555,cs),
(489,658,o),
(431,728,o),
(301,728,cs),
(145,728,o),
(80,642,o),
(80,361,cs),
(80,299,o),
(87,245,o),
(99,198,c),
(76,186,o),
(50,174,o),
(23,165,c)
);
},
{
closed = 1;
nodes = (
(339,626,o),
(350,600,o),
(350,561,cs),
(350,493,o),
(322,410,o),
(264,336,c),
(263,353,o),
(263,370,o),
(263,390,cs),
(263,583,o),
(283,626,o),
(316,626,cs)
);
}
);
width = 591;
}
);
note = litre;
unicode = 8467;
},
{
color = 4;
glyphname = estimated;
lastChange = "2023-05-04 11:00:17 +0000";
layers = (
{
background = {
shapes = (
{
closed = 1;
nodes = (
(322,-60,l),
(372,-60,l),
(372,773,l),
(322,773,l)
);
}
);
};
guides = (
{
angle = 90;
pos = (648,195);
},
{
angle = 90;
pos = (610,203);
},
{
angle = 90;
pos = (348,183);
}
);
hints = (
{
horizontal = 1;
place = (-10,135);
type = Stem;
},
{
horizontal = 1;
place = (286,35);
type = Stem;
},
{
horizontal = 1;
place = (546,37);
type = Stem;
},
{
place = (49,112);
type = Stem;
},
{
place = (536,112);
type = Stem;
},
{
horizontal = 1;
place = (-10,37);
type = Stem;
}
);
layerId = "58D608FC-F2A7-4C81-9CF8-8074D1767F25";
shapes = (
{
closed = 1;
nodes = (
(322,29,l),
(228,36,o),
(167,70,o),
(128,121,c),
(161,50,l),
(162,497,l),
(202,527,o),
(255,542,o),
(322,545,c),
(322,582,l),
(143,574,o),
(49,483,o),
(49,286,cs),
(49,116,o),
(139,6,o),
(322,-8,c)
);
},
{
closed = 1;
nodes = (
(523,-7,o),
(641,72,o),
(641,181,c),
(602,181,l),
(602,93,o),
(494,30,o),
(372,27,c),
(372,-10,l)
);
},
{
closed = 1;
nodes = (
(648,286,l),
(648,485,o),
(553,576,o),
(371,583,c),
(371,546,l),
(441,543,o),
(495,527,o),
(536,495,c),
(536,321,l),
(225,321,l),
(225,286,l)
);
}
);
width = 697;
}
);
note = estimated;
unicode = 8494;
},
{
color = 4;
glyphname = numero;
kernLeft = B;
lastChange = "2023-05-04 11:00:17 +0000";
layers = (
{
hints = (
{
horizontal = 1;
place = (0,21);
target = up;
type = BottomGhost;
},
{
horizontal = 1;
place = (194,77);
type = Stem;
},
{
horizontal = 1;
place = (302,92);
type = Stem;
},
{
horizontal = 1;
place = (601,94);
type = Stem;
},
{
horizontal = 1;
place = (720,-20);
target = down;
type = TopGhost;
},
{
place = (61,190);
type = Stem;
},
{
place = (383,190);
type = Stem;
},
{
place = (632,122);
type = Stem;
},
{
place = (835,122);
type = Stem;
},
{
horizontal = 1;
place = (597,96);
type = Stem;
},
{
horizontal = 1;
place = (304,96);
type = Stem;
},
{
place = (829,128);
type = Stem;
}
);
layerId = "58D608FC-F2A7-4C81-9CF8-8074D1767F25";
shapes = (
{
closed = 1;
nodes = (
(964,194,l),
(964,271,l),
(665,271,l),
(665,194,l)
);
},
{
ref = N;
},
{
pos = (623,0);
ref = ordmasculine;
}
);
width = 1006;
}
);
metricLeft = N;
metricRight = ordmasculine;
note = numero;
unicode = 8470;
},
{
color = 4;
glyphname = Euro;
lastChange = "2023-05-04 11:00:17 +0000";
layers = (
{
background = {
shapes = (
{
closed = 1;
nodes = (
(710,497,l),
(710,547,l),
(-124,547,l),
(-124,497,l)
);
},
{
closed = 1;
nodes = (
(710,176,l),
(710,226,l),
(-124,226,l),
(-124,176,l)
);
}
);
};
guides = (
{
angle = 90;
pos = (538,303);
}
);
hints = (
{
horizontal = 1;
place = (-10,135);
type = Stem;
},
{
horizontal = 1;
place = (173,97);
type = Stem;
},
{
horizontal = 1;
place = (302,97);
type = Stem;
},
{
horizontal = 1;
place = (497,135);
type = Stem;
},
{
place = (80,186);
type = Stem;
},
{
place = (20,246);
type = Stem;
}
);
layerId = "58D608FC-F2A7-4C81-9CF8-8074D1767F25";
shapes = (
{
closed = 1;
nodes = (
(148,43,o),
(246,-12,o),
(390,-12,cs),
(436,-12,o),
(485,-4,o),
(538,12,c),
(538,166,l),
(499,156,o),
(464,151,o),
(434,151,cs),
(397,151,o),
(367,159,o),
(344,177,c),
(106,177,l)
);
},
{
closed = 1;
nodes = (
(481,386,l),
(481,497,l),
(20,497,l),
(20,386,l)
);
},
{
closed = 1;
nodes = (
(481,226,l),
(481,337,l),
(20,337,l),
(20,226,l)
);
},
{
closed = 1;
nodes = (
(364,567,o),
(394,577,o),
(431,577,cs),
(460,577,o),
(482,574,o),
(518,563,c),
(534,706,l),
(482,721,o),
(433,729,o),
(387,729,cs),
(251,729,o),
(153,681,o),
(109,549,c),
(341,549,l)
);
}
);
width = 563;
},
{
associatedMasterId = "58D608FC-F2A7-4C81-9CF8-8074D1767F25";
hints = (
{
horizontal = 1;
place = (-10,135);
type = Stem;
},
{
horizontal = 1;
place = (173,97);
type = Stem;
},
{
horizontal = 1;
place = (302,97);
type = Stem;
},
{
horizontal = 1;
place = (448,135);
type = Stem;
},
{
place = (80,186);
type = Stem;
},
{
place = (20,246);
type = Stem;
}
);
layerId = "4317B608-9BE1-49EB-A3EA-8EFC96FD655B";
name = "Mar 16 20, 17:30";
shapes = (
{
closed = 1;
nodes = (
(80,302,l),
(80,270,l),
(20,270,l),
(20,173,l),
(89,173,l),
(115,41,o),
(192,-10,o),
(326,-10,cs),
(373,-10,o),
(429,-8,o),
(488,8,c),
(488,136,l),
(449,130,o),
(416,125,o),
(380,125,cs),
(340,125,o),
(310,140,o),
(290,173,c),
(436,173,l),
(436,270,l),
(266,270,l),
(266,302,l),
(436,302,l),
(436,399,l),
(285,399,l),
(303,434,o),
(334,448,o),
(377,448,cs),
(413,448,o),
(449,445,o),
(484,436,c),
(484,565,l),
(426,581,o),
(370,583,o),
(324,583,cs),
(190,583,o),
(114,531,o),
(89,399,c),
(20,399,l),
(20,302,l)
);
}
);
width = 508;
},
{
associatedMasterId = "58D608FC-F2A7-4C81-9CF8-8074D1767F25";
background = {
shapes = (
{
closed = 1;
nodes = (
(710,336,l),
(710,386,l),
(-124,386,l),
(-124,336,l)
);
}
);
};
guides = (
{
angle = 90;
pos = (538,303);
}
);
hints = (
{
horizontal = 1;
place = (-10,135);
type = Stem;
},
{
horizontal = 1;
place = (173,97);
type = Stem;
},
{
horizontal = 1;
place = (302,97);
type = Stem;
},
{
horizontal = 1;
place = (497,135);
type = Stem;
},
{
place = (80,186);
type = Stem;
},
{
place = (20,246);
type = Stem;
}
);
layerId = "A6ADA21F-2E4D-4181-A0D4-823E59A4EA70";
name = "Jul 22 20, 12:29";
shapes = (
{
closed = 1;
nodes = (
(89,86,o),
(198,-12,o),
(390,-12,cs),
(436,-12,o),
(485,-4,o),
(538,12,c),
(538,166,l),
(499,156,o),
(464,151,o),
(434,151,cs),
(341,151,o),
(292,203,o),
(286,337,c),
(83,337,l)
);
},
{
closed = 1;
nodes = (
(289,513,o),
(334,577,o),
(431,577,cs),
(460,577,o),
(482,574,o),
(518,563,c),
(534,706,l),
(482,721,o),
(433,729,o),
(387,729,cs),
(206,729,o),
(92,643,o),
(83,387,c),
(285,387,l)
);
},
{
closed = 1;
nodes = (
(481,386,l),
(481,497,l),
(20,497,l),
(20,386,l)
);
},
{
closed = 1;
nodes = (
(481,226,l),
(481,337,l),
(20,337,l),
(20,226,l)
);
}
);
width = 563;
}
);
metricRight = C;
note = Euro;
unicode = 8364;
},
{
color = 4;
glyphname = cedi;
lastChange = "2023-05-04 11:00:17 +0000";
layers = (
{
background = {
shapes = (
{
closed = 1;
nodes = (
(258,-50,l),
(308,-50,l),
(308,784,l),
(258,784,l)
);
}
);
};
hints = (
{
horizontal = 1;
place = (-10,155);
type = Stem;
},
{
horizontal = 1;
place = (152,296);
type = Stem;
},
{
horizontal = 1;
place = (573,155);
type = Stem;
},
{
place = (-605,210);
type = Stem;
},
{
place = (-269,210);
type = Stem;
},
{
place = (323,62);
type = Stem;
},
{
place = (337,0);
type = Stem;
},
{
place = (356,210);
type = Stem;
}
);
layerId = "58D608FC-F2A7-4C81-9CF8-8074D1767F25";
shapes = (
{
closed = 1;
nodes = (
(257,208,l),
(234,243,o),
(222,296,o),
(222,372,cs),
(222,442,o),
(233,494,o),
(257,529,c),
(257,728,l),
(109,707,o),
(20,605,o),
(20,361,cs),
(20,128,o),
(104,20,o),
(257,-4,c)
);
},
{
closed = 1;
nodes = (
(388,-6,o),
(430,2,o),
(475,16,c),
(475,170,l),
(436,160,o),
(401,155,o),
(371,155,cs),
(363,155,o),
(355,155,o),
(348,156,c),
(348,-8,l)
);
},
{
closed = 1;
nodes = (
(386,-74,l),
(386,798,l),
(308,798,l),
(308,-74,l)
);
},
{
closed = 1;
nodes = (
(471,706,l),
(428,718,o),
(387,729,o),
(348,732,c),
(348,580,l),
(354,581,o),
(361,581,o),
(368,581,cs),
(397,581,o),
(420,579,o),
(456,568,c)
);
}
);
width = 500;
},
{
associatedMasterId = "58D608FC-F2A7-4C81-9CF8-8074D1767F25";
background = {
shapes = (
{
closed = 1;
nodes = (
(710,342,l),
(710,392,l),
(-124,392,l),
(-124,342,l)
);
}
);
};
hints = (
{
horizontal = 1;
place = (-10,155);
type = Stem;
},
{
horizontal = 1;
place = (152,296);
type = Stem;
},
{
horizontal = 1;
place = (573,155);
type = Stem;
},
{
place = (-605,210);
type = Stem;
},
{
place = (-269,210);
type = Stem;
},
{
place = (323,62);
type = Stem;
},
{
place = (337,0);
type = Stem;
},
{
place = (356,210);
type = Stem;
}
);
layerId = "283E7A96-4CCC-465B-A9D3-08211F91752A";
name = "Jul 22 20, 12:26";
shapes = (
{
closed = 1;
nodes = (
(25,90,o),
(135,-9,o),
(327,-9,cs),
(373,-9,o),
(422,-1,o),
(475,16,c),
(475,170,l),
(436,160,o),
(401,155,o),
(371,155,cs),
(278,155,o),
(229,207,o),
(223,342,c),
(20,342,l)
);
},
{
closed = 1;
nodes = (
(386,798,l),
(308,798,l),
(308,-74,l),
(386,-74,l)
);
},
{
closed = 1;
nodes = (
(227,517,o),
(271,581,o),
(368,581,cs),
(397,581,o),
(420,579,o),
(456,568,c),
(471,706,l),
(419,721,o),
(370,733,o),
(324,733,cs),
(143,733,o),
(29,646,o),
(21,392,c),
(222,392,l)
);
}
);
width = 500;
}
);
unicode = 8373;
},
{
color = 4;
glyphname = cent;
lastChange = "2023-05-04 11:00:17 +0000";
layers = (
{
background = {
shapes = (
{
closed = 1;
nodes = (
(710,266,l),
(710,316,l),
(-124,316,l),
(-124,266,l)
);
}
);
};
hints = (
{
horizontal = 1;
place = (-123,128);
type = Stem;
},
{
horizontal = 1;
place = (148,295);
type = Stem;
},
{
horizontal = 1;
place = (704,-20);
target = down;
type = TopGhost;
},
{
place = (182,162);
type = Stem;
},
{
place = (424,0);
type = Stem;
},
{
horizontal = 1;
place = (-10,575);
type = Stem;
}
);
layerId = "58D608FC-F2A7-4C81-9CF8-8074D1767F25";
shapes = (
{
closed = 1;
nodes = (
(26,87,o),
(99,15,o),
(203,-4,c),
(203,-103,l),
(305,-103,l),
(305,-9,l),
(345,-7,o),
(390,-1,o),
(423,8,c),
(423,150,l),
(302,118,o),
(213,119,o),
(206,267,c),
(20,267,l)
);
},
{
closed = 1;
nodes = (
(212,410,o),
(241,442,o),
(296,442,c),
(316,338,l),
(419,338,l),
(419,565,l),
(387,574,o),
(344,580,o),
(305,582,c),
(305,684,l),
(203,682,l),
(203,576,l),
(207,576,l),
(111,553,o),
(29,477,o),
(21,316,c),
(207,316,l)
);
}
);
width = 445;
}
);
note = cent;
unicode = 162;
},
{
color = 4;
glyphname = colonsign;
lastChange = "2023-05-04 11:00:17 +0000";
layers = (
{
background = {
shapes = (
{
closed = 1;
nodes = (
(145,728,o),
(20,636,o),
(20,359,cs),
(20,90,o),
(141,-9,o),
(357,-9,cs),
(412,-9,o),
(471,-1,o),
(535,16,c),
(535,169,l),
(485,159,o),
(440,154,o),
(401,154,cs),
(281,154,o),
(222,213,o),
(222,369,cs),
(222,507,o),
(275,577,o),
(398,577,cs),
(436,577,o),
(471,574,o),
(518,563,c),
(534,703,l),
(471,718,o),
(410,728,o),
(354,728,cs)
);
},
{
closed = 1;
nodes = (
(349,782,l),
(283,797,l),
(131,-62,l),
(197,-77,l)
);
},
{
closed = 1;
nodes = (
(463,786,l),
(397,801,l),
(245,-58,l),
(311,-73,l)
);
},
{
closed = 1;
nodes = (
(85,-49,l),
(134,-58,l),
(278,762,l),
(229,771,l)
);
},
{
closed = 1;
nodes = (
(316,-49,l),
(365,-58,l),
(509,762,l),
(460,771,l)
);
}
);
};
guides = (
{
angle = 90;
pos = (354,647);
}
);
layerId = "58D608FC-F2A7-4C81-9CF8-8074D1767F25";
shapes = (
{
closed = 1;
nodes = (
(463,786,l),
(397,801,l),
(245,-58,l),
(311,-73,l)
);
},
{
closed = 1;
nodes = (
(216,710,l),
(91,672,o),
(20,568,o),
(20,359,cs),
(20,225,o),
(50,133,o),
(107,74,c)
);
},
{
closed = 1;
nodes = (
(424,-7,o),
(477,1,o),
(535,16,c),
(535,169,l),
(486,159,o),
(441,154,o),
(402,154,c),
(374,-9,l)
);
},
{
closed = 1;
nodes = (
(197,-77,l),
(349,782,l),
(283,797,l),
(131,-62,l)
);
},
{
closed = 1;
nodes = (
(534,703,l),
(522,706,o),
(511,708,o),
(499,711,c),
(475,571,l),
(488,569,o),
(502,567,o),
(518,563,c)
);
}
);
width = 560;
}
);
unicode = 8353;
},
{
color = 4;
glyphname = currency;
lastChange = "2023-05-02 16:06:53 +0000";
layers = (
{
background = {
shapes = (
{
closed = 1;
nodes = (
(102,49,l),
(138,15,l),
(712,619,l),
(675,653,l)
);
},
{
closed = 1;
nodes = (
(-104,115,l),
(-68,81,l),
(506,685,l),
(469,719,l)
);
},
{
closed = 1;
nodes = (
(-116,619,l),
(458,15,l),
(494,49,l),
(-79,653,l)
);
},
{
closed = 1;
nodes = (
(90,685,l),
(664,81,l),
(700,115,l),
(127,719,l)
);
}
);
};
hints = (
{
horizontal = 1;
place = (46,21);
target = up;
type = BottomGhost;
},
{
horizontal = 1;
place = (97,142);
type = Stem;
},
{
horizontal = 1;
place = (406,142);
type = Stem;
},
{
horizontal = 1;
place = (600,-20);
target = down;
type = TopGhost;
},
{
place = (79,139);
type = Stem;
},
{
place = (382,140);
type = Stem;
}
);
layerId = "58D608FC-F2A7-4C81-9CF8-8074D1767F25";
shapes = (
{
closed = 1;
nodes = (
(566,536,l),
(466,640,l),
(334,500,l),
(433,397,l)
);
},
{
closed = 1;
nodes = (
(262,220,l),
(163,326,l),
(35,190,l),
(135,86,l)
);
},
{
closed = 1;
nodes = (
(313,137,o),
(326,138,o),
(338,140,c),
(298,183,l),
(258,141,l),
(272,138,o),
(286,137,o),
(301,137,cs)
);
},
{
closed = 1;
nodes = (
(129,361,l),
(84,410,l),
(81,394,o),
(79,378,o),
(79,362,cs),
(79,345,o),
(81,329,o),
(84,313,c)
);
},
{
closed = 1;
nodes = (
(566,190,l),
(436,328,l),
(337,222,l),
(466,86,l)
);
},
{
closed = 1;
nodes = (
(262,503,l),
(135,640,l),
(35,536,l),
(163,398,l)
);
},
{
closed = 1;
nodes = (
(520,326,o),
(522,344,o),
(522,362,cs),
(522,380,o),
(520,397,o),
(516,414,c),
(466,361,l),
(516,309,l)
);
},
{
closed = 1;
nodes = (
(339,585,l),
(327,587,o),
(314,588,o),
(301,588,cs),
(285,588,o),
(270,586,o),
(256,583,c),
(297,540,l)
);
}
);
width = 601;
}
);
note = currency;
unicode = 164;
},
{
color = 4;
glyphname = dollar;
lastChange = "2023-05-04 13:24:57 +0000";
layers = (
{
background = {
shapes = (
{
closed = 1;
nodes = (
(296,-74,l),
(296,798,l),
(218,798,l),
(218,-74,l)
);
},
{
closed = 1;
nodes = (
(127,163,o),
(45,179,o),
(45,179,c),
(25,18,l),
(84,3,o),
(161,-10,o),
(249,-10,cs),
(426,-9,o),
(498,74,o),
(498,222,cs),
(498,331,o),
(459,383,o),
(368,423,cs),
(283,460,ls),
(250,474,o),
(230,486,o),
(230,508,cs),
(230,546,o),
(255,558,o),
(303,558,cs),
(371,558,o),
(458,547,o),
(458,547,c),
(478,708,l),
(478,708,o),
(388,729,o),
(279,729,cs),
(102,728,o),
(31,656,o),
(31,509,cs),
(31,394,o),
(75,342,o),
(154,306,cs),
(260,257,ls),
(290,243,o),
(301,232,o),
(301,210,cs),
(301,176,o),
(275,163,o),
(225,163,cs)
);
},
{
closed = 1;
nodes = (
(168,-35,l),
(218,-35,l),
(218,798,l),
(168,798,l)
);
},
{
closed = 1;
nodes = (
(296,-35,l),
(346,-35,l),
(346,798,l),
(296,798,l)
);
}
);
};
hints = (
{
horizontal = 1;
place = (-103,108);
type = Stem;
},
{
horizontal = 1;
place = (443,140);
type = Stem;
},
{
horizontal = 1;
place = (684,-20);
target = down;
type = TopGhost;
},
{
place = (173,102);
type = Stem;
},
{
horizontal = 1;
place = (-10,140);
type = Stem;
},
{
horizontal = 1;
place = (579,105);
type = Stem;
}
);
layerId = "58D608FC-F2A7-4C81-9CF8-8074D1767F25";
shapes = (
{
closed = 1;
nodes = (
(296,-74,l),
(296,798,l),
(218,798,l),
(218,-74,l)
);
},
{
closed = 1;
nodes = (
(452,27,o),
(498,104,o),
(498,222,cs),
(498,331,o),
(459,383,o),
(368,423,cs),
(343,434,l),
(343,0,l)
);
},
{
closed = 1;
nodes = (
(401,554,o),
(458,547,o),
(458,547,c),
(478,708,l),
(478,708,o),
(421,721,o),
(343,727,c),
(343,557,l)
);
},
{
closed = 1;
nodes = (
(96,169,o),
(45,179,o),
(45,179,c),
(25,18,l),
(65,8,o),
(112,-1,o),
(166,-6,c),
(166,165,l)
);
},
{
closed = 1;
nodes = (
(71,688,o),
(31,620,o),
(31,509,cs),
(31,394,o),
(75,342,o),
(154,306,cs),
(166,300,l),
(166,715,l)
);
}
);
width = 523;
},
{
associatedMasterId = "58D608FC-F2A7-4C81-9CF8-8074D1767F25";
hints = (
{
horizontal = 1;
place = (-103,108);
type = Stem;
},
{
horizontal = 1;
place = (443,140);
type = Stem;
},
{
horizontal = 1;
place = (684,-20);
target = down;
type = TopGhost;
},
{
place = (173,102);
type = Stem;
},
{
horizontal = 1;
place = (-10,140);
type = Stem;
},
{
horizontal = 1;
place = (579,105);
type = Stem;
}
);
layerId = "747FD3A1-486F-4F04-A8BE-6E5996590622";
name = "Mar 19 20, 17:48";
shapes = (
{
closed = 1;
nodes = (
(275,-103,l),
(275,-2,l),
(369,18,o),
(409,74,o),
(409,169,cs),
(409,244,o),
(383,286,o),
(319,327,cs),
(231,384,ls),
(214,395,o),
(206,402,o),
(206,415,cs),
(206,437,o),
(226,444,o),
(274,444,cs),
(324,444,o),
(376,435,o),
(376,435,c),
(391,568,l),
(391,568,o),
(340,578,o),
(275,582,c),
(275,684,l),
(173,682,l),
(173,579,l),
(68,564,o),
(25,511,o),
(25,418,cs),
(25,341,o),
(51,299,o),
(114,257,cs),
(200,201,ls),
(217,190,o),
(225,181,o),
(225,168,cs),
(225,146,o),
(206,135,o),
(170,135,cs),
(88,135,o),
(35,146,o),
(35,146,c),
(20,10,l),
(63,-1,o),
(113,-8,o),
(173,-10,c),
(173,-103,l)
);
}
);
width = 429;
}
);
metricLeft = S;
metricRight = S;
note = dollar;
unicode = 36;
},
{
color = 4;
glyphname = dong;
lastChange = "2023-05-04 13:24:57 +0000";
layers = (
{
background = {
hints = (
{
horizontal = 1;
place = (0,77);
type = Stem;
}
);
shapes = (
{
closed = 1;
nodes = (
(345,140,l),
(498,140,l),
(498,845,l),
(318,818,l),
(318,705,l),
(282,717,o),
(250,723,o),
(220,723,cs),
(90,723,o),
(20,638,o),
(20,419,cs),
(20,268,o),
(58,130,o),
(204,130,cs),
(255,130,o),
(300,150,o),
(330,184,c)
);
},
{
closed = 1;
nodes = (
(318,287,l),
(296,275,o),
(277,270,o),
(263,270,cs),
(219,270,o),
(206,309,o),
(206,414,cs),
(206,527,o),
(216,583,o),
(277,583,cs),
(289,583,o),
(303,581,o),
(318,577,c)
);
}
);
};
layerId = "58D608FC-F2A7-4C81-9CF8-8074D1767F25";
shapes = (
{
closed = 1;
nodes = (
(345,138,l),
(498,138,l),
(498,755,l),
(318,734,l),
(318,567,l),
(282,576,o),
(250,580,o),
(220,580,cs),
(90,580,o),
(20,516,o),
(20,349,cs),
(20,235,o),
(58,130,o),
(204,130,cs),
(255,130,o),
(300,149,o),
(330,183,c)
);
},
{
closed = 1;
nodes = (
(318,284,l),
(296,271,o),
(277,266,o),
(263,266,cs),
(219,266,o),
(206,288,o),
(206,348,cs),
(206,412,o),
(216,444,o),
(277,444,cs),
(289,444,o),
(303,443,o),
(318,440,c)
);
},
{
closed = 1;
nodes = (
(498,0,l),
(498,77,l),
(30,77,l),
(30,0,l)
);
},
{
closed = 1;
nodes = (
(558,622,l),
(558,689,l),
(170,689,l),
(170,622,l)
);
}
);
width = 563;
}
);
metricLeft = d;
unicode = 8363;
},
{
color = 4;
glyphname = franc;
lastChange = "2023-05-04 13:24:57 +0000";
layers = (
{
background = {
shapes = (
{
closed = 1;
nodes = (
(-467,240,l),
(-467,190,l),
(366,190,l),
(366,240,l)
);
},
{
closed = 1;
nodes = (
(-467,97,l),
(-467,47,l),
(366,47,l),
(366,97,l)
);
}
);
};
hints = (
{
horizontal = 1;
place = (0,160);
type = Stem;
},
{
horizontal = 1;
place = (323,83);
type = Stem;
},
{
horizontal = 1;
place = (560,160);
type = Stem;
},
{
place = (537,195);
type = Stem;
},
{
place = (852,210);
type = Stem;
},
{
horizontal = 1;
place = (0,21);
target = up;
type = BottomGhost;
},
{
horizontal = 1;
place = (264,160);
type = Stem;
},
{
horizontal = 1;
place = (560,160);
type = Stem;
},
{
place = (55,195);
type = Stem;
}
);
layerId = "58D608FC-F2A7-4C81-9CF8-8074D1767F25";
shapes = (
{
closed = 1;
nodes = (
(366,140,l),
(366,233,l),
(0,233,l),
(0,140,l)
);
},
{
closed = 1;
nodes = (
(55,0,l),
(250,0,l),
(250,91,l),
(55,91,l)
);
},
{
closed = 1;
nodes = (
(434,560,l),
(464,720,l),
(0,720,l),
(64,560,l)
);
},
{
closed = 1;
nodes = (
(386,284,l),
(416,444,l),
(250,444,l),
(250,623,l),
(55,623,l),
(55,284,l)
);
}
);
width = 474;
}
);
unicode = 8355;
},
{
color = 4;
glyphname = guarani;
lastChange = "2023-05-04 13:24:57 +0000";
layers = (
{
anchors = (
{
name = bottom;
pos = (332,-35);
},
{
name = top.case;
pos = (336,740);
}
);
background = {
shapes = (
{
closed = 1;
nodes = (
(366,-74,l),
(366,798,l),
(288,798,l),
(288,-74,l)
);
},
{
closed = 1;
nodes = (
(238,-74,l),
(288,-74,l),
(288,759,l),
(238,759,l)
);
},
{
closed = 1;
nodes = (
(366,-74,l),
(416,-74,l),
(416,759,l),
(366,759,l)
);
}
);
};
hints = (
{
horizontal = 1;
place = (-10,160);
type = Stem;
},
{
horizontal = 1;
place = (560,168);
type = Stem;
},
{
place = (20,210);
type = Stem;
},
{
place = (352,180);
type = Stem;
}
);
layerId = "58D608FC-F2A7-4C81-9CF8-8074D1767F25";
shapes = (
{
closed = 1;
nodes = (
(239,244,l),
(232,275,o),
(230,313,o),
(230,356,cs),
(230,389,o),
(232,417,o),
(237,440,c),
(237,711,l),
(98,670,o),
(20,552,o),
(20,355,cs),
(20,131,o),
(89,25,o),
(239,-2,c)
);
},
{
closed = 1;
nodes = (
(552,356,l),
(415,356,l),
(416,-3,l),
(473,-1,o),
(534,27,o),
(560,58,c),
(552,-10,l)
);
},
{
closed = 1;
nodes = (
(366,-74,l),
(366,798,l),
(288,798,l),
(288,-74,l)
);
},
{
closed = 1;
nodes = (
(519,710,l),
(483,718,o),
(448,723,o),
(414,726,c),
(414,556,l),
(440,554,o),
(469,550,o),
(501,544,c)
);
}
);
width = 567;
}
);
metricLeft = G;
metricRight = G;
unicode = 8370;
},
{
color = 4;
glyphname = kip;
lastChange = "2023-05-04 13:24:57 +0000";
layers = (
{
background = {
shapes = (
{
closed = 1;
nodes = (
(591,313,l),
(591,424,l),
(20,424,l),
(20,313,l)
);
},
{
closed = 1;
nodes = (
(85,0,l),
(280,0,l),
(280,305,l),
(380,0,l),
(590,0,l),
(463,371,l),
(597,720,l),
(387,720,l),
(280,431,l),
(280,720,l),
(85,720,l)
);
},
{
closed = 1;
nodes = (
(-242,474,l),
(-242,424,l),
(591,424,l),
(591,474,l)
);
},
{
closed = 1;
nodes = (
(-242,313,l),
(-242,263,l),
(591,263,l),
(591,313,l)
);
}
);
};
layerId = "58D608FC-F2A7-4C81-9CF8-8074D1767F25";
shapes = (
{
closed = 1;
nodes = (
(591,313,l),
(591,424,l),
(20,424,l),
(20,313,l)
);
},
{
closed = 1;
nodes = (
(85,0,l),
(280,0,l),
(280,264,l),
(85,264,l)
);
},
{
closed = 1;
nodes = (
(280,720,l),
(85,720,l),
(85,475,l),
(280,475,l)
);
},
{
closed = 1;
nodes = (
(597,720,l),
(387,720,l),
(296,475,l),
(503,475,l)
);
},
{
closed = 1;
nodes = (
(380,0,l),
(590,0,l),
(500,264,l),
(293,264,l)
);
}
);
width = 605;
}
);
unicode = 8365;
},
{
color = 4;
glyphname = lira;
lastChange = "2023-05-04 13:24:57 +0000";
layers = (
{
background = {
shapes = (
{
closed = 1;
nodes = (
(-367,547,l),
(-367,497,l),
(466,497,l),
(466,547,l)
);
},
{
closed = 1;
nodes = (
(-367,223,l),
(-367,173,l),
(466,173,l),
(466,223,l)
);
}
);
};
layerId = "58D608FC-F2A7-4C81-9CF8-8074D1767F25";
shapes = (
{
closed = 1;
nodes = (
(24,125,l),
(24,0,l),
(515,0,l),
(515,160,l),
(86,160,l)
);
},
{
closed = 1;
nodes = (
(466,386,l),
(466,497,l),
(5,497,l),
(5,386,l)
);
},
{
closed = 1;
nodes = (
(466,223,l),
(466,334,l),
(5,334,l),
(5,223,l)
);
},
{
closed = 1;
nodes = (
(317,565,o),
(344,573,o),
(377,573,cs),
(407,573,o),
(442,567,o),
(480,556,c),
(480,711,l),
(436,722,o),
(394,728,o),
(353,728,cs),
(214,728,o),
(111,668,o),
(85,547,c),
(298,547,l)
);
}
);
width = 525;
}
);
metricLeft = sterling;
metricRight = sterling;
unicode = 8356;
},
{
color = 4;
glyphname = liraTurkish;
lastChange = "2023-05-04 13:24:57 +0000";
layers = (
{
background = {
hints = (
{
horizontal = 1;
place = (-10,155);
type = Stem;
},
{
horizontal = 1;
place = (573,155);
type = Stem;
},
{
place = (384,210);
type = Stem;
},
{
place = (720,210);
type = Stem;
}
);
shapes = (
{
closed = 1;
nodes = (
(-136,178,l),
(-117,132,l),
(651,454,l),
(632,500,l)
);
},
{
closed = 1;
nodes = (
(-136,506,l),
(-117,460,l),
(651,782,l),
(632,828,l)
);
}
);
};
hints = (
{
horizontal = 1;
place = (0,21);
target = up;
type = BottomGhost;
},
{
horizontal = 1;
place = (720,-20);
target = down;
type = TopGhost;
},
{
place = (45,195);
type = Stem;
}
);
layerId = "58D608FC-F2A7-4C81-9CF8-8074D1767F25";
shapes = (
{
closed = 1;
nodes = (
(524,0,o),
(634,119,o),
(634,369,c),
(446,369,l),
(446,240,o),
(410,178,o),
(286,178,c),
(243,0,l)
);
},
{
closed = 1;
nodes = (
(115,0,l),
(243,0,l),
(310,50,l),
(310,311,l),
(115,230,l)
);
},
{
closed = 1;
nodes = (
(20,406,l),
(481,600,l),
(481,711,l),
(20,517,l)
);
},
{
closed = 1;
nodes = (
(20,243,l),
(481,437,l),
(481,548,l),
(20,354,l)
);
},
{
closed = 1;
nodes = (
(310,720,l),
(115,720,l),
(115,611,l),
(310,693,l)
);
}
);
width = 654;
}
);
unicode = 8378;
},
{
color = 4;
glyphname = manat;
lastChange = "2023-05-04 13:24:57 +0000";
layers = (
{
background = {
shapes = (
{
closed = 1;
nodes = (
(244,-35,l),
(294,-35,l),
(294,798,l),
(244,798,l)
);
},
{
closed = 1;
nodes = (
(372,-35,l),
(422,-35,l),
(422,798,l),
(372,798,l)
);
}
);
};
layerId = "58D608FC-F2A7-4C81-9CF8-8074D1767F25";
shapes = (
{
closed = 1;
nodes = (
(235,0,l),
(235,720,l),
(95,696,o),
(40,591,o),
(40,359,cs),
(40,0,l)
);
},
{
closed = 1;
nodes = (
(372,-74,l),
(372,798,l),
(294,798,l),
(294,-74,l)
);
},
{
closed = 1;
nodes = (
(626,2,l),
(626,359,ls),
(626,588,o),
(572,697,o),
(431,720,c),
(431,2,l)
);
}
);
width = 666;
}
);
unicode = 8380;
},
{
color = 4;
glyphname = naira;
lastChange = "2023-05-04 13:24:57 +0000";
layers = (
{
background = {
shapes = (
{
closed = 1;
nodes = (
(-108,476,l),
(-108,426,l),
(725,426,l),
(725,476,l)
);
},
{
closed = 1;
nodes = (
(-108,348,l),
(-108,298,l),
(725,298,l),
(725,348,l)
);
}
);
};
layerId = "58D608FC-F2A7-4C81-9CF8-8074D1767F25";
shapes = (
{
closed = 1;
nodes = (
(641,0,l),
(641,299,l),
(305,299,l),
(407,0,l)
);
},
{
closed = 1;
nodes = (
(279,0,l),
(279,299,l),
(89,299,l),
(89,0,l)
);
},
{
closed = 1;
nodes = (
(725,348,l),
(725,426,l),
(5,426,l),
(5,348,l)
);
},
{
closed = 1;
nodes = (
(393,477,l),
(310,720,l),
(48,720,l),
(89,617,l),
(89,477,l)
);
},
{
closed = 1;
nodes = (
(641,477,l),
(641,720,l),
(451,720,l),
(451,477,l)
);
}
);
width = 730;
}
);
metricLeft = peseta;
metricRight = peseta;
unicode = 8358;
},
{
color = 4;
glyphname = peseta;
lastChange = "2023-05-04 13:24:57 +0000";
layers = (
{
background = {
shapes = (
{
closed = 1;
nodes = (
(668,428,l),
(668,506,l),
(5,506,l),
(5,428,l)
);
},
{
closed = 1;
nodes = (
(285,0,l),
(285,195,l),
(323,195,ls),
(502,195,o),
(589,271,o),
(589,455,cs),
(589,655,o),
(502,720,o),
(323,720,cs),
(35,720,l),
(90,583,l),
(90,0,l)
);
},
{
closed = 1;
nodes = (
(285,579,l),
(359,579,o),
(380,559,o),
(380,457,cs),
(380,368,o),
(349,338,o),
(285,338,c)
);
},
{
closed = 1;
nodes = (
(-165,428,l),
(-165,378,l),
(668,378,l),
(668,428,l)
);
},
{
closed = 1;
nodes = (
(-165,556,l),
(-165,506,l),
(668,506,l),
(668,556,l)
);
}
);
};
layerId = "58D608FC-F2A7-4C81-9CF8-8074D1767F25";
shapes = (
{
closed = 1;
nodes = (
(668,428,l),
(668,506,l),
(5,506,l),
(5,428,l)
);
},
{
closed = 1;
nodes = (
(351,349,o),
(324,338,o),
(285,338,c),
(285,379,l),
(90,379,l),
(90,0,l),
(285,0,l),
(285,195,l),
(323,195,ls),
(475,195,o),
(561,250,o),
(583,379,c),
(366,379,l)
);
},
{
closed = 1;
nodes = (
(552,678,o),
(467,720,o),
(323,720,cs),
(35,720,l),
(90,583,l),
(90,556,l),
(285,556,l),
(285,579,l),
(322,579,o),
(346,574,o),
(360,556,c),
(579,556,l)
);
}
);
width = 673;
}
);
unicode = 8359;
},
{
color = 4;
glyphname = peso;
lastChange = "2023-05-04 13:24:57 +0000";
layers = (
{
background = {
shapes = (
{
closed = 1;
nodes = (
(-165,487,l),
(-165,437,l),
(668,437,l),
(668,487,l)
);
}
);
};
layerId = "58D608FC-F2A7-4C81-9CF8-8074D1767F25";
shapes = (
{
closed = 1;
nodes = (
(285,0,l),
(285,195,l),
(323,195,ls),
(455,195,o),
(537,236,o),
(571,331,c),
(90,331,l),
(90,0,l)
);
},
{
closed = 1;
nodes = (
(668,381,l),
(668,438,l),
(5,438,l),
(5,381,l)
);
},
{
closed = 1;
nodes = (
(668,487,l),
(668,546,l),
(5,546,l),
(5,487,l)
);
},
{
closed = 1;
nodes = (
(567,597,l),
(531,687,o),
(450,720,o),
(323,720,cs),
(35,720,l),
(84,597,l)
);
}
);
width = 673;
}
);
metricLeft = peseta;
metricRight = peseta;
unicode = 8369;
},
{
color = 4;
glyphname = ruble;
lastChange = "2023-05-04 13:24:57 +0000";
layers = (
{
background = {
shapes = (
{
closed = 1;
nodes = (
(5,407,l),
(5,357,l),
(838,357,l),
(838,407,l)
);
},
{
closed = 1;
nodes = (
(5,83,l),
(5,33,l),
(838,33,l),
(838,83,l)
);
}
);
};
layerId = "58D608FC-F2A7-4C81-9CF8-8074D1767F25";
shapes = (
{
closed = 1;
nodes = (
(603,394,o),
(609,434,o),
(609,481,cs),
(609,661,o),
(522,720,o),
(343,720,cs),
(55,720,l),
(110,583,l),
(110,427,l),
(305,427,l),
(305,579,l),
(379,579,o),
(400,561,o),
(400,467,cs),
(400,420,o),
(389,394,o),
(375,369,c),
(361,427,l),
(643,427,l),
(586,364,l)
);
},
{
closed = 1;
nodes = (
(305,0,l),
(305,54,l),
(110,54,l),
(110,0,l)
);
},
{
closed = 1;
nodes = (
(466,103,l),
(466,214,l),
(5,214,l),
(5,103,l)
);
},
{
closed = 1;
nodes = (
(356,266,l),
(356,377,l),
(5,377,l),
(5,266,l)
);
},
{
closed = 1;
nodes = (
(343,266,ls),
(469,266,o),
(550,300,o),
(586,378,c),
(305,377,l),
(305,266,l)
);
}
);
width = 624;
}
);
unicode = 8381;
},
{
color = 4;
glyphname = rupeeIndian;
lastChange = "2023-05-04 13:24:57 +0000";
layers = (
{
background = {
shapes = (
{
closed = 1;
nodes = (
(-342,581,l),
(-342,531,l),
(491,531,l),
(491,581,l)
);
},
{
closed = 1;
nodes = (
(-342,420,l),
(-342,370,l),
(491,370,l),
(491,420,l)
);
}
);
};
guides = (
{
angle = 90;
pos = (100,487);
},
{
angle = 90;
pos = (109,487);
}
);
hints = (
{
horizontal = 1;
place = (0,21);
target = up;
type = BottomGhost;
},
{
horizontal = 1;
place = (246,80);
type = Stem;
},
{
horizontal = 1;
place = (579,141);
type = Stem;
},
{
place = (55,195);
type = Stem;
},
{
place = (331,200);
type = Stem;
},
{
horizontal = 1;
place = (234,92);
type = Stem;
},
{
horizontal = 1;
place = (246,122);
type = Stem;
}
);
layerId = "58D608FC-F2A7-4C81-9CF8-8074D1767F25";
shapes = (
{
closed = 1;
nodes = (
(20,370,l),
(20,259,l),
(97,259,ls),
(242,259,o),
(346,288,o),
(392,370,c)
);
},
{
closed = 1;
nodes = (
(491,583,l),
(491,720,l),
(20,720,l),
(20,583,l)
);
},
{
closed = 1;
nodes = (
(491,420,l),
(491,531,l),
(20,531,l),
(20,420,l)
);
},
{
closed = 1;
nodes = (
(20,287,l),
(20,234,l),
(272,0,l),
(509,0,l),
(167,314,l)
);
}
);
width = 514;
}
);
unicode = 8377;
},
{
color = 4;
glyphname = sterling;
lastChange = "2023-05-04 13:24:57 +0000";
layers = (
{
background = {
shapes = (
{
closed = 1;
nodes = (
(-383,459,l),
(-383,409,l),
(450,409,l),
(450,459,l)
);
},
{
closed = 1;
nodes = (
(-383,298,l),
(-383,248,l),
(450,248,l),
(450,298,l)
);
}
);
};
guides = (
{
angle = 90;
pos = (497,353);
}
);
hints = (
{
horizontal = 1;
place = (0,21);
target = up;
type = BottomGhost;
},
{
horizontal = 1;
place = (242,173);
type = Stem;
},
{
horizontal = 1;
place = (443,140);
type = Stem;
},
{
place = (219,173);
type = Stem;
},
{
place = (468,175);
type = Stem;
},
{
place = (735,180);
type = Stem;
},
{
horizontal = 1;
place = (-10,132);
type = Stem;
},
{
horizontal = 1;
place = (242,97);
type = Stem;
},
{
place = (259,64);
type = Stem;
},
{
horizontal = 1;
place = (96,347);
type = Stem;
}
);
layerId = "58D608FC-F2A7-4C81-9CF8-8074D1767F25";
shapes = (
{
closed = 1;
nodes = (
(120,243,o),
(120,238,o),
(120,233,cs),
(120,196,o),
(104,165,o),
(56,141,cs),
(24,125,l),
(24,0,l),
(515,0,l),
(515,160,l),
(168,160,l),
(204,145,l),
(258,172,o),
(281,208,o),
(288,249,c),
(119,249,l)
);
},
{
closed = 1;
nodes = (
(450,298,l),
(450,409,l),
(5,409,l),
(5,298,l)
);
},
{
closed = 1;
nodes = (
(269,542,o),
(311,573,o),
(377,573,cs),
(407,573,o),
(442,567,o),
(480,556,c),
(480,711,l),
(436,722,o),
(394,728,o),
(353,728,cs),
(190,728,o),
(78,646,o),
(78,480,cs),
(78,473,o),
(78,466,o),
(79,459,c),
(267,459,l)
);
}
);
width = 525;
}
);
note = sterling;
unicode = 163;
},
{
color = 4;
glyphname = won;
lastChange = "2023-05-04 13:24:57 +0000";
layers = (
{
background = {
shapes = (
{
closed = 1;
nodes = (
(-7,396,l),
(-7,346,l),
(826,346,l),
(826,396,l)
);
},
{
closed = 1;
nodes = (
(-7,268,l),
(-7,218,l),
(826,218,l),
(826,268,l)
);
}
);
};
layerId = "58D608FC-F2A7-4C81-9CF8-8074D1767F25";
shapes = (
{
closed = 1;
nodes = (
(258,397,l),
(233,720,l),
(25,720,l),
(76,397,l)
);
},
{
closed = 1;
nodes = (
(330,0,l),
(382,219,l),
(104,219,l),
(139,0,l)
);
},
{
closed = 1;
nodes = (
(717,0,l),
(752,219,l),
(476,219,l),
(526,0,l)
);
},
{
closed = 1;
nodes = (
(826,268,l),
(826,346,l),
(30,346,l),
(30,268,l)
);
},
{
closed = 1;
nodes = (
(560,397,l),
(506,622,l),
(350,622,l),
(296,397,l)
);
},
{
closed = 1;
nodes = (
(780,397,l),
(831,720,l),
(623,720,l),
(599,397,l)
);
}
);
width = 856;
}
);
unicode = 8361;
},
{
color = 4;
glyphname = yen;
lastChange = "2023-05-04 13:24:57 +0000";
layers = (
{
background = {
shapes = (
{
closed = 1;
nodes = (
(526,256,l),
(526,367,l),
(45,367,l),
(45,256,l)
);
},
{
closed = 1;
nodes = (
(526,93,l),
(526,204,l),
(45,204,l),
(45,93,l)
);
},
{
closed = 1;
nodes = (
(187,0,l),
(382,0,l),
(382,220,l),
(565,720,l),
(365,720,l),
(307,508,l),
(291,420,l),
(289,420,l),
(273,508,l),
(215,720,l),
(5,720,l),
(187,220,l)
);
},
{
closed = 1;
nodes = (
(-307,417,l),
(-307,367,l),
(526,367,l),
(526,417,l)
);
},
{
closed = 1;
nodes = (
(-307,93,l),
(-307,43,l),
(526,43,l),
(526,93,l)
);
}
);
};
hints = (
{
horizontal = 1;
place = (-12,168);
type = Stem;
},
{
horizontal = 1;
place = (158,86);
type = Stem;
},
{
horizontal = 1;
place = (563,-20);
target = down;
type = TopGhost;
},
{
place = (157,180);
type = Stem;
},
{
horizontal = 1;
place = (59,97);
type = Stem;
},
{
horizontal = 1;
place = (194,50);
type = Stem;
},
{
horizontal = 1;
place = (194,97);
type = Stem;
}
);
layerId = "58D608FC-F2A7-4C81-9CF8-8074D1767F25";
shapes = (
{
closed = 1;
nodes = (
(526,266,l),
(526,367,l),
(45,367,l),
(45,266,l)
);
},
{
closed = 1;
nodes = (
(526,113,l),
(526,214,l),
(45,214,l),
(45,113,l)
);
},
{
closed = 1;
nodes = (
(187,0,l),
(382,0,l),
(382,64,l),
(187,64,l)
);
},
{
closed = 1;
nodes = (
(565,720,l),
(365,720,l),
(307,508,l),
(291,420,l),
(289,420,l),
(273,508,l),
(215,720,l),
(5,720,l),
(115,418,l),
(455,418,l)
);
}
);
width = 570;
}
);
metricLeft = Y;
metricRight = Y;
note = yen;
unicode = 165;
},
{
color = 4;
glyphname = bulletoperator;
lastChange = "2023-05-04 11:01:19 +0000";
layers = (
{
background = {
shapes = (
{
closed = 1;
nodes = (
(420,341,l),
(420,418,l),
(267,418,l),
(267,573,l),
(184,573,l),
(184,418,l),
(30,418,l),
(30,341,l),
(184,341,l),
(184,183,l),
(267,183,l),
(267,341,l)
);
}
);
};
layerId = "58D608FC-F2A7-4C81-9CF8-8074D1767F25";
shapes = (
{
closed = 1;
nodes = (
(297,250,o),
(355,308,o),
(355,380,cs),
(355,451,o),
(297,509,o),
(226,509,cs),
(154,509,o),
(95,451,o),
(95,380,cs),
(95,308,o),
(154,250,o),
(226,250,cs)
);
}
);
width = 450;
}
);
unicode = 8729;
},
{
color = 4;
glyphname = plus;
lastChange = "2023-05-04 11:30:45 +0000";
layers = (
{
hints = (
{
horizontal = 1;
place = (183,21);
target = up;
type = BottomGhost;
},
{
horizontal = 1;
place = (341,77);
type = Stem;
},
{
horizontal = 1;
place = (573,-20);
target = down;
type = TopGhost;
},
{
place = (184,236);
type = Stem;
},
{
place = (30,237);
type = Stem;
},
{
place = (184,83);
type = Stem;
}
);
layerId = "58D608FC-F2A7-4C81-9CF8-8074D1767F25";
shapes = (
{
closed = 1;
nodes = (
(420,341,l),
(420,418,l),
(318,418,l),
(318,341,l)
);
},
{
closed = 1;
nodes = (
(30,418,l),
(30,341,l),
(134,341,l),
(134,418,l)
);
},
{
closed = 1;
nodes = (
(267,573,l),
(184,573,l),
(184,183,l),
(267,183,l)
);
}
);
width = 450;
}
);
note = plus;
unicode = 43;
},
{
color = 4;
glyphname = minus;
lastChange = "2023-05-04 11:01:54 +0000";
layers = (
{
hints = (
{
horizontal = 1;
place = (341,77);
type = Stem;
}
);
layerId = "58D608FC-F2A7-4C81-9CF8-8074D1767F25";
shapes = (
{
closed = 1;
nodes = (
(420,341,l),
(420,418,l),
(30,418,l),
(30,341,l)
);
}
);
width = 450;
}
);
note = minus;
unicode = 8722;
},
{
color = 4;
glyphname = multiply;
lastChange = "2023-05-04 11:30:45 +0000";
layers = (
{
background = {
shapes = (
{
closed = 1;
nodes = (
(7,108,l),
(42,72,l),
(631,661,l),
(596,697,l)
);
},
{
closed = 1;
nodes = (
(-97,183,l),
(-62,147,l),
(527,736,l),
(492,772,l)
);
}
);
};
hints = (
{
horizontal = 1;
place = (240,21);
target = up;
type = BottomGhost;
},
{
horizontal = 1;
place = (517,-20);
target = down;
type = TopGhost;
}
);
layerId = "58D608FC-F2A7-4C81-9CF8-8074D1767F25";
shapes = (
{
closed = 1;
nodes = (
(131,346,l),
(58,273,l),
(117,214,l),
(190,287,l)
);
},
{
closed = 1;
nodes = (
(315,413,l),
(389,487,l),
(330,546,l),
(256,472,l)
);
},
{
closed = 1;
nodes = (
(388,268,l),
(112,544,l),
(58,490,l),
(334,214,l)
);
}
);
width = 450;
}
);
note = multiply;
unicode = 215;
},
{
color = 4;
glyphname = divide;
lastChange = "2023-05-04 11:30:45 +0000";
layers = (
{
hints = (
{
horizontal = 1;
place = (136,173);
type = Stem;
},
{
horizontal = 1;
place = (341,77);
type = Stem;
},
{
horizontal = 1;
place = (449,173);
type = Stem;
},
{
place = (140,169);
type = Stem;
}
);
layerId = "58D608FC-F2A7-4C81-9CF8-8074D1767F25";
shapes = (
{
closed = 1;
nodes = (
(155,482,l),
(294,482,l),
(294,598,l),
(155,598,l)
);
},
{
closed = 1;
nodes = (
(155,149,l),
(294,149,l),
(294,265,l),
(155,265,l)
);
},
{
closed = 1;
nodes = (
(420,341,l),
(420,418,l),
(30,418,l),
(30,341,l)
);
}
);
width = 450;
}
);
note = divide;
unicode = 247;
},
{
color = 4;
glyphname = equal;
lastChange = "2023-05-04 11:30:45 +0000";
layers = (
{
hints = (
{
horizontal = 1;
place = (205,77);
type = Stem;
},
{
horizontal = 1;
place = (405,77);
type = Stem;
}
);
layerId = "58D608FC-F2A7-4C81-9CF8-8074D1767F25";
shapes = (
{
closed = 1;
nodes = (
(420,205,l),
(420,282,l),
(30,282,l),
(30,205,l)
);
},
{
closed = 1;
nodes = (
(420,405,l),
(420,482,l),
(30,482,l),
(30,405,l)
);
}
);
width = 450;
}
);
metricLeft = minus;
metricRight = minus;
note = equal;
unicode = 61;
},
{
color = 4;
glyphname = notequal;
lastChange = "2023-05-04 11:30:45 +0000";
layers = (
{
background = {
shapes = (
{
closed = 1;
nodes = (
(396,574,l),
(314,574,l),
(46,106,l),
(128,106,l)
);
},
{
closed = 1;
nodes = (
(64,0,l),
(107,-25,l),
(463,588,l),
(420,613,l)
);
},
{
closed = 1;
nodes = (
(-74,0,l),
(-31,-25,l),
(325,588,l),
(282,613,l)
);
}
);
};
hints = (
{
horizontal = 1;
place = (106,21);
target = up;
type = BottomGhost;
},
{
horizontal = 1;
place = (205,77);
type = Stem;
},
{
horizontal = 1;
place = (405,77);
type = Stem;
},
{
horizontal = 1;
place = (574,-20);
target = down;
type = TopGhost;
},
{
horizontal = 1;
place = (205,77);
type = Stem;
},
{
horizontal = 1;
place = (405,77);
type = Stem;
}
);
layerId = "58D608FC-F2A7-4C81-9CF8-8074D1767F25";
shapes = (
{
closed = 1;
nodes = (
(396,574,l),
(314,574,l),
(46,106,l),
(128,106,l)
);
},
{
closed = 1;
nodes = (
(420,205,l),
(420,282,l),
(284,282,l),
(240,205,l)
);
},
{
closed = 1;
nodes = (
(420,405,l),
(420,482,l),
(399,482,l),
(355,405,l)
);
},
{
closed = 1;
nodes = (
(30,282,l),
(30,205,l),
(45,205,l),
(89,282,l)
);
},
{
closed = 1;
nodes = (
(30,482,l),
(30,405,l),
(160,405,l),
(204,482,l)
);
}
);
width = 450;
}
);
metricLeft = equal;
metricRight = equal;
note = notequal;
unicode = 8800;
},
{
color = 4;
glyphname = greater;
lastChange = "2023-05-04 11:30:45 +0000";
layers = (
{
background = {
shapes = (
{
closed = 1;
nodes = (
(344,319,l),
(410,308,l),
(410,372,l),
(40,542,l),
(40,462,l)
);
},
{
closed = 1;
nodes = (
(40,138,l),
(410,308,l),
(410,372,l),
(344,361,l),
(40,218,l)
);
},
{
closed = 1;
nodes = (
(577,153,l),
(598,198,l),
(-40,501,l),
(-61,456,l)
);
}
);
};
guides = (
{
angle = 90;
pos = (354,394);
}
);
layerId = "58D608FC-F2A7-4C81-9CF8-8074D1767F25";
shapes = (
{
closed = 1;
nodes = (
(40,218,l),
(40,138,l),
(329,271,l),
(241,313,l)
);
},
{
closed = 1;
nodes = (
(410,308,l),
(410,372,l),
(40,542,l),
(40,462,l),
(388,298,l)
);
}
);
width = 450;
}
);
unicode = 62;
},
{
color = 4;
glyphname = greaterequal;
lastChange = "2023-05-04 11:30:45 +0000";
layers = (
{
background = {
shapes = (
{
closed = 1;
nodes = (
(705,230,l),
(722,277,l),
(53,513,l),
(37,466,l)
);
}
);
};
layerId = "58D608FC-F2A7-4C81-9CF8-8074D1767F25";
shapes = (
{
closed = 1;
nodes = (
(403,389,l),
(420,396,l),
(420,460,l),
(30,600,l),
(30,520,l)
);
},
{
closed = 1;
nodes = (
(30,336,l),
(30,256,l),
(329,363,l),
(219,402,l)
);
},
{
pos = (0,-202);
ref = minus;
}
);
width = 450;
}
);
unicode = 8805;
},
{
color = 4;
glyphname = asciitilde;
lastChange = "2023-05-04 11:30:45 +0000";
layers = (
{
hints = (
{
horizontal = 1;
place = (341,77);
type = Stem;
}
);
layerId = "58D608FC-F2A7-4C81-9CF8-8074D1767F25";
shapes = (
{
closed = 1;
nodes = (
(365,309,o),
(392,318,o),
(420,341,c),
(420,418,l),
(393,395,o),
(365,386,o),
(338,386,cs),
(301,386,o),
(263,402,o),
(226,418,cs),
(188,434,o),
(151,450,o),
(113,450,cs),
(85,450,o),
(58,441,o),
(30,418,c),
(30,341,l),
(57,364,o),
(85,373,o),
(112,373,cs),
(150,373,o),
(187,357,o),
(225,341,cs),
(262,325,o),
(300,309,o),
(337,309,cs)
);
}
);
width = 450;
}
);
unicode = 126;
},
{
color = 4;
glyphname = logicalnot;
lastChange = "2023-05-04 11:30:45 +0000";
layers = (
{
layerId = "58D608FC-F2A7-4C81-9CF8-8074D1767F25";
shapes = (
{
closed = 1;
nodes = (
(460,418,l),
(30,418,l),
(30,341,l),
(377,341,l),
(377,183,l),
(460,183,l)
);
}
);
width = 490;
}
);
unicode = 172;
},
{
color = 4;
glyphname = asciicircum;
lastChange = "2023-05-04 11:30:45 +0000";
layers = (
{
background = {
shapes = (
{
closed = 1;
nodes = (
(246,654,l),
(257,720,l),
(193,720,l),
(23,350,l),
(103,350,l)
);
},
{
closed = 1;
nodes = (
(427,350,l),
(257,720,l),
(193,720,l),
(204,654,l),
(347,350,l)
);
}
);
};
layerId = "58D608FC-F2A7-4C81-9CF8-8074D1767F25";
shapes = (
{
closed = 1;
nodes = (
(246,654,l),
(257,720,l),
(193,720,l),
(43,440,l),
(123,440,l)
);
},
{
closed = 1;
nodes = (
(407,440,l),
(257,720,l),
(193,720,l),
(204,654,l),
(327,440,l)
);
}
);
width = 450;
}
);
unicode = 94;
},
{
color = 4;
glyphname = micro;
lastChange = "2023-05-04 13:30:15 +0000";
layers = (
{
background = {
anchors = (
{
name = bottom;
pos = (266,-30);
},
{
name = horn;
pos = (454,575);
},
{
name = ogonek;
pos = (382,10);
},
{
name = top;
pos = (262,605);
}
);
hints = (
{
horizontal = 1;
place = (0,21);
target = up;
type = BottomGhost;
},
{
horizontal = 1;
place = (575,-20);
target = down;
type = TopGhost;
},
{
place = (40,180);
type = Stem;
},
{
place = (304,180);
type = Stem;
},
{
horizontal = 1;
place = (-10,141);
type = Stem;
}
);
shapes = (
{
closed = 1;
nodes = (
(234,137,o),
(220,157,o),
(220,193,cs),
(220,575,l),
(40,575,l),
(40,164,ls),
(40,49,o),
(108,-8,o),
(200,-8,cs),
(221,-8,o),
(243,-4,o),
(264,3,c),
(264,133,l)
);
},
{
closed = 1;
nodes = (
(331,0,l),
(484,0,l),
(484,575,l),
(304,575,l),
(304,77,l)
);
}
);
};
hints = (
{
horizontal = 1;
place = (0,21);
target = up;
type = BottomGhost;
},
{
horizontal = 1;
place = (575,-20);
target = down;
type = TopGhost;
},
{
place = (35,180);
type = Stem;
},
{
place = (299,180);
type = Stem;
},
{
horizontal = 1;
place = (-10,141);
type = Stem;
}
);
layerId = "58D608FC-F2A7-4C81-9CF8-8074D1767F25";
shapes = (
{
closed = 1;
nodes = (
(221,-8,o),
(243,-4,o),
(264,3,c),
(264,133,l),
(234,137,o),
(220,157,o),
(220,193,cs),
(220,575,l),
(40,575,l),
(40,164,ls),
(40,49,o),
(108,-8,o),
(200,-8,cs)
);
},
{
closed = 1;
nodes = (
(220,-150,l),
(220,196,l),
(40,196,l),
(40,-150,l)
);
},
{
closed = 1;
nodes = (
(484,0,l),
(484,575,l),
(304,575,l),
(304,77,l),
(331,0,l)
);
}
);
width = 524;
}
);
metricLeft = n;
metricRight = u;
unicode = 181;
},
